<svg width="10" height="12" viewBox="0 0 10 12" fill="none" xmlns="http://www.w3.org/2000/svg">
  <path id="Vector" d="M5.0002 6C5.3302 6 5.6127 5.8825 5.8477 5.6475C6.0827 5.4125 6.2002 5.13 6.2002 4.8C6.2002 4.47 6.0827 4.1875 5.8477 3.9525C5.6127 3.7175 5.3302 3.6 5.0002 3.6C4.6702 3.6 4.3877 3.7175 4.1527 3.9525C3.9177 4.1875 3.8002 4.47 3.8002 4.8C3.8002 5.13 3.9177 5.4125 4.1527 5.6475C4.3877 5.8825 4.6702 6 5.0002 6ZM5.0002 10.41C6.2202 9.29 7.1252 8.2725 7.7152 7.3575C8.3052 6.4425 8.6002 5.63 8.6002 4.92C8.6002 3.83 8.2527 2.9375 7.5577 2.2425C6.8627 1.5475 6.0102 1.2 5.0002 1.2C3.9902 1.2 3.1377 1.5475 2.4427 2.2425C1.7477 2.9375 1.4002 3.83 1.4002 4.92C1.4002 5.63 1.6952 6.4425 2.2852 7.3575C2.8752 8.2725 3.7802 9.29 5.0002 10.41ZM5.0002 12C3.3902 10.63 2.1877 9.3575 1.3927 8.1825C0.597695 7.0075 0.200195 5.92 0.200195 4.92C0.200195 3.42 0.682695 2.225 1.6477 1.335C2.6127 0.445 3.7302 0 5.0002 0C6.2702 0 7.3877 0.445 8.3527 1.335C9.3177 2.225 9.8002 3.42 9.8002 4.92C9.8002 5.92 9.4027 7.0075 8.6077 8.1825C7.8127 9.3575 6.6102 10.63 5.0002 12Z" fill="currentColor"/>
</svg>
