<svg viewBox="0 0 168 40" fill="none" xmlns="http://www.w3.org/2000/svg">
  <g clip-path="url(#clip0_1_2)">
    <path d="M13.1611 0.0619812C12.4602 0.609485 11.7301 1.11097 11.0546 1.68759C8.74354 3.66161 7.12576 6.11082 5.98907 8.89811C4.36658 12.8771 4.13264 17.028 4.52034 21.2381C4.82692 24.5644 5.88908 27.6625 7.68609 30.4874C9.02653 32.5957 10.7745 34.3256 12.8639 35.7089C12.9526 35.7671 13.0705 35.7925 13.1082 35.9681C12.5309 35.9812 12.0112 35.7643 11.4914 35.615C7.09935 34.3547 3.9053 31.6632 1.93945 27.5592C0.918785 25.4284 0.372609 23.1689 0.139611 20.8136C-0.110366 18.2892 -0.0301845 15.7865 0.414114 13.2988C0.975384 10.1546 2.19791 7.28283 4.29961 4.84959C6.25226 2.59008 8.73316 1.12412 11.6272 0.347472C12.1262 0.213179 12.6271 0.101424 13.1611 0.0619812Z" fill="#00A2DD" />
    <path d="M23.5403 0.0892167C24.144 0.0544695 24.6902 0.257318 25.2326 0.415089C29.8095 1.75051 33.0092 4.64768 34.9147 8.97511C36.5165 12.6132 36.8447 16.4373 36.5466 20.3525C36.3589 22.8205 35.8335 25.2011 34.7562 27.44C33.1724 30.7306 30.85 33.285 27.4211 34.7604C26.1684 35.2994 24.8996 35.7446 23.4309 35.9934C23.9582 35.6112 24.3902 35.3069 24.8128 34.9905C27.8239 32.7291 29.7973 29.7248 31.0472 26.2295C32.131 23.2008 32.4083 20.0529 32.2989 16.8599C32.1716 13.1504 31.3179 9.63625 29.4718 6.38692C28.0238 3.8391 26.0844 1.75239 23.5912 0.186885C23.5724 0.175615 23.5677 0.142746 23.5403 0.0901558V0.0892167Z" fill="#14335C" />
    <path d="M43.2847 27.3216C43.2847 24.6039 43.2913 21.887 43.2772 19.1692C43.2753 18.8152 43.3432 18.6846 43.7347 18.7006C44.6119 18.7353 45.4911 18.709 46.3693 18.7128C47.1825 18.7156 47.7022 19.2105 47.7032 20.0172C47.7079 25.2021 47.7032 30.3869 47.7088 35.5718C47.7088 35.8751 47.6607 36.0085 47.3023 36C46.142 35.9728 44.9808 35.9737 43.8205 35.9972C43.4149 36.0056 43.2668 35.9286 43.2706 35.4741C43.296 32.7572 43.2828 30.0394 43.2838 27.3226L43.2847 27.3216Z" fill="#14335C" />
    <path d="M43.2838 8.19941C43.2838 5.63656 43.2904 3.07372 43.2762 0.510878C43.2743 0.13805 43.3545 -0.00845186 43.7639 0.000939285C44.9251 0.0272345 46.0873 0.0215998 47.2485 0.00281751C47.5834 -0.00281717 47.7145 0.064799 47.7135 0.43481C47.7022 5.32666 47.7098 10.2176 47.706 15.1094C47.706 15.9161 47.1853 16.4101 46.3684 16.412C45.5053 16.4148 44.6412 16.3922 43.7781 16.4223C43.3894 16.4354 43.2743 16.3349 43.2772 15.9358C43.296 13.357 43.2866 10.7792 43.2866 8.20034H43.2828L43.2838 8.19941Z" fill="#00A2DD" />
    <path d="M51.5981 18.7062C52.6291 18.7072 53.5498 18.6508 54.4705 18.7776C55.4694 18.9156 56.0939 19.604 56.7401 20.2623C61.0755 24.6799 65.41 29.0975 69.7417 33.5189C70.5058 34.2993 71.2538 35.0956 72 35.8732C71.9613 36.0413 71.8444 35.985 71.7651 35.985C70.6662 35.9906 69.5672 35.9803 68.4692 35.9981C68.1824 36.0028 68.0466 35.8234 67.8881 35.6591C64.6988 32.3497 61.5123 29.0374 58.3239 25.7261C56.209 23.5295 54.0913 21.3348 51.9764 19.1382C51.8688 19.0265 51.7726 18.9053 51.599 18.7053L51.5981 18.7062Z" fill="#00A2DD" />
    <path d="M51.5915 16.411C52.2886 15.6804 52.9065 15.0277 53.5291 14.3807C58.0079 9.72453 62.4905 5.07122 66.9608 0.406636C67.2457 0.108937 67.5297 -0.008452 67.9372 0.00187825C69.0031 0.0281734 70.069 0.0112694 71.135 0.0112694C71.2067 0.156832 71.0822 0.209422 71.0124 0.280795C66.109 5.28909 61.2029 10.2955 56.3033 15.3076C55.5723 16.0551 54.711 16.4392 53.6592 16.4148C53.0083 16.3988 52.3575 16.412 51.5924 16.412L51.5915 16.411Z" fill="#14335C" />
    <path d="M17.3626 26.3036C17.3484 26.0792 17.2711 25.9383 17.0022 25.9346C16.8211 25.9318 16.6324 25.8735 16.4787 25.712C16.6136 25.4753 16.8711 25.3692 17.0664 25.2011C17.5786 24.7588 17.8955 24.1953 18.1474 23.5849C18.2125 23.4271 18.1898 23.2872 18.137 23.1341C18.054 22.8965 17.9427 22.8167 17.7474 23.029C17.3956 23.4121 17.0183 23.3454 16.5881 23.0985C16.9173 22.7923 17.2729 22.5603 17.5031 22.2007C17.6154 22.026 17.7323 21.8729 17.6399 21.6456C16.9532 19.9562 16.1334 18.355 14.6458 17.2027C14.1761 16.8383 13.662 16.5406 13.1337 16.2692C12.6941 16.0429 12.6894 16.0025 13.1063 15.7142C14.0166 15.085 14.9882 14.73 16.107 15.101C16.1947 15.1301 16.2872 15.1629 16.3787 15.1066C16.8088 15.5057 17.2296 15.902 17.5522 16.4082C17.9201 16.9848 18.0955 17.6291 18.3115 18.2761C18.3691 18.232 18.4068 18.2179 18.4115 18.1972C18.6728 17.0496 19.1577 16.0316 20.1236 15.2991C20.2595 15.1967 20.2236 15.0484 20.2708 14.9225C20.3066 15.1169 20.4019 15.1629 20.5991 15.0991C21.7395 14.73 22.7168 15.131 23.6327 15.7705C23.8931 15.9527 23.9365 16.0936 23.5724 16.2589C21.2358 17.322 19.9482 19.28 19.0511 21.5668C18.9568 21.8081 19.0247 21.9978 19.1803 22.1659C19.4548 22.4608 19.7425 22.7444 20.0236 23.0318C19.5029 23.3943 19.2501 23.3464 18.7077 22.7538C18.5002 23.0524 18.404 23.3351 18.5596 23.6957C18.8426 24.3503 19.1964 24.9391 19.7925 25.3636C19.9246 25.4575 20.167 25.5411 20.1368 25.7064C20.101 25.9017 19.8435 25.9346 19.669 25.9336C19.3652 25.9327 19.3086 26.1046 19.2916 26.3403C19.3001 26.1262 19.268 25.9449 19.0096 25.8801C18.837 25.8369 18.7105 25.7083 18.6228 25.5561C18.4455 25.2462 18.271 25.1495 18.0634 25.5326C17.9719 25.7017 17.8314 25.8397 17.6418 25.8839C17.4012 25.9411 17.3805 26.1168 17.3626 26.3055V26.3036Z" fill="#00A2DD" />
    <path d="M20.2689 14.9188C20.2227 15.0446 20.2576 15.192 20.1217 15.2954C19.1558 16.0288 18.6709 17.0459 18.4096 18.1935C18.4049 18.2141 18.3672 18.2282 18.3096 18.2723C18.0936 17.6253 17.9182 16.9811 17.5503 16.4044C17.2277 15.8983 16.8069 15.502 16.3768 15.1028C16.3504 13.3908 16.9013 11.8929 18.0266 10.5941C18.2549 10.3312 18.3832 10.2936 18.6275 10.5838C19.551 11.6807 20.1236 12.9166 20.2434 14.3497C20.2406 14.3591 20.233 14.3703 20.2349 14.3797C20.2387 14.4004 20.2472 14.4201 20.2529 14.4408C20.2576 14.6004 20.2632 14.7591 20.268 14.9188H20.2689Z" fill="#14335C" />
    <path d="M17.3626 26.3036C17.3805 26.1149 17.4012 25.9383 17.6418 25.882C17.8314 25.8369 17.9719 25.6998 18.0634 25.5308C18.271 25.1476 18.4445 25.2443 18.6228 25.5542C18.7105 25.7064 18.837 25.835 19.0096 25.8782C19.2671 25.943 19.3001 26.1243 19.2916 26.3384C19.2756 27.0841 19.003 27.7302 18.5426 28.3124C18.3794 28.519 18.2889 28.5096 18.121 28.3105C17.7154 27.8288 17.4748 27.2841 17.388 26.6671V26.6774C17.3795 26.5535 17.371 26.4285 17.3626 26.3046V26.3036Z" fill="#14335C" />
  </g>
  <path d="M92.316 2.432H92.712V11H92.472V2.732H92.448L88.812 11H88.548L84.912 2.732H84.888V11H84.648V2.432H85.044L88.668 10.688H88.692L92.316 2.432ZM94.2633 3.644H94.0233V2.432H94.2633V3.644ZM94.2633 11H94.0233V4.832H94.2633V11ZM95.4619 7.964C95.4699 8.38 95.5179 8.768 95.6059 9.128C95.7019 9.48 95.8459 9.788 96.0379 10.052C96.2299 10.316 96.4779 10.524 96.7819 10.676C97.0859 10.828 97.4579 10.904 97.8979 10.904C98.5459 10.904 99.0819 10.736 99.5059 10.4C99.9379 10.056 100.206 9.544 100.31 8.864H100.55C100.462 9.584 100.178 10.144 99.6979 10.544C99.2179 10.936 98.6259 11.132 97.9219 11.132C97.4419 11.14 97.0299 11.064 96.6859 10.904C96.3499 10.744 96.0739 10.52 95.8579 10.232C95.6419 9.936 95.4819 9.592 95.3779 9.2C95.2739 8.8 95.2219 8.372 95.2219 7.916C95.2219 7.404 95.2979 6.948 95.4499 6.548C95.6019 6.148 95.8019 5.812 96.0499 5.54C96.2979 5.26 96.5859 5.048 96.9139 4.904C97.2419 4.76 97.5779 4.688 97.9219 4.688C98.4019 4.688 98.8139 4.78 99.1579 4.964C99.5099 5.148 99.7939 5.392 100.01 5.696C100.234 6 100.394 6.348 100.49 6.74C100.594 7.132 100.638 7.54 100.622 7.964H95.4619ZM100.382 7.724C100.382 7.348 100.33 6.992 100.226 6.656C100.122 6.312 99.9659 6.012 99.7579 5.756C99.5579 5.5 99.3059 5.3 99.0019 5.156C98.6979 5.004 98.3459 4.928 97.9459 4.928C97.6099 4.928 97.2939 4.992 96.9979 5.12C96.7099 5.248 96.4539 5.436 96.2299 5.684C96.0139 5.924 95.8379 6.216 95.7019 6.56C95.5659 6.904 95.4859 7.292 95.4619 7.724H100.382ZM101.822 3.644H101.582V2.432H101.822V3.644ZM101.822 11.888C101.822 12.168 101.79 12.388 101.726 12.548C101.662 12.716 101.566 12.84 101.438 12.92C101.31 13.008 101.154 13.06 100.97 13.076C100.786 13.1 100.578 13.112 100.346 13.112V12.872C100.57 12.872 100.762 12.864 100.922 12.848C101.082 12.832 101.21 12.788 101.306 12.716C101.402 12.652 101.47 12.548 101.51 12.404C101.558 12.26 101.582 12.06 101.582 11.804V4.832H101.822V11.888ZM107.16 6.656C107.16 6.344 107.112 6.08 107.016 5.864C106.92 5.648 106.784 5.472 106.608 5.336C106.432 5.192 106.22 5.088 105.972 5.024C105.732 4.96 105.464 4.928 105.168 4.928C104.736 4.928 104.396 4.988 104.148 5.108C103.9 5.22 103.716 5.352 103.596 5.504C103.476 5.648 103.4 5.792 103.368 5.936C103.336 6.08 103.32 6.18 103.32 6.236C103.32 6.54 103.38 6.776 103.5 6.944C103.628 7.104 103.796 7.228 104.004 7.316C104.22 7.404 104.452 7.48 104.7 7.544C104.956 7.608 105.252 7.684 105.588 7.772C105.828 7.836 106.064 7.904 106.296 7.976C106.536 8.04 106.748 8.132 106.932 8.252C107.124 8.372 107.276 8.524 107.388 8.708C107.508 8.892 107.568 9.132 107.568 9.428C107.568 9.74 107.5 10.004 107.364 10.22C107.236 10.436 107.064 10.612 106.848 10.748C106.64 10.884 106.4 10.98 106.128 11.036C105.864 11.1 105.6 11.132 105.336 11.132C104.512 11.132 103.888 10.952 103.464 10.592C103.048 10.232 102.84 9.664 102.84 8.888H103.08C103.08 9.584 103.272 10.096 103.656 10.424C104.048 10.744 104.608 10.904 105.336 10.904C105.56 10.904 105.788 10.88 106.02 10.832C106.26 10.776 106.476 10.692 106.668 10.58C106.86 10.46 107.016 10.308 107.136 10.124C107.264 9.94 107.328 9.716 107.328 9.452C107.328 9.18 107.264 8.96 107.136 8.792C107.016 8.624 106.856 8.488 106.656 8.384C106.464 8.272 106.24 8.184 105.984 8.12C105.728 8.056 105.468 7.992 105.204 7.928C104.908 7.856 104.648 7.788 104.424 7.724C104.2 7.66 104 7.588 103.824 7.508C103.568 7.396 103.38 7.24 103.26 7.04C103.14 6.84 103.08 6.572 103.08 6.236C103.08 6.068 103.116 5.892 103.188 5.708C103.26 5.524 103.38 5.356 103.548 5.204C103.716 5.052 103.932 4.928 104.196 4.832C104.46 4.736 104.784 4.688 105.168 4.688C105.856 4.688 106.4 4.844 106.8 5.156C107.2 5.468 107.4 5.968 107.4 6.656H107.16ZM108.935 8.672V11H108.695V2.432H108.935V8.372L113.195 4.832H113.543L110.711 7.184L113.747 11H113.423L110.531 7.352L108.935 8.672ZM113.943 7.916C113.943 8.308 113.995 8.684 114.099 9.044C114.211 9.404 114.375 9.724 114.591 10.004C114.807 10.276 115.071 10.496 115.383 10.664C115.703 10.824 116.071 10.904 116.487 10.904C116.895 10.904 117.255 10.824 117.567 10.664C117.887 10.496 118.155 10.276 118.371 10.004C118.587 9.724 118.747 9.404 118.851 9.044C118.963 8.684 119.019 8.308 119.019 7.916C119.019 7.532 118.963 7.16 118.851 6.8C118.747 6.44 118.587 6.124 118.371 5.852C118.155 5.572 117.887 5.348 117.567 5.18C117.255 5.012 116.895 4.928 116.487 4.928C116.071 4.928 115.703 5.012 115.383 5.18C115.071 5.348 114.807 5.572 114.591 5.852C114.375 6.124 114.211 6.44 114.099 6.8C113.995 7.16 113.943 7.532 113.943 7.916ZM113.703 7.916C113.703 7.492 113.763 7.088 113.883 6.704C114.003 6.312 114.179 5.968 114.411 5.672C114.651 5.376 114.943 5.14 115.287 4.964C115.631 4.78 116.031 4.688 116.487 4.688C116.935 4.688 117.331 4.78 117.675 4.964C118.019 5.14 118.307 5.376 118.539 5.672C118.779 5.968 118.959 6.312 119.079 6.704C119.199 7.088 119.259 7.492 119.259 7.916C119.259 8.34 119.199 8.748 119.079 9.14C118.959 9.524 118.779 9.864 118.539 10.16C118.307 10.456 118.019 10.692 117.675 10.868C117.331 11.044 116.931 11.132 116.475 11.132C116.027 11.132 115.631 11.044 115.287 10.868C114.943 10.692 114.651 10.456 114.411 10.16C114.179 9.864 114.003 9.524 113.883 9.14C113.763 8.748 113.703 8.34 113.703 7.916ZM120.538 7.664H122.638V7.904H120.538V7.664ZM128.11 7.232V6.992H131.674V11H131.434V8.876H131.41C131.178 9.604 130.762 10.172 130.162 10.58C129.562 10.988 128.838 11.192 127.99 11.192C127.334 11.192 126.754 11.076 126.25 10.844C125.746 10.604 125.326 10.284 124.99 9.884C124.654 9.476 124.398 9 124.222 8.456C124.054 7.912 123.97 7.332 123.97 6.716C123.97 6.092 124.062 5.508 124.246 4.964C124.43 4.412 124.694 3.936 125.038 3.536C125.382 3.128 125.802 2.808 126.298 2.576C126.794 2.344 127.358 2.228 127.99 2.228C128.47 2.228 128.91 2.296 129.31 2.432C129.718 2.568 130.074 2.764 130.378 3.02C130.69 3.268 130.942 3.568 131.134 3.92C131.334 4.272 131.47 4.668 131.542 5.108H131.302C131.23 4.708 131.098 4.348 130.906 4.028C130.722 3.7 130.486 3.42 130.198 3.188C129.918 2.956 129.59 2.78 129.214 2.66C128.846 2.532 128.438 2.468 127.99 2.468C127.39 2.468 126.854 2.58 126.382 2.804C125.918 3.028 125.522 3.332 125.194 3.716C124.874 4.1 124.63 4.552 124.462 5.072C124.294 5.584 124.21 6.132 124.21 6.716C124.21 7.3 124.29 7.852 124.45 8.372C124.61 8.884 124.85 9.332 125.17 9.716C125.49 10.1 125.886 10.404 126.358 10.628C126.838 10.852 127.394 10.964 128.026 10.964C128.498 10.964 128.942 10.884 129.358 10.724C129.774 10.556 130.134 10.328 130.438 10.04C130.75 9.744 130.994 9.396 131.17 8.996C131.346 8.588 131.434 8.148 131.434 7.676V7.232H128.11ZM132.906 4.832H133.146V6.356H133.17C133.226 6.116 133.314 5.896 133.434 5.696C133.554 5.496 133.702 5.32 133.878 5.168C134.054 5.016 134.246 4.9 134.454 4.82C134.67 4.732 134.898 4.688 135.138 4.688C135.618 4.672 136.018 4.796 136.338 5.06C136.666 5.316 136.882 5.672 136.986 6.128H137.01C137.13 5.696 137.366 5.348 137.718 5.084C138.07 4.82 138.486 4.688 138.966 4.688C139.342 4.688 139.654 4.744 139.902 4.856C140.15 4.968 140.35 5.124 140.502 5.324C140.654 5.516 140.762 5.752 140.826 6.032C140.89 6.304 140.922 6.608 140.922 6.944V11H140.682V6.944C140.682 6.64 140.654 6.364 140.598 6.116C140.55 5.868 140.458 5.656 140.322 5.48C140.194 5.304 140.018 5.168 139.794 5.072C139.578 4.976 139.302 4.928 138.966 4.928C138.67 4.928 138.402 4.988 138.162 5.108C137.922 5.22 137.718 5.376 137.55 5.576C137.382 5.776 137.254 6.008 137.166 6.272C137.078 6.528 137.034 6.8 137.034 7.088V11H136.794V7.04C136.794 6.752 136.77 6.48 136.722 6.224C136.682 5.968 136.602 5.744 136.482 5.552C136.362 5.36 136.194 5.208 135.978 5.096C135.762 4.984 135.482 4.928 135.138 4.928C134.834 4.928 134.558 5 134.31 5.144C134.062 5.28 133.85 5.468 133.674 5.708C133.506 5.94 133.374 6.212 133.278 6.524C133.19 6.836 133.146 7.164 133.146 7.508V11H132.906V4.832ZM142.486 3.644H142.246V2.432H142.486V3.644ZM142.486 11H142.246V4.832H142.486V11ZM143.805 4.832H144.045V6.356H144.069C144.125 6.116 144.213 5.896 144.333 5.696C144.461 5.496 144.617 5.32 144.801 5.168C144.993 5.016 145.213 4.9 145.461 4.82C145.709 4.732 145.985 4.688 146.289 4.688C146.609 4.688 146.901 4.736 147.165 4.832C147.437 4.928 147.669 5.072 147.861 5.264C148.061 5.448 148.213 5.68 148.317 5.96C148.429 6.232 148.485 6.548 148.485 6.908V11H148.245V6.944C148.245 6.584 148.193 6.28 148.089 6.032C147.985 5.776 147.841 5.568 147.657 5.408C147.481 5.24 147.273 5.12 147.033 5.048C146.801 4.968 146.553 4.928 146.289 4.928C145.921 4.928 145.597 5 145.317 5.144C145.037 5.28 144.801 5.468 144.609 5.708C144.425 5.94 144.285 6.212 144.189 6.524C144.093 6.836 144.045 7.164 144.045 7.508V11H143.805V4.832ZM149.805 4.832H150.045V6.356H150.069C150.125 6.116 150.213 5.896 150.333 5.696C150.461 5.496 150.617 5.32 150.801 5.168C150.993 5.016 151.213 4.9 151.461 4.82C151.709 4.732 151.985 4.688 152.289 4.688C152.609 4.688 152.901 4.736 153.165 4.832C153.437 4.928 153.669 5.072 153.861 5.264C154.061 5.448 154.213 5.68 154.317 5.96C154.429 6.232 154.485 6.548 154.485 6.908V11H154.245V6.944C154.245 6.584 154.193 6.28 154.089 6.032C153.985 5.776 153.841 5.568 153.657 5.408C153.481 5.24 153.273 5.12 153.033 5.048C152.801 4.968 152.553 4.928 152.289 4.928C151.921 4.928 151.597 5 151.317 5.144C151.037 5.28 150.801 5.468 150.609 5.708C150.425 5.94 150.285 6.212 150.189 6.524C150.093 6.836 150.045 7.164 150.045 7.508V11H149.805V4.832ZM159.921 4.832H160.173L157.329 12.248C157.249 12.456 157.153 12.616 157.041 12.728C156.929 12.848 156.805 12.936 156.669 12.992C156.533 13.048 156.381 13.08 156.213 13.088C156.053 13.104 155.881 13.112 155.697 13.112V12.872C155.905 12.872 156.081 12.864 156.225 12.848C156.377 12.84 156.505 12.808 156.609 12.752C156.721 12.704 156.817 12.624 156.897 12.512C156.985 12.408 157.065 12.264 157.137 12.08L157.581 10.94L155.013 4.832H155.265L157.713 10.676L159.921 4.832ZM85.224 19.716C85.224 20.18 85.284 20.64 85.404 21.096C85.532 21.544 85.724 21.948 85.98 22.308C86.244 22.66 86.58 22.944 86.988 23.16C87.396 23.376 87.884 23.484 88.452 23.484C89.02 23.484 89.504 23.376 89.904 23.16C90.312 22.944 90.644 22.66 90.9 22.308C91.164 21.948 91.356 21.544 91.476 21.096C91.604 20.64 91.668 20.18 91.668 19.716C91.668 19.244 91.604 18.784 91.476 18.336C91.356 17.888 91.164 17.488 90.9 17.136C90.644 16.776 90.312 16.488 89.904 16.272C89.504 16.056 89.02 15.948 88.452 15.948C87.884 15.948 87.396 16.056 86.988 16.272C86.58 16.488 86.244 16.776 85.98 17.136C85.724 17.488 85.532 17.888 85.404 18.336C85.284 18.784 85.224 19.244 85.224 19.716ZM84.408 19.716C84.408 19.124 84.492 18.56 84.66 18.024C84.828 17.488 85.08 17.016 85.416 16.608C85.752 16.192 86.172 15.864 86.676 15.624C87.188 15.376 87.78 15.252 88.452 15.252C89.124 15.252 89.712 15.376 90.216 15.624C90.72 15.864 91.14 16.192 91.476 16.608C91.812 17.016 92.064 17.488 92.232 18.024C92.4 18.56 92.484 19.124 92.484 19.716C92.484 20.308 92.4 20.872 92.232 21.408C92.064 21.944 91.812 22.416 91.476 22.824C91.14 23.232 90.72 23.56 90.216 23.808C89.712 24.048 89.124 24.168 88.452 24.168C87.78 24.168 87.188 24.048 86.676 23.808C86.172 23.56 85.752 23.232 85.416 22.824C85.08 22.416 84.828 21.944 84.66 21.408C84.492 20.872 84.408 20.308 84.408 19.716ZM97.3225 19.62C97.3145 19.388 97.2665 19.188 97.1785 19.02C97.0905 18.844 96.9705 18.7 96.8185 18.588C96.6745 18.476 96.5065 18.396 96.3145 18.348C96.1225 18.292 95.9185 18.264 95.7025 18.264C95.5345 18.264 95.3625 18.284 95.1865 18.324C95.0185 18.356 94.8625 18.416 94.7185 18.504C94.5745 18.584 94.4585 18.692 94.3705 18.828C94.2825 18.964 94.2385 19.132 94.2385 19.332C94.2385 19.5 94.2785 19.644 94.3585 19.764C94.4465 19.876 94.5545 19.972 94.6825 20.052C94.8105 20.132 94.9505 20.2 95.1025 20.256C95.2545 20.304 95.3945 20.344 95.5225 20.376L96.5305 20.604C96.7465 20.636 96.9585 20.696 97.1665 20.784C97.3825 20.864 97.5705 20.972 97.7305 21.108C97.8985 21.244 98.0345 21.412 98.1385 21.612C98.2425 21.812 98.2945 22.048 98.2945 22.32C98.2945 22.656 98.2185 22.944 98.0665 23.184C97.9145 23.416 97.7185 23.608 97.4785 23.76C97.2465 23.904 96.9825 24.008 96.6865 24.072C96.3905 24.136 96.0985 24.168 95.8105 24.168C95.0825 24.168 94.4905 23.996 94.0345 23.652C93.5865 23.308 93.3305 22.756 93.2665 21.996H94.0225C94.0545 22.508 94.2385 22.896 94.5745 23.16C94.9185 23.416 95.3425 23.544 95.8465 23.544C96.0305 23.544 96.2185 23.524 96.4105 23.484C96.6105 23.444 96.7945 23.376 96.9625 23.28C97.1305 23.184 97.2665 23.064 97.3705 22.92C97.4825 22.768 97.5385 22.584 97.5385 22.368C97.5385 22.184 97.4985 22.032 97.4185 21.912C97.3465 21.784 97.2465 21.68 97.1185 21.6C96.9905 21.512 96.8425 21.44 96.6745 21.384C96.5145 21.328 96.3505 21.28 96.1825 21.24L95.2105 21.024C94.9625 20.96 94.7345 20.888 94.5265 20.808C94.3185 20.72 94.1345 20.616 93.9745 20.496C93.8225 20.368 93.7025 20.216 93.6145 20.04C93.5265 19.856 93.4825 19.632 93.4825 19.368C93.4825 19.056 93.5505 18.788 93.6865 18.564C93.8305 18.34 94.0145 18.16 94.2385 18.024C94.4625 17.888 94.7105 17.788 94.9825 17.724C95.2625 17.66 95.5385 17.628 95.8105 17.628C96.1225 17.628 96.4105 17.668 96.6745 17.748C96.9465 17.828 97.1825 17.952 97.3825 18.12C97.5905 18.288 97.7545 18.496 97.8745 18.744C97.9945 18.992 98.0625 19.284 98.0785 19.62H97.3225ZM95.1625 16.944L96.4225 15.252H97.3585L95.7745 16.944H95.1625ZM99.3919 17.808H100.088V19.26H100.112C100.304 18.756 100.6 18.368 101 18.096C101.408 17.824 101.892 17.7 102.452 17.724V18.48C102.108 18.464 101.796 18.512 101.516 18.624C101.236 18.728 100.992 18.88 100.784 19.08C100.584 19.28 100.428 19.52 100.316 19.8C100.204 20.072 100.148 20.372 100.148 20.7V24H99.3919V17.808ZM105.582 18.264C105.222 18.264 104.906 18.34 104.634 18.492C104.362 18.644 104.134 18.844 103.95 19.092C103.774 19.34 103.638 19.624 103.542 19.944C103.454 20.256 103.41 20.576 103.41 20.904C103.41 21.232 103.454 21.556 103.542 21.876C103.638 22.188 103.774 22.468 103.95 22.716C104.134 22.964 104.362 23.164 104.634 23.316C104.906 23.468 105.222 23.544 105.582 23.544C105.942 23.544 106.258 23.468 106.53 23.316C106.802 23.164 107.026 22.964 107.202 22.716C107.386 22.468 107.522 22.188 107.61 21.876C107.706 21.556 107.754 21.232 107.754 20.904C107.754 20.576 107.706 20.256 107.61 19.944C107.522 19.624 107.386 19.34 107.202 19.092C107.026 18.844 106.802 18.644 106.53 18.492C106.258 18.34 105.942 18.264 105.582 18.264ZM105.582 17.628C106.054 17.628 106.47 17.716 106.83 17.892C107.198 18.068 107.506 18.304 107.754 18.6C108.002 18.896 108.19 19.244 108.318 19.644C108.446 20.036 108.51 20.456 108.51 20.904C108.51 21.352 108.446 21.776 108.318 22.176C108.19 22.568 108.002 22.912 107.754 23.208C107.506 23.504 107.198 23.74 106.83 23.916C106.47 24.084 106.054 24.168 105.582 24.168C105.11 24.168 104.69 24.084 104.322 23.916C103.962 23.74 103.658 23.504 103.41 23.208C103.162 22.912 102.974 22.568 102.846 22.176C102.718 21.776 102.654 21.352 102.654 20.904C102.654 20.456 102.718 20.036 102.846 19.644C102.974 19.244 103.162 18.896 103.41 18.6C103.658 18.304 103.962 18.068 104.322 17.892C104.69 17.716 105.11 17.628 105.582 17.628ZM115.082 24H114.386V22.824H114.362C114.282 23.024 114.162 23.208 114.002 23.376C113.85 23.544 113.674 23.688 113.474 23.808C113.274 23.92 113.058 24.008 112.826 24.072C112.602 24.136 112.378 24.168 112.154 24.168C111.682 24.168 111.27 24.084 110.918 23.916C110.574 23.74 110.286 23.504 110.054 23.208C109.822 22.904 109.65 22.556 109.538 22.164C109.426 21.764 109.37 21.344 109.37 20.904C109.37 20.464 109.426 20.048 109.538 19.656C109.65 19.256 109.822 18.908 110.054 18.612C110.286 18.308 110.574 18.068 110.918 17.892C111.27 17.716 111.682 17.628 112.154 17.628C112.386 17.628 112.61 17.656 112.826 17.712C113.05 17.768 113.258 17.856 113.45 17.976C113.642 18.088 113.81 18.228 113.954 18.396C114.106 18.564 114.222 18.76 114.302 18.984H114.326V15.432H115.082V24ZM110.126 20.904C110.126 21.224 110.162 21.544 110.234 21.864C110.314 22.176 110.434 22.456 110.594 22.704C110.762 22.952 110.974 23.156 111.23 23.316C111.486 23.468 111.794 23.544 112.154 23.544C112.554 23.544 112.89 23.468 113.162 23.316C113.442 23.156 113.666 22.952 113.834 22.704C114.01 22.456 114.134 22.176 114.206 21.864C114.286 21.544 114.326 21.224 114.326 20.904C114.326 20.584 114.286 20.268 114.206 19.956C114.134 19.636 114.01 19.352 113.834 19.104C113.666 18.856 113.442 18.656 113.162 18.504C112.89 18.344 112.554 18.264 112.154 18.264C111.794 18.264 111.486 18.344 111.23 18.504C110.974 18.656 110.762 18.856 110.594 19.104C110.434 19.352 110.314 19.636 110.234 19.956C110.162 20.268 110.126 20.584 110.126 20.904ZM120.977 20.472C120.969 20.184 120.917 19.908 120.821 19.644C120.733 19.38 120.605 19.148 120.437 18.948C120.269 18.74 120.065 18.576 119.825 18.456C119.585 18.328 119.313 18.264 119.009 18.264C118.697 18.264 118.421 18.328 118.181 18.456C117.941 18.576 117.737 18.74 117.569 18.948C117.401 19.148 117.265 19.384 117.161 19.656C117.065 19.92 117.001 20.192 116.969 20.472H120.977ZM116.969 21.108C116.969 21.38 117.005 21.664 117.077 21.96C117.157 22.248 117.281 22.508 117.449 22.74C117.617 22.972 117.829 23.164 118.085 23.316C118.341 23.468 118.649 23.544 119.009 23.544C119.561 23.544 119.993 23.4 120.305 23.112C120.617 22.824 120.833 22.44 120.953 21.96H121.709C121.549 22.664 121.253 23.208 120.821 23.592C120.397 23.976 119.793 24.168 119.009 24.168C118.521 24.168 118.097 24.084 117.737 23.916C117.385 23.74 117.097 23.504 116.873 23.208C116.649 22.904 116.481 22.556 116.369 22.164C116.265 21.764 116.213 21.344 116.213 20.904C116.213 20.496 116.265 20.096 116.369 19.704C116.481 19.312 116.649 18.964 116.873 18.66C117.097 18.348 117.385 18.1 117.737 17.916C118.097 17.724 118.521 17.628 119.009 17.628C119.505 17.628 119.929 17.728 120.281 17.928C120.633 18.128 120.917 18.392 121.133 18.72C121.357 19.04 121.517 19.412 121.613 19.836C121.709 20.252 121.749 20.676 121.733 21.108H116.969ZM122.747 15.432H123.503V20.808L126.935 17.808H127.943L125.303 20.1L128.123 24H127.175L124.727 20.628L123.503 21.648V24H122.747V15.432ZM132.231 15.432H133.047V20.04L138.027 15.432H139.131L135.303 18.972L139.311 24H138.255L134.691 19.536L133.047 21.06V24H132.231V15.432ZM144.884 24H144.188V22.884H144.164C143.964 23.3 143.672 23.62 143.288 23.844C142.912 24.06 142.492 24.168 142.028 24.168C141.636 24.168 141.3 24.112 141.02 24C140.748 23.896 140.524 23.744 140.348 23.544C140.18 23.344 140.056 23.1 139.976 22.812C139.896 22.524 139.856 22.196 139.856 21.828V17.808H140.612V21.84C140.628 22.4 140.756 22.824 140.996 23.112C141.244 23.4 141.668 23.544 142.268 23.544C142.596 23.544 142.876 23.476 143.108 23.34C143.34 23.196 143.532 23.008 143.684 22.776C143.836 22.544 143.948 22.28 144.02 21.984C144.092 21.68 144.128 21.372 144.128 21.06V17.808H144.884V24ZM146.326 15.432H147.082V24H146.326V15.432ZM149.729 17.808H150.989V18.444H149.729V22.62C149.729 22.868 149.761 23.064 149.825 23.208C149.897 23.344 150.069 23.42 150.341 23.436C150.557 23.436 150.773 23.424 150.989 23.4V24.036C150.877 24.036 150.765 24.04 150.653 24.048C150.541 24.056 150.429 24.06 150.317 24.06C149.813 24.06 149.461 23.964 149.261 23.772C149.061 23.572 148.965 23.208 148.973 22.68V18.444H147.893V17.808H148.973V15.948H149.729V17.808ZM157.095 24H156.399V22.884H156.375C156.175 23.3 155.883 23.62 155.499 23.844C155.123 24.06 154.703 24.168 154.239 24.168C153.847 24.168 153.511 24.112 153.231 24C152.959 23.896 152.735 23.744 152.559 23.544C152.391 23.344 152.267 23.1 152.187 22.812C152.107 22.524 152.067 22.196 152.067 21.828V17.808H152.823V21.84C152.839 22.4 152.967 22.824 153.207 23.112C153.455 23.4 153.879 23.544 154.479 23.544C154.807 23.544 155.087 23.476 155.319 23.34C155.551 23.196 155.743 23.008 155.895 22.776C156.047 22.544 156.159 22.28 156.231 21.984C156.303 21.68 156.339 21.372 156.339 21.06V17.808H157.095V24ZM158.525 17.808H159.221V19.26H159.245C159.437 18.756 159.733 18.368 160.133 18.096C160.541 17.824 161.025 17.7 161.585 17.724V18.48C161.241 18.464 160.929 18.512 160.649 18.624C160.369 18.728 160.125 18.88 159.917 19.08C159.717 19.28 159.561 19.52 159.449 19.8C159.337 20.072 159.281 20.372 159.281 20.7V24H158.525V17.808ZM161.614 17.808H162.418L164.458 23.088L166.366 17.808H167.122L164.434 24.936C164.322 25.2 164.218 25.416 164.122 25.584C164.026 25.76 163.918 25.896 163.798 25.992C163.686 26.096 163.55 26.168 163.39 26.208C163.238 26.256 163.042 26.28 162.802 26.28C162.65 26.272 162.53 26.264 162.442 26.256C162.362 26.256 162.29 26.244 162.226 26.22V25.584C162.314 25.6 162.398 25.612 162.478 25.62C162.566 25.636 162.654 25.644 162.742 25.644C162.91 25.644 163.046 25.62 163.15 25.572C163.262 25.524 163.358 25.456 163.438 25.368C163.518 25.288 163.586 25.188 163.642 25.068C163.698 24.948 163.758 24.816 163.822 24.672L164.086 23.976L161.614 17.808ZM84.888 33.964V37H84.648V28.432H84.888V33.64L90.828 28.432H91.188L87.048 32.08L91.428 37H91.104L86.856 32.224L84.888 33.964ZM91.7613 32.74C91.7773 32.452 91.8373 32.184 91.9413 31.936C92.0453 31.68 92.1933 31.46 92.3853 31.276C92.5853 31.092 92.8253 30.948 93.1053 30.844C93.3933 30.74 93.7293 30.688 94.1133 30.688C94.3853 30.688 94.6413 30.716 94.8813 30.772C95.1293 30.828 95.3453 30.928 95.5293 31.072C95.7133 31.208 95.8613 31.388 95.9733 31.612C96.0853 31.836 96.1453 32.116 96.1533 32.452V36.376C96.1533 36.496 96.1773 36.584 96.2253 36.64C96.2733 36.696 96.3373 36.736 96.4173 36.76C96.4973 36.776 96.5813 36.784 96.6693 36.784C96.7653 36.776 96.8533 36.768 96.9333 36.76V37H96.5733C96.3973 37 96.2413 36.96 96.1053 36.88C95.9773 36.792 95.9133 36.632 95.9133 36.4V35.596H95.8893C95.8253 35.796 95.7213 35.988 95.5773 36.172C95.4413 36.356 95.2653 36.52 95.0493 36.664C94.8413 36.808 94.6013 36.92 94.3293 37C94.0573 37.088 93.7613 37.132 93.4413 37.132C92.8173 37.132 92.3173 36.996 91.9413 36.724C91.5653 36.444 91.3773 36.028 91.3773 35.476C91.3773 35.092 91.4373 34.784 91.5573 34.552C91.6853 34.32 91.8493 34.14 92.0493 34.012C92.2493 33.876 92.4773 33.784 92.7333 33.736C92.9893 33.68 93.2453 33.644 93.5013 33.628C93.9253 33.604 94.2893 33.584 94.5933 33.568C94.8973 33.544 95.1453 33.504 95.3373 33.448C95.5373 33.384 95.6813 33.292 95.7693 33.172C95.8653 33.044 95.9133 32.864 95.9133 32.632C95.9133 32.448 95.8973 32.256 95.8653 32.056C95.8333 31.856 95.7533 31.672 95.6253 31.504C95.5053 31.336 95.3253 31.2 95.0853 31.096C94.8453 30.984 94.5213 30.928 94.1133 30.928C93.4653 30.928 92.9613 31.088 92.6013 31.408C92.2413 31.72 92.0413 32.164 92.0013 32.74H91.7613ZM95.9133 33.376H95.8893C95.8093 33.488 95.6853 33.576 95.5173 33.64C95.3493 33.696 95.1573 33.74 94.9413 33.772C94.7253 33.804 94.4893 33.824 94.2333 33.832C93.9853 33.84 93.7413 33.852 93.5013 33.868C93.2613 33.884 93.0253 33.916 92.7933 33.964C92.5693 34.004 92.3693 34.084 92.1933 34.204C92.0173 34.316 91.8773 34.476 91.7733 34.684C91.6693 34.884 91.6173 35.148 91.6173 35.476C91.6173 35.652 91.6453 35.828 91.7013 36.004C91.7653 36.172 91.8693 36.324 92.0133 36.46C92.1573 36.588 92.3413 36.696 92.5653 36.784C92.7973 36.864 93.0813 36.904 93.4173 36.904C93.8173 36.904 94.1733 36.836 94.4853 36.7C94.7973 36.564 95.0573 36.388 95.2653 36.172C95.4813 35.948 95.6413 35.692 95.7453 35.404C95.8573 35.116 95.9133 34.82 95.9133 34.516V33.376ZM97.5506 30.832H97.7906V32.356H97.8146C97.8706 32.116 97.9586 31.896 98.0786 31.696C98.1986 31.496 98.3466 31.32 98.5226 31.168C98.6986 31.016 98.8906 30.9 99.0986 30.82C99.3146 30.732 99.5426 30.688 99.7826 30.688C100.263 30.672 100.663 30.796 100.983 31.06C101.311 31.316 101.527 31.672 101.631 32.128H101.655C101.775 31.696 102.011 31.348 102.363 31.084C102.715 30.82 103.131 30.688 103.611 30.688C103.987 30.688 104.299 30.744 104.547 30.856C104.795 30.968 104.995 31.124 105.147 31.324C105.299 31.516 105.407 31.752 105.471 32.032C105.535 32.304 105.567 32.608 105.567 32.944V37H105.327V32.944C105.327 32.64 105.299 32.364 105.243 32.116C105.195 31.868 105.103 31.656 104.967 31.48C104.839 31.304 104.663 31.168 104.439 31.072C104.223 30.976 103.947 30.928 103.611 30.928C103.315 30.928 103.047 30.988 102.807 31.108C102.567 31.22 102.363 31.376 102.195 31.576C102.027 31.776 101.899 32.008 101.811 32.272C101.723 32.528 101.679 32.8 101.679 33.088V37H101.439V33.04C101.439 32.752 101.415 32.48 101.367 32.224C101.327 31.968 101.247 31.744 101.127 31.552C101.007 31.36 100.839 31.208 100.623 31.096C100.407 30.984 100.127 30.928 99.7826 30.928C99.4786 30.928 99.2026 31 98.9546 31.144C98.7066 31.28 98.4946 31.468 98.3186 31.708C98.1506 31.94 98.0186 32.212 97.9226 32.524C97.8346 32.836 97.7906 33.164 97.7906 33.508V37H97.5506V30.832ZM107.13 29.644H106.89V28.432H107.13V29.644ZM107.13 37H106.89V30.832H107.13V37ZM108.329 33.964C108.337 34.38 108.385 34.768 108.473 35.128C108.569 35.48 108.713 35.788 108.905 36.052C109.097 36.316 109.345 36.524 109.649 36.676C109.953 36.828 110.325 36.904 110.765 36.904C111.413 36.904 111.949 36.736 112.373 36.4C112.805 36.056 113.073 35.544 113.177 34.864H113.417C113.329 35.584 113.045 36.144 112.565 36.544C112.085 36.936 111.493 37.132 110.789 37.132C110.309 37.14 109.897 37.064 109.553 36.904C109.217 36.744 108.941 36.52 108.725 36.232C108.509 35.936 108.349 35.592 108.245 35.2C108.141 34.8 108.089 34.372 108.089 33.916C108.089 33.404 108.165 32.948 108.317 32.548C108.469 32.148 108.669 31.812 108.917 31.54C109.165 31.26 109.453 31.048 109.781 30.904C110.109 30.76 110.445 30.688 110.789 30.688C111.269 30.688 111.681 30.78 112.025 30.964C112.377 31.148 112.661 31.392 112.877 31.696C113.101 32 113.261 32.348 113.357 32.74C113.461 33.132 113.505 33.54 113.489 33.964H108.329ZM113.249 33.724C113.249 33.348 113.197 32.992 113.093 32.656C112.989 32.312 112.833 32.012 112.625 31.756C112.425 31.5 112.173 31.3 111.869 31.156C111.565 31.004 111.213 30.928 110.813 30.928C110.477 30.928 110.161 30.992 109.865 31.12C109.577 31.248 109.321 31.436 109.097 31.684C108.881 31.924 108.705 32.216 108.569 32.56C108.433 32.904 108.353 33.292 108.329 33.724H113.249ZM114.689 30.832V32.356H114.713C114.769 32.116 114.857 31.896 114.977 31.696C115.105 31.496 115.261 31.32 115.445 31.168C115.637 31.016 115.857 30.9 116.105 30.82C116.353 30.732 116.629 30.688 116.933 30.688C117.253 30.688 117.545 30.736 117.809 30.832C118.081 30.928 118.313 31.072 118.505 31.264C118.705 31.448 118.857 31.68 118.961 31.96C119.073 32.232 119.129 32.548 119.129 32.908V37H118.889V32.944C118.889 32.584 118.837 32.28 118.733 32.032C118.629 31.776 118.485 31.568 118.301 31.408C118.125 31.24 117.917 31.12 117.677 31.048C117.445 30.968 117.197 30.928 116.933 30.928C116.565 30.928 116.241 31 115.961 31.144C115.681 31.28 115.445 31.468 115.253 31.708C115.069 31.94 114.929 32.212 114.833 32.524C114.737 32.836 114.689 33.164 114.689 33.508V37H114.449V30.832H114.689ZM116.357 30.22H116.177L117.761 28.492H118.109L116.357 30.22ZM124.017 33.964V37H123.777V28.432H124.017V33.64L129.957 28.432H130.317L126.177 32.08L130.557 37H130.233L125.985 32.224L124.017 33.964ZM131.142 37H130.902V30.832H131.142V32.356H131.166C131.222 32.124 131.31 31.908 131.43 31.708C131.55 31.5 131.71 31.32 131.91 31.168C132.11 31.016 132.346 30.896 132.618 30.808C132.898 30.72 133.222 30.68 133.59 30.688V30.928C133.166 30.904 132.798 30.964 132.486 31.108C132.182 31.244 131.93 31.436 131.73 31.684C131.53 31.924 131.382 32.204 131.286 32.524C131.19 32.844 131.142 33.172 131.142 33.508V37ZM133.996 32.74C134.012 32.452 134.072 32.184 134.176 31.936C134.28 31.68 134.428 31.46 134.62 31.276C134.82 31.092 135.06 30.948 135.34 30.844C135.628 30.74 135.964 30.688 136.348 30.688C136.62 30.688 136.876 30.716 137.116 30.772C137.364 30.828 137.58 30.928 137.764 31.072C137.948 31.208 138.096 31.388 138.208 31.612C138.32 31.836 138.38 32.116 138.388 32.452V36.376C138.388 36.496 138.412 36.584 138.46 36.64C138.508 36.696 138.572 36.736 138.652 36.76C138.732 36.776 138.816 36.784 138.904 36.784C139 36.776 139.088 36.768 139.168 36.76V37H138.808C138.632 37 138.476 36.96 138.34 36.88C138.212 36.792 138.148 36.632 138.148 36.4V35.596H138.124C138.06 35.796 137.956 35.988 137.812 36.172C137.676 36.356 137.5 36.52 137.284 36.664C137.076 36.808 136.836 36.92 136.564 37C136.292 37.088 135.996 37.132 135.676 37.132C135.052 37.132 134.552 36.996 134.176 36.724C133.8 36.444 133.612 36.028 133.612 35.476C133.612 35.092 133.672 34.784 133.792 34.552C133.92 34.32 134.084 34.14 134.284 34.012C134.484 33.876 134.712 33.784 134.968 33.736C135.224 33.68 135.48 33.644 135.736 33.628C136.16 33.604 136.524 33.584 136.828 33.568C137.132 33.544 137.38 33.504 137.572 33.448C137.772 33.384 137.916 33.292 138.004 33.172C138.1 33.044 138.148 32.864 138.148 32.632C138.148 32.448 138.132 32.256 138.1 32.056C138.068 31.856 137.988 31.672 137.86 31.504C137.74 31.336 137.56 31.2 137.32 31.096C137.08 30.984 136.756 30.928 136.348 30.928C135.7 30.928 135.196 31.088 134.836 31.408C134.476 31.72 134.276 32.164 134.236 32.74H133.996ZM138.148 33.376H138.124C138.044 33.488 137.92 33.576 137.752 33.64C137.584 33.696 137.392 33.74 137.176 33.772C136.96 33.804 136.724 33.824 136.468 33.832C136.22 33.84 135.976 33.852 135.736 33.868C135.496 33.884 135.26 33.916 135.028 33.964C134.804 34.004 134.604 34.084 134.428 34.204C134.252 34.316 134.112 34.476 134.008 34.684C133.904 34.884 133.852 35.148 133.852 35.476C133.852 35.652 133.88 35.828 133.936 36.004C134 36.172 134.104 36.324 134.248 36.46C134.392 36.588 134.576 36.696 134.8 36.784C135.032 36.864 135.316 36.904 135.652 36.904C136.052 36.904 136.408 36.836 136.72 36.7C137.032 36.564 137.292 36.388 137.5 36.172C137.716 35.948 137.876 35.692 137.98 35.404C138.092 35.116 138.148 34.82 138.148 34.516V33.376ZM140.025 29.644H139.785V28.432H140.025V29.644ZM140.025 37.888C140.025 38.168 139.993 38.388 139.929 38.548C139.865 38.716 139.769 38.84 139.641 38.92C139.513 39.008 139.357 39.06 139.173 39.076C138.989 39.1 138.781 39.112 138.549 39.112V38.872C138.773 38.872 138.965 38.864 139.125 38.848C139.285 38.832 139.413 38.788 139.509 38.716C139.605 38.652 139.673 38.548 139.713 38.404C139.761 38.26 139.785 38.06 139.785 37.804V30.832H140.025V37.888ZM141.224 33.964C141.232 34.38 141.28 34.768 141.368 35.128C141.464 35.48 141.608 35.788 141.8 36.052C141.992 36.316 142.24 36.524 142.544 36.676C142.848 36.828 143.22 36.904 143.66 36.904C144.308 36.904 144.844 36.736 145.268 36.4C145.7 36.056 145.968 35.544 146.072 34.864H146.312C146.224 35.584 145.94 36.144 145.46 36.544C144.98 36.936 144.388 37.132 143.684 37.132C143.204 37.14 142.792 37.064 142.448 36.904C142.112 36.744 141.836 36.52 141.62 36.232C141.404 35.936 141.244 35.592 141.14 35.2C141.036 34.8 140.984 34.372 140.984 33.916C140.984 33.404 141.06 32.948 141.212 32.548C141.364 32.148 141.564 31.812 141.812 31.54C142.06 31.26 142.348 31.048 142.676 30.904C143.004 30.76 143.34 30.688 143.684 30.688C144.164 30.688 144.576 30.78 144.92 30.964C145.272 31.148 145.556 31.392 145.772 31.696C145.996 32 146.156 32.348 146.252 32.74C146.356 33.132 146.4 33.54 146.384 33.964H141.224ZM146.144 33.724C146.144 33.348 146.092 32.992 145.988 32.656C145.884 32.312 145.728 32.012 145.52 31.756C145.32 31.5 145.068 31.3 144.764 31.156C144.46 31.004 144.108 30.928 143.708 30.928C143.372 30.928 143.056 30.992 142.76 31.12C142.472 31.248 142.216 31.436 141.992 31.684C141.776 31.924 141.6 32.216 141.464 32.56C141.328 32.904 141.248 33.292 141.224 33.724H146.144ZM147.584 30.832V32.356H147.608C147.664 32.116 147.752 31.896 147.872 31.696C148 31.496 148.156 31.32 148.34 31.168C148.532 31.016 148.752 30.9 149 30.82C149.248 30.732 149.524 30.688 149.828 30.688C150.148 30.688 150.44 30.736 150.704 30.832C150.976 30.928 151.208 31.072 151.4 31.264C151.6 31.448 151.752 31.68 151.856 31.96C151.968 32.232 152.024 32.548 152.024 32.908V37H151.784V32.944C151.784 32.584 151.732 32.28 151.628 32.032C151.524 31.776 151.38 31.568 151.196 31.408C151.02 31.24 150.812 31.12 150.572 31.048C150.34 30.968 150.092 30.928 149.828 30.928C149.46 30.928 149.136 31 148.856 31.144C148.576 31.28 148.34 31.468 148.148 31.708C147.964 31.94 147.824 32.212 147.728 32.524C147.632 32.836 147.584 33.164 147.584 33.508V37H147.344V30.832H147.584ZM149.252 30.22H149.072L150.656 28.492H151.004L149.252 30.22ZM157.364 32.656C157.364 32.344 157.316 32.08 157.22 31.864C157.124 31.648 156.988 31.472 156.812 31.336C156.636 31.192 156.424 31.088 156.176 31.024C155.936 30.96 155.668 30.928 155.372 30.928C154.94 30.928 154.6 30.988 154.352 31.108C154.104 31.22 153.92 31.352 153.8 31.504C153.68 31.648 153.604 31.792 153.572 31.936C153.54 32.08 153.524 32.18 153.524 32.236C153.524 32.54 153.584 32.776 153.704 32.944C153.832 33.104 154 33.228 154.208 33.316C154.424 33.404 154.656 33.48 154.904 33.544C155.16 33.608 155.456 33.684 155.792 33.772C156.032 33.836 156.268 33.904 156.5 33.976C156.74 34.04 156.952 34.132 157.136 34.252C157.328 34.372 157.48 34.524 157.592 34.708C157.712 34.892 157.772 35.132 157.772 35.428C157.772 35.74 157.704 36.004 157.568 36.22C157.44 36.436 157.268 36.612 157.052 36.748C156.844 36.884 156.604 36.98 156.332 37.036C156.068 37.1 155.804 37.132 155.54 37.132C154.716 37.132 154.092 36.952 153.668 36.592C153.252 36.232 153.044 35.664 153.044 34.888H153.284C153.284 35.584 153.476 36.096 153.86 36.424C154.252 36.744 154.812 36.904 155.54 36.904C155.764 36.904 155.992 36.88 156.224 36.832C156.464 36.776 156.68 36.692 156.872 36.58C157.064 36.46 157.22 36.308 157.34 36.124C157.468 35.94 157.532 35.716 157.532 35.452C157.532 35.18 157.468 34.96 157.34 34.792C157.22 34.624 157.06 34.488 156.86 34.384C156.668 34.272 156.444 34.184 156.188 34.12C155.932 34.056 155.672 33.992 155.408 33.928C155.112 33.856 154.852 33.788 154.628 33.724C154.404 33.66 154.204 33.588 154.028 33.508C153.772 33.396 153.584 33.24 153.464 33.04C153.344 32.84 153.284 32.572 153.284 32.236C153.284 32.068 153.32 31.892 153.392 31.708C153.464 31.524 153.584 31.356 153.752 31.204C153.92 31.052 154.136 30.928 154.4 30.832C154.664 30.736 154.988 30.688 155.372 30.688C156.06 30.688 156.604 30.844 157.004 31.156C157.404 31.468 157.604 31.968 157.604 32.656H157.364ZM159.138 34.672V37H158.898V28.432H159.138V34.372L163.398 30.832H163.746L160.914 33.184L163.95 37H163.626L160.734 33.352L159.138 34.672ZM164.47 29.644H164.23V28.432H164.47V29.644ZM164.47 37H164.23V30.832H164.47V37Z" fill="#14335C" />
  <defs>
    <clipPath id="clip0_1_2">
      <rect width="72" height="36" fill="white" />
    </clipPath>
  </defs>
</svg>
