<svg width="181" height="42" viewBox="0 0 181 42" fill="none" xmlns="http://www.w3.org/2000/svg">
<g clip-path="url(#clip0_1018_18671)">
<path d="M14.2579 1.56738C13.4986 2.16051 12.7077 2.70379 11.976 3.32846C9.47227 5.46698 7.71968 8.12029 6.48827 11.1399C4.73057 15.4505 4.47713 19.9473 4.89714 24.5081C5.22927 28.1117 6.37995 31.468 8.3267 34.5283C9.77885 36.8123 11.6725 38.6863 13.936 40.1848C14.0321 40.2479 14.1598 40.2754 14.2007 40.4656C13.5753 40.4799 13.0122 40.2449 12.4491 40.0831C7.69107 38.7178 4.23085 35.802 2.10117 31.3561C0.995457 29.0477 0.403766 26.5999 0.151352 24.0483C-0.119456 21.3136 -0.032593 18.6023 0.448731 15.9073C1.05677 12.5011 2.38118 9.38997 4.65801 6.75395C6.77339 4.30615 9.46103 2.71803 12.5963 1.87666C13.1369 1.73118 13.6795 1.61011 14.2579 1.56738Z" fill="white"/>
<path d="M25.5021 1.59654C26.1561 1.5589 26.7478 1.77865 27.3354 1.94957C32.2938 3.39628 35.7601 6.53487 37.8244 11.2229C39.5596 15.1642 39.9152 19.307 39.5923 23.5484C39.3889 26.2221 38.8197 28.8011 37.6527 31.2265C35.9369 34.7914 33.4209 37.5587 29.7063 39.157C28.3492 39.7409 26.9747 40.2232 25.3835 40.4928C25.9548 40.0787 26.4228 39.7491 26.8807 39.4062C30.1426 36.9564 32.2805 33.7018 33.6345 29.9151C34.8087 26.6341 35.1091 23.2239 34.9906 19.7648C34.8526 15.7462 33.9278 11.9392 31.9279 8.41905C30.3593 5.65892 28.2582 3.39831 25.5573 1.70235C25.5368 1.69014 25.5317 1.65453 25.5021 1.59756V1.59654Z" fill="white"/>
<path d="M46.8919 31.0982C46.8919 28.1539 46.899 25.2107 46.8837 22.2664C46.8817 21.8828 46.9552 21.7414 47.3793 21.7587C48.3297 21.7964 49.2821 21.7679 50.2335 21.7719C51.1144 21.775 51.6775 22.3112 51.6785 23.1851C51.6836 28.802 51.6785 34.4189 51.6847 40.0358C51.6847 40.3645 51.6326 40.5089 51.2442 40.4998C49.9873 40.4703 48.7293 40.4713 47.4723 40.4967C47.0329 40.5059 46.8725 40.4224 46.8765 39.93C46.9041 36.9868 46.8898 34.0425 46.8908 31.0992L46.8919 31.0982Z" fill="white"/>
<path d="M46.8908 10.3826C46.8908 7.60621 46.8979 4.82979 46.8826 2.05338C46.8806 1.64948 46.9674 1.49077 47.4109 1.50095C48.6689 1.52943 49.9279 1.52333 51.1859 1.50298C51.5487 1.49688 51.6907 1.57013 51.6897 1.97097C51.6774 7.27047 51.6856 12.569 51.6815 17.8685C51.6815 18.7424 51.1174 19.2775 50.2325 19.2796C49.2974 19.2826 48.3613 19.2582 47.4263 19.2907C47.0052 19.305 46.8806 19.1961 46.8836 18.7637C46.9041 15.97 46.8938 13.1773 46.8938 10.3836H46.8898L46.8908 10.3826Z" fill="white"/>
<path d="M55.8979 21.7651C57.0149 21.7661 58.0123 21.7051 59.0097 21.8424C60.0919 21.992 60.7684 22.7377 61.4684 23.4509C66.1652 28.2366 70.8609 33.0223 75.5535 37.8121C76.3813 38.6576 77.1917 39.5203 78 40.3627C77.9581 40.5448 77.8314 40.4838 77.7456 40.4838C76.555 40.4899 75.3645 40.4787 74.175 40.498C73.8643 40.5031 73.7171 40.3088 73.5455 40.1307C70.0904 36.5455 66.6383 32.9572 63.1842 29.37C60.8931 26.9903 58.5989 24.6127 56.3077 22.2331C56.1912 22.112 56.087 21.9808 55.899 21.7641L55.8979 21.7651Z" fill="white"/>
<path d="M55.8909 19.2787C56.6461 18.4872 57.3154 17.7801 57.9899 17.0791C62.842 12.035 67.6981 6.99392 72.541 1.94063C72.8496 1.61812 73.1572 1.49095 73.5987 1.50214C74.7534 1.53063 75.9082 1.51231 77.063 1.51231C77.1406 1.67001 77.0058 1.72698 76.9301 1.8043C71.6182 7.22995 66.3032 12.6536 60.9954 18.0833C60.2034 18.8931 59.2704 19.3092 58.1309 19.2828C57.4258 19.2655 56.7207 19.2797 55.8919 19.2797L55.8909 19.2787Z" fill="white"/>
<path d="M18.8096 29.9956C18.7943 29.7524 18.7105 29.5998 18.4193 29.5957C18.2231 29.5927 18.0187 29.5296 17.8521 29.3546C17.9982 29.0982 18.2772 28.9833 18.4888 28.8012C19.0437 28.322 19.387 27.7116 19.6599 27.0503C19.7304 26.8794 19.7059 26.7278 19.6486 26.5619C19.5587 26.3045 19.4381 26.2181 19.2266 26.448C18.8454 26.8631 18.4366 26.7908 17.9706 26.5233C18.3273 26.1916 18.7126 25.9403 18.9619 25.5507C19.0835 25.3614 19.2102 25.1956 19.1101 24.9494C18.3661 23.1191 17.4781 21.3845 15.8665 20.1362C15.3576 19.7415 14.8007 19.419 14.2284 19.1249C13.7522 18.8797 13.7471 18.836 14.1987 18.5237C15.1849 17.842 16.2375 17.4575 17.4495 17.8593C17.5445 17.8909 17.6447 17.9265 17.7438 17.8654C18.2098 18.2978 18.6656 18.7271 19.0151 19.2755C19.4136 19.9002 19.6037 20.5981 19.8377 21.2991C19.9 21.2512 19.9409 21.236 19.946 21.2136C20.2291 19.9704 20.7544 18.8675 21.8008 18.074C21.948 17.9631 21.9091 17.8023 21.9602 17.666C21.9991 17.8766 22.1023 17.9265 22.3158 17.8573C23.5513 17.4575 24.6101 17.8919 25.6023 18.5847C25.8844 18.7821 25.9314 18.9347 25.5369 19.1137C23.0056 20.2654 21.6107 22.3866 20.6389 24.8639C20.5367 25.1254 20.6103 25.3309 20.7789 25.513C21.0763 25.8325 21.3879 26.1397 21.6925 26.451C21.1284 26.8437 20.8545 26.7919 20.2669 26.1499C20.0421 26.4734 19.9378 26.7797 20.1065 27.1703C20.413 27.8794 20.7963 28.5173 21.4421 28.9772C21.5852 29.0789 21.8478 29.1695 21.8151 29.3485C21.7763 29.5601 21.4973 29.5957 21.3082 29.5947C20.9792 29.5937 20.9179 29.7799 20.8995 30.0352C20.9087 29.8033 20.8739 29.6069 20.5939 29.5367C20.4069 29.4899 20.27 29.3506 20.1749 29.1857C19.9828 28.85 19.7938 28.7452 19.5689 29.1603C19.4698 29.3434 19.3175 29.493 19.1121 29.5408C18.8515 29.6029 18.8291 29.7931 18.8096 29.9976V29.9956Z" fill="white"/>
<path d="M21.9581 17.6618C21.9081 17.7982 21.9459 17.9579 21.7987 18.0698C20.7523 18.8644 20.227 19.9662 19.9439 21.2094C19.9388 21.2318 19.898 21.2471 19.8356 21.2949C19.6016 20.5939 19.4115 19.896 19.013 19.2713C18.6635 18.7229 18.2077 18.2936 17.7417 17.8612C17.7131 16.0066 18.3099 14.3838 19.529 12.9768C19.7763 12.692 19.9153 12.6513 20.18 12.9656C21.1805 14.1539 21.8008 15.4928 21.9306 17.0453C21.9275 17.0555 21.9193 17.0677 21.9214 17.0779C21.9254 17.1002 21.9346 17.1216 21.9408 17.144C21.9459 17.3169 21.953 17.4889 21.9581 17.6618Z" fill="white"/>
<path d="M18.8096 29.9954C18.829 29.791 18.8515 29.5997 19.1121 29.5386C19.3175 29.4898 19.4697 29.3413 19.5689 29.1581C19.7937 28.7431 19.9817 28.8478 20.1749 29.1836C20.2699 29.3484 20.4068 29.4878 20.5938 29.5346C20.8728 29.6048 20.9086 29.8011 20.8994 30.0331C20.882 30.8409 20.5867 31.5408 20.088 32.1716C19.9112 32.3954 19.8131 32.3853 19.6312 32.1696C19.1918 31.6477 18.9312 31.0576 18.8372 30.3892V30.4004C18.828 30.2661 18.8188 30.1308 18.8096 29.9965V29.9954Z" fill="white"/>
<path d="M21.9417 17.1451C21.9345 17.1227 21.9263 17.1013 21.9222 17.0789C21.9202 17.0688 21.9273 17.0566 21.9314 17.0464C21.9417 17.0718 21.9529 17.0942 21.96 17.1186C21.9621 17.1247 21.9488 17.1359 21.9427 17.1441L21.9417 17.1451Z" fill="white"/>
<path d="M18.8343 30.3985L18.8333 30.3872L18.8013 30.3957L18.8343 30.3985Z" fill="white"/>
</g>
<path d="M91.2656 3.46875H91.623L95.1328 11.5371L98.6543 3.46875H99.0059L95.2617 12H95.0098L91.2656 3.46875ZM91.1719 3.46875H91.4883V7.88086V12H91.1719V3.46875ZM98.8008 3.46875H99.1172V12H98.8008V7.88086V3.46875ZM101.689 5.66016V12H101.373V5.66016H101.689ZM101.209 3.67969C101.209 3.58984 101.24 3.51367 101.303 3.45117C101.365 3.38477 101.441 3.35156 101.531 3.35156C101.621 3.35156 101.697 3.38477 101.76 3.45117C101.826 3.51367 101.859 3.58984 101.859 3.67969C101.859 3.76953 101.826 3.8457 101.76 3.9082C101.697 3.9707 101.621 4.00195 101.531 4.00195C101.441 4.00195 101.365 3.9707 101.303 3.9082C101.24 3.8457 101.209 3.76953 101.209 3.67969ZM106.049 12.1172C105.662 12.1172 105.301 12.041 104.965 11.8887C104.629 11.7324 104.334 11.5137 104.08 11.2324C103.826 10.9512 103.627 10.6191 103.482 10.2363C103.342 9.84961 103.271 9.42578 103.271 8.96484V8.70703C103.271 8.24219 103.34 7.81836 103.477 7.43555C103.617 7.04883 103.809 6.71484 104.051 6.43359C104.297 6.14844 104.58 5.92969 104.9 5.77734C105.221 5.62109 105.564 5.54297 105.932 5.54297C106.283 5.54297 106.605 5.60938 106.898 5.74219C107.191 5.87109 107.445 6.05469 107.66 6.29297C107.879 6.53125 108.047 6.81641 108.164 7.14844C108.281 7.48047 108.34 7.84766 108.34 8.25V8.61914H103.477V8.30273H108.023V8.22656C108.023 7.80078 107.938 7.41016 107.766 7.05469C107.594 6.69531 107.352 6.40625 107.039 6.1875C106.727 5.96875 106.357 5.85938 105.932 5.85938C105.58 5.85938 105.26 5.93359 104.971 6.08203C104.686 6.23047 104.439 6.43555 104.232 6.69727C104.025 6.95508 103.865 7.25586 103.752 7.59961C103.643 7.94336 103.588 8.3125 103.588 8.70703V8.96484C103.588 9.35938 103.65 9.72852 103.775 10.0723C103.9 10.416 104.074 10.7188 104.297 10.9805C104.52 11.2383 104.779 11.4414 105.076 11.5898C105.377 11.7344 105.701 11.8066 106.049 11.8066C106.412 11.8066 106.75 11.7461 107.062 11.625C107.379 11.5039 107.668 11.2734 107.93 10.9336L108.152 11.0918C108.012 11.291 107.842 11.4688 107.643 11.625C107.447 11.7773 107.217 11.8984 106.951 11.9883C106.689 12.0742 106.389 12.1172 106.049 12.1172ZM109.898 5.66016H110.215V12.7559C110.215 13.1426 110.148 13.4707 110.016 13.7402C109.883 14.0098 109.691 14.2129 109.441 14.3496C109.195 14.4902 108.896 14.5605 108.545 14.5605C108.447 14.5605 108.352 14.5508 108.258 14.5312C108.16 14.5117 108.064 14.4824 107.971 14.4434L107.988 14.1387C108.051 14.1621 108.133 14.1855 108.234 14.209C108.332 14.2324 108.436 14.2441 108.545 14.2441C108.834 14.2441 109.078 14.1855 109.277 14.0684C109.48 13.9512 109.635 13.7812 109.74 13.5586C109.846 13.3359 109.898 13.0684 109.898 12.7559V5.66016ZM109.764 3.67969C109.764 3.58984 109.795 3.51367 109.857 3.45117C109.92 3.38477 109.996 3.35156 110.086 3.35156C110.176 3.35156 110.252 3.38477 110.314 3.45117C110.381 3.51367 110.414 3.58984 110.414 3.67969C110.414 3.76953 110.381 3.8457 110.314 3.9082C110.252 3.9707 110.176 4.00195 110.086 4.00195C109.996 4.00195 109.92 3.9707 109.857 3.9082C109.795 3.8457 109.764 3.76953 109.764 3.67969ZM116.338 10.4473C116.338 10.2559 116.285 10.0625 116.18 9.86719C116.074 9.66797 115.883 9.48242 115.605 9.31055C115.328 9.13867 114.928 8.99609 114.404 8.88281C114.049 8.80469 113.736 8.71875 113.467 8.625C113.201 8.53125 112.979 8.41992 112.799 8.29102C112.619 8.1582 112.484 7.99805 112.395 7.81055C112.305 7.62305 112.26 7.40039 112.26 7.14258C112.26 6.91992 112.307 6.71289 112.4 6.52148C112.498 6.32617 112.639 6.15625 112.822 6.01172C113.006 5.86328 113.229 5.74805 113.49 5.66602C113.752 5.58398 114.049 5.54297 114.381 5.54297C114.854 5.54297 115.258 5.61914 115.594 5.77148C115.934 5.92383 116.193 6.13672 116.373 6.41016C116.557 6.67969 116.648 6.99414 116.648 7.35352H116.326C116.326 7.0918 116.25 6.84766 116.098 6.62109C115.949 6.39453 115.73 6.21094 115.441 6.07031C115.152 5.92969 114.799 5.85938 114.381 5.85938C113.955 5.85938 113.609 5.92383 113.344 6.05273C113.078 6.18164 112.883 6.34375 112.758 6.53906C112.637 6.73438 112.576 6.93164 112.576 7.13086C112.576 7.29492 112.6 7.44727 112.646 7.58789C112.693 7.72461 112.783 7.85352 112.916 7.97461C113.053 8.0918 113.248 8.20312 113.502 8.30859C113.756 8.41406 114.088 8.51367 114.498 8.60742C115.002 8.7207 115.412 8.85742 115.729 9.01758C116.045 9.17773 116.277 9.375 116.426 9.60938C116.578 9.83984 116.654 10.1211 116.654 10.4531C116.654 10.6992 116.602 10.9238 116.496 11.127C116.395 11.3301 116.246 11.5059 116.051 11.6543C115.859 11.8027 115.625 11.918 115.348 12C115.074 12.0781 114.768 12.1172 114.428 12.1172C113.916 12.1172 113.482 12.0391 113.127 11.8828C112.775 11.7227 112.508 11.5117 112.324 11.25C112.145 10.9844 112.055 10.6973 112.055 10.3887H112.371C112.398 10.752 112.518 11.0371 112.729 11.2441C112.943 11.4473 113.203 11.5918 113.508 11.6777C113.816 11.7598 114.123 11.8008 114.428 11.8008C114.846 11.8008 115.195 11.7344 115.477 11.6016C115.762 11.4688 115.977 11.2988 116.121 11.0918C116.266 10.8809 116.338 10.666 116.338 10.4473ZM118.723 3V12H118.406V3H118.723ZM122.801 5.66016L119.643 8.58398L118.664 9.42188L118.547 9.19336L119.467 8.32617L122.35 5.66016H122.801ZM122.572 12L119.543 8.4375L119.748 8.19141L122.982 12H122.572ZM123.609 8.95312V8.70703C123.609 8.24219 123.676 7.81641 123.809 7.42969C123.945 7.04297 124.135 6.70898 124.377 6.42773C124.623 6.14648 124.916 5.92969 125.256 5.77734C125.596 5.62109 125.971 5.54297 126.381 5.54297C126.795 5.54297 127.172 5.62109 127.512 5.77734C127.852 5.92969 128.145 6.14648 128.391 6.42773C128.637 6.70898 128.826 7.04297 128.959 7.42969C129.092 7.81641 129.158 8.24219 129.158 8.70703V8.95312C129.158 9.41797 129.092 9.84375 128.959 10.2305C128.826 10.6172 128.637 10.9512 128.391 11.2324C128.148 11.5137 127.857 11.7324 127.518 11.8887C127.178 12.041 126.803 12.1172 126.393 12.1172C125.979 12.1172 125.602 12.041 125.262 11.8887C124.922 11.7324 124.629 11.5137 124.383 11.2324C124.137 10.9512 123.945 10.6172 123.809 10.2305C123.676 9.84375 123.609 9.41797 123.609 8.95312ZM123.926 8.70703V8.95312C123.926 9.33203 123.98 9.69336 124.09 10.0371C124.203 10.377 124.365 10.6797 124.576 10.9453C124.787 11.2109 125.045 11.4199 125.35 11.5723C125.654 11.7246 126.002 11.8008 126.393 11.8008C126.779 11.8008 127.123 11.7246 127.424 11.5723C127.729 11.4199 127.986 11.2109 128.197 10.9453C128.408 10.6797 128.568 10.377 128.678 10.0371C128.787 9.69336 128.842 9.33203 128.842 8.95312V8.70703C128.842 8.33594 128.787 7.98047 128.678 7.64062C128.568 7.30078 128.406 6.99805 128.191 6.73242C127.98 6.46289 127.723 6.25 127.418 6.09375C127.113 5.9375 126.768 5.85938 126.381 5.85938C125.994 5.85938 125.648 5.9375 125.344 6.09375C125.043 6.25 124.785 6.46289 124.57 6.73242C124.359 6.99805 124.199 7.30078 124.09 7.64062C123.98 7.98047 123.926 8.33594 123.926 8.70703ZM132.803 7.93945V8.25586H130.049V7.93945H132.803ZM140.438 8.13281V11.0859C140.348 11.2148 140.178 11.3594 139.928 11.5195C139.682 11.6797 139.357 11.8203 138.955 11.9414C138.557 12.0586 138.08 12.1172 137.525 12.1172C137.041 12.1172 136.598 12.0273 136.195 11.8477C135.793 11.668 135.445 11.4121 135.152 11.0801C134.859 10.7441 134.633 10.3477 134.473 9.89062C134.316 9.42969 134.238 8.92188 134.238 8.36719V6.97266C134.238 6.43359 134.314 5.94336 134.467 5.50195C134.623 5.06055 134.842 4.67969 135.123 4.35938C135.408 4.03516 135.746 3.78711 136.137 3.61523C136.527 3.43945 136.957 3.35156 137.426 3.35156C138.043 3.35156 138.564 3.45898 138.99 3.67383C139.416 3.88867 139.748 4.17969 139.986 4.54688C140.229 4.91016 140.375 5.32031 140.426 5.77734H140.109C140.051 5.40625 139.924 5.06055 139.729 4.74023C139.533 4.41992 139.248 4.16211 138.873 3.9668C138.502 3.76758 138.02 3.66797 137.426 3.66797C136.992 3.66797 136.598 3.75 136.242 3.91406C135.891 4.07422 135.588 4.30078 135.334 4.59375C135.084 4.88672 134.891 5.23438 134.754 5.63672C134.621 6.03906 134.555 6.48047 134.555 6.96094V8.36719C134.555 8.87109 134.623 9.33203 134.76 9.75C134.9 10.168 135.102 10.5312 135.363 10.8398C135.625 11.1445 135.938 11.3809 136.301 11.5488C136.668 11.7168 137.076 11.8008 137.525 11.8008C137.99 11.8008 138.4 11.7539 138.756 11.6602C139.115 11.5625 139.41 11.4473 139.641 11.3145C139.875 11.1777 140.035 11.0527 140.121 10.9395V8.45508H137.514V8.13281H140.438ZM142.758 7.01953V12H142.436V5.66016H142.758V7.01953ZM142.717 8.28516L142.547 7.95117C142.586 7.63867 142.67 7.33984 142.799 7.05469C142.932 6.76562 143.104 6.50781 143.314 6.28125C143.529 6.05469 143.777 5.875 144.059 5.74219C144.344 5.60938 144.658 5.54297 145.002 5.54297C145.322 5.54297 145.607 5.58594 145.857 5.67188C146.111 5.75391 146.324 5.88477 146.496 6.06445C146.672 6.24023 146.805 6.4707 146.895 6.75586C146.988 7.04102 147.035 7.38281 147.035 7.78125V12H146.719V7.78125C146.719 7.27344 146.645 6.88086 146.496 6.60352C146.348 6.32617 146.143 6.13281 145.881 6.02344C145.619 5.91016 145.32 5.85352 144.984 5.85352C144.586 5.85352 144.246 5.94336 143.965 6.12305C143.684 6.29883 143.453 6.51953 143.273 6.78516C143.094 7.05078 142.959 7.32031 142.869 7.59375C142.779 7.86719 142.729 8.09766 142.717 8.28516ZM147.035 7.78125L146.818 7.58789C146.857 7.31836 146.943 7.0625 147.076 6.82031C147.213 6.57422 147.389 6.35547 147.604 6.16406C147.818 5.97266 148.068 5.82227 148.354 5.71289C148.643 5.59961 148.959 5.54297 149.303 5.54297C149.623 5.54297 149.908 5.58789 150.158 5.67773C150.412 5.76367 150.625 5.90234 150.797 6.09375C150.973 6.28125 151.105 6.52344 151.195 6.82031C151.289 7.11719 151.336 7.47656 151.336 7.89844V12H151.02V7.89844C151.02 7.35938 150.945 6.94141 150.797 6.64453C150.648 6.34766 150.443 6.14062 150.182 6.02344C149.92 5.90625 149.621 5.84961 149.285 5.85352C148.91 5.85742 148.584 5.92773 148.307 6.06445C148.033 6.19727 147.805 6.36523 147.621 6.56836C147.438 6.77148 147.297 6.98242 147.199 7.20117C147.105 7.41602 147.051 7.60938 147.035 7.78125ZM153.65 5.66016V12H153.334V5.66016H153.65ZM153.17 3.67969C153.17 3.58984 153.201 3.51367 153.264 3.45117C153.326 3.38477 153.402 3.35156 153.492 3.35156C153.582 3.35156 153.658 3.38477 153.721 3.45117C153.787 3.51367 153.82 3.58984 153.82 3.67969C153.82 3.76953 153.787 3.8457 153.721 3.9082C153.658 3.9707 153.582 4.00195 153.492 4.00195C153.402 4.00195 153.326 3.9707 153.264 3.9082C153.201 3.8457 153.17 3.76953 153.17 3.67969ZM156.047 7.01367V12H155.73V5.66016H156.047V7.01367ZM155.994 8.28516L155.824 7.95117C155.863 7.63867 155.949 7.33984 156.082 7.05469C156.215 6.76562 156.389 6.50781 156.604 6.28125C156.818 6.05469 157.068 5.875 157.354 5.74219C157.639 5.60938 157.953 5.54297 158.297 5.54297C158.617 5.54297 158.902 5.58789 159.152 5.67773C159.402 5.76367 159.613 5.90234 159.785 6.09375C159.957 6.28125 160.088 6.52344 160.178 6.82031C160.268 7.11719 160.312 7.47656 160.312 7.89844V12H159.996V7.89844C159.996 7.35938 159.922 6.94336 159.773 6.65039C159.629 6.35352 159.428 6.14648 159.17 6.0293C158.912 5.91211 158.615 5.85352 158.279 5.85352C157.881 5.85352 157.539 5.94336 157.254 6.12305C156.973 6.29883 156.74 6.51953 156.557 6.78516C156.377 7.05078 156.24 7.32031 156.146 7.59375C156.057 7.86719 156.006 8.09766 155.994 8.28516ZM162.621 7.01367V12H162.305V5.66016H162.621V7.01367ZM162.568 8.28516L162.398 7.95117C162.438 7.63867 162.523 7.33984 162.656 7.05469C162.789 6.76562 162.963 6.50781 163.178 6.28125C163.393 6.05469 163.643 5.875 163.928 5.74219C164.213 5.60938 164.527 5.54297 164.871 5.54297C165.191 5.54297 165.477 5.58789 165.727 5.67773C165.977 5.76367 166.188 5.90234 166.359 6.09375C166.531 6.28125 166.662 6.52344 166.752 6.82031C166.842 7.11719 166.887 7.47656 166.887 7.89844V12H166.57V7.89844C166.57 7.35938 166.496 6.94336 166.348 6.65039C166.203 6.35352 166.002 6.14648 165.744 6.0293C165.486 5.91211 165.189 5.85352 164.854 5.85352C164.455 5.85352 164.113 5.94336 163.828 6.12305C163.547 6.29883 163.314 6.51953 163.131 6.78516C162.951 7.05078 162.814 7.32031 162.721 7.59375C162.631 7.86719 162.58 8.09766 162.568 8.28516ZM170.859 11.3906L173.051 5.66016H173.402L170.584 13.0547C170.533 13.1875 170.471 13.3398 170.396 13.5117C170.326 13.6836 170.23 13.8496 170.109 14.0098C169.988 14.1699 169.83 14.3008 169.635 14.4023C169.443 14.5078 169.203 14.5605 168.914 14.5605C168.852 14.5605 168.77 14.5547 168.668 14.543C168.566 14.5312 168.492 14.5156 168.445 14.4961L168.439 14.1973C168.498 14.2129 168.574 14.2246 168.668 14.2324C168.762 14.2441 168.828 14.25 168.867 14.25C169.129 14.25 169.346 14.1953 169.518 14.0859C169.693 13.9805 169.84 13.832 169.957 13.6406C170.074 13.4531 170.178 13.2383 170.268 12.9961L170.859 11.3906ZM168.469 5.66016L170.865 11.625L170.965 11.9414L170.713 12.123L168.123 5.66016H168.469ZM97.3828 20.2773V21.1914C97.3828 21.7891 97.3047 22.3301 97.1484 22.8145C96.9961 23.2949 96.7734 23.707 96.4805 24.0508C96.1914 24.3945 95.8438 24.6582 95.4375 24.8418C95.0312 25.0254 94.5742 25.1172 94.0664 25.1172C93.5703 25.1172 93.1172 25.0254 92.707 24.8418C92.3008 24.6582 91.9512 24.3945 91.6582 24.0508C91.3652 23.707 91.1387 23.2949 90.9785 22.8145C90.8184 22.3301 90.7383 21.7891 90.7383 21.1914V20.2773C90.7383 19.6797 90.8164 19.1406 90.9727 18.6602C91.1328 18.1758 91.3594 17.7617 91.6523 17.418C91.9453 17.0742 92.2949 16.8105 92.7012 16.627C93.1074 16.4434 93.5586 16.3516 94.0547 16.3516C94.5625 16.3516 95.0195 16.4434 95.4258 16.627C95.832 16.8105 96.1816 17.0742 96.4746 17.418C96.7676 17.7617 96.9922 18.1758 97.1484 18.6602C97.3047 19.1406 97.3828 19.6797 97.3828 20.2773ZM96.668 21.1914V20.2656C96.668 19.7617 96.6094 19.3086 96.4922 18.9062C96.3789 18.5039 96.209 18.1602 95.9824 17.875C95.7598 17.5898 95.4863 17.3711 95.1621 17.2188C94.8379 17.0664 94.4688 16.9902 94.0547 16.9902C93.6523 16.9902 93.291 17.0664 92.9707 17.2188C92.6504 17.3711 92.377 17.5898 92.1504 17.875C91.9277 18.1602 91.7559 18.5039 91.6348 18.9062C91.5176 19.3086 91.459 19.7617 91.459 20.2656V21.1914C91.459 21.6992 91.5176 22.1562 91.6348 22.5625C91.7559 22.9648 91.9297 23.3105 92.1562 23.5996C92.3828 23.8848 92.6562 24.1035 92.9766 24.2559C93.3008 24.4082 93.6641 24.4844 94.0664 24.4844C94.4844 24.4844 94.8535 24.4082 95.1738 24.2559C95.4941 24.1035 95.7656 23.8848 95.9883 23.5996C96.2109 23.3105 96.3789 22.9648 96.4922 22.5625C96.6094 22.1562 96.668 21.6992 96.668 21.1914ZM102.838 23.3828C102.838 23.2109 102.795 23.041 102.709 22.873C102.623 22.7051 102.457 22.5508 102.211 22.4102C101.969 22.2695 101.611 22.1504 101.139 22.0527C100.787 21.9746 100.473 21.8867 100.195 21.7891C99.9219 21.6914 99.6914 21.5742 99.5039 21.4375C99.3164 21.3008 99.1738 21.1367 99.0762 20.9453C98.9785 20.7539 98.9297 20.5273 98.9297 20.2656C98.9297 20.0312 98.9805 19.8105 99.082 19.6035C99.1875 19.3926 99.3359 19.209 99.5273 19.0527C99.7227 18.8926 99.957 18.7676 100.23 18.6777C100.508 18.5879 100.818 18.543 101.162 18.543C101.65 18.543 102.068 18.627 102.416 18.7949C102.768 18.959 103.035 19.1836 103.219 19.4688C103.406 19.7539 103.5 20.0762 103.5 20.4355H102.803C102.803 20.2168 102.738 20.0098 102.609 19.8145C102.484 19.6191 102.299 19.459 102.053 19.334C101.811 19.209 101.514 19.1465 101.162 19.1465C100.799 19.1465 100.504 19.2012 100.277 19.3105C100.051 19.4199 99.8848 19.5586 99.7793 19.7266C99.6777 19.8945 99.627 20.0684 99.627 20.248C99.627 20.3887 99.6484 20.5176 99.6914 20.6348C99.7383 20.748 99.8203 20.8535 99.9375 20.9512C100.059 21.0488 100.23 21.1406 100.453 21.2266C100.676 21.3125 100.965 21.3965 101.32 21.4785C101.832 21.5918 102.25 21.7305 102.574 21.8945C102.902 22.0547 103.145 22.2539 103.301 22.4922C103.457 22.7266 103.535 23.0117 103.535 23.3477C103.535 23.6094 103.48 23.8496 103.371 24.0684C103.262 24.2832 103.104 24.4688 102.896 24.625C102.693 24.7812 102.447 24.9023 102.158 24.9883C101.873 25.0742 101.553 25.1172 101.197 25.1172C100.662 25.1172 100.209 25.0293 99.8379 24.8535C99.4707 24.6738 99.1914 24.4395 99 24.1504C98.8125 23.8574 98.7188 23.5469 98.7188 23.2188H99.416C99.4395 23.5469 99.543 23.8066 99.7266 23.998C99.9102 24.1855 100.135 24.3184 100.4 24.3965C100.67 24.4746 100.936 24.5137 101.197 24.5137C101.557 24.5137 101.857 24.4609 102.1 24.3555C102.342 24.25 102.525 24.1113 102.65 23.9395C102.775 23.7676 102.838 23.582 102.838 23.3828ZM100.857 17.6523L101.977 16.0117H102.82L101.467 17.6523H100.857ZM105.82 19.709V25H105.123V18.6602H105.803L105.82 19.709ZM108.064 18.6133L108.047 19.2578C107.969 19.2461 107.893 19.2363 107.818 19.2285C107.744 19.2207 107.664 19.2168 107.578 19.2168C107.273 19.2168 107.006 19.2734 106.775 19.3867C106.549 19.4961 106.357 19.6504 106.201 19.8496C106.045 20.0449 105.926 20.2754 105.844 20.541C105.762 20.8027 105.715 21.084 105.703 21.3848L105.445 21.4844C105.445 21.0703 105.488 20.6855 105.574 20.3301C105.66 19.9746 105.791 19.6641 105.967 19.3984C106.146 19.1289 106.371 18.9199 106.641 18.7715C106.914 18.6191 107.234 18.543 107.602 18.543C107.691 18.543 107.779 18.5508 107.865 18.5664C107.955 18.5781 108.021 18.5938 108.064 18.6133ZM108.662 21.9297V21.7363C108.662 21.2754 108.729 20.8496 108.861 20.459C108.994 20.0684 109.184 19.7305 109.43 19.4453C109.68 19.1602 109.979 18.9395 110.326 18.7832C110.674 18.623 111.061 18.543 111.486 18.543C111.916 18.543 112.305 18.623 112.652 18.7832C113 18.9395 113.299 19.1602 113.549 19.4453C113.799 19.7305 113.99 20.0684 114.123 20.459C114.256 20.8496 114.322 21.2754 114.322 21.7363V21.9297C114.322 22.3906 114.256 22.8164 114.123 23.207C113.99 23.5938 113.799 23.9297 113.549 24.2148C113.303 24.5 113.006 24.7227 112.658 24.8828C112.311 25.0391 111.924 25.1172 111.498 25.1172C111.068 25.1172 110.68 25.0391 110.332 24.8828C109.984 24.7227 109.686 24.5 109.436 24.2148C109.186 23.9297 108.994 23.5938 108.861 23.207C108.729 22.8164 108.662 22.3906 108.662 21.9297ZM109.359 21.7363V21.9297C109.359 22.2773 109.406 22.6074 109.5 22.9199C109.594 23.2285 109.73 23.5039 109.91 23.7461C110.09 23.9844 110.312 24.1719 110.578 24.3086C110.844 24.4453 111.15 24.5137 111.498 24.5137C111.842 24.5137 112.145 24.4453 112.406 24.3086C112.672 24.1719 112.895 23.9844 113.074 23.7461C113.254 23.5039 113.389 23.2285 113.479 22.9199C113.572 22.6074 113.619 22.2773 113.619 21.9297V21.7363C113.619 21.3926 113.572 21.0664 113.479 20.7578C113.389 20.4492 113.252 20.1738 113.068 19.9316C112.889 19.6895 112.666 19.498 112.4 19.3574C112.135 19.2168 111.83 19.1465 111.486 19.1465C111.143 19.1465 110.838 19.2168 110.572 19.3574C110.311 19.498 110.088 19.6895 109.904 19.9316C109.725 20.1738 109.588 20.4492 109.494 20.7578C109.404 21.0664 109.359 21.3926 109.359 21.7363ZM119.895 23.7695V16H120.598V25H119.941L119.895 23.7695ZM115.494 21.8945V21.7715C115.494 21.2793 115.551 20.8359 115.664 20.4414C115.777 20.043 115.939 19.7031 116.15 19.4219C116.365 19.1367 116.623 18.9199 116.924 18.7715C117.225 18.6191 117.564 18.543 117.943 18.543C118.314 18.543 118.643 18.6035 118.928 18.7246C119.213 18.8457 119.457 19.0195 119.66 19.2461C119.867 19.4727 120.033 19.7422 120.158 20.0547C120.287 20.3672 120.381 20.7148 120.439 21.0977V22.6621C120.393 23.0215 120.307 23.3516 120.182 23.6523C120.057 23.9492 119.891 24.209 119.684 24.4316C119.477 24.6504 119.227 24.8203 118.934 24.9414C118.645 25.0586 118.311 25.1172 117.932 25.1172C117.557 25.1172 117.219 25.0391 116.918 24.8828C116.617 24.7266 116.361 24.5059 116.15 24.2207C115.939 23.9316 115.777 23.5898 115.664 23.1953C115.551 22.8008 115.494 22.3672 115.494 21.8945ZM116.197 21.7715V21.8945C116.197 22.2656 116.234 22.6094 116.309 22.9258C116.383 23.2422 116.496 23.5176 116.648 23.752C116.801 23.9863 116.994 24.1699 117.229 24.3027C117.463 24.4355 117.74 24.502 118.061 24.502C118.463 24.502 118.801 24.4258 119.074 24.2734C119.348 24.1172 119.566 23.9121 119.73 23.6582C119.895 23.4004 120.014 23.1191 120.088 22.8145V20.9922C120.041 20.7852 119.973 20.5742 119.883 20.3594C119.793 20.1445 119.67 19.9473 119.514 19.7676C119.361 19.584 119.166 19.4375 118.928 19.3281C118.693 19.2148 118.408 19.1582 118.072 19.1582C117.748 19.1582 117.469 19.2246 117.234 19.3574C117 19.4902 116.805 19.6758 116.648 19.9141C116.496 20.1484 116.383 20.4238 116.309 20.7402C116.234 21.0566 116.197 21.4004 116.197 21.7715ZM124.893 25.1172C124.479 25.1172 124.098 25.041 123.75 24.8887C123.406 24.7363 123.105 24.5215 122.848 24.2441C122.594 23.9668 122.396 23.6387 122.256 23.2598C122.119 22.877 122.051 22.459 122.051 22.0059V21.7539C122.051 21.2656 122.123 20.8242 122.268 20.4297C122.412 20.0352 122.611 19.6973 122.865 19.416C123.119 19.1348 123.408 18.9199 123.732 18.7715C124.061 18.6191 124.404 18.543 124.764 18.543C125.166 18.543 125.523 18.6152 125.836 18.7598C126.148 18.9004 126.41 19.1016 126.621 19.3633C126.836 19.6211 126.998 19.9277 127.107 20.2832C127.217 20.6348 127.271 21.0234 127.271 21.4492V21.877H122.473V21.2793H126.574V21.1973C126.566 20.8418 126.494 20.5098 126.357 20.2012C126.225 19.8887 126.025 19.6348 125.76 19.4395C125.494 19.2441 125.162 19.1465 124.764 19.1465C124.467 19.1465 124.193 19.209 123.943 19.334C123.697 19.459 123.484 19.6387 123.305 19.873C123.129 20.1035 122.992 20.3789 122.895 20.6992C122.801 21.0156 122.754 21.3672 122.754 21.7539V22.0059C122.754 22.3574 122.805 22.6855 122.906 22.9902C123.012 23.291 123.16 23.5566 123.352 23.7871C123.547 24.0176 123.777 24.1973 124.043 24.3262C124.309 24.4551 124.602 24.5195 124.922 24.5195C125.297 24.5195 125.629 24.4512 125.918 24.3145C126.207 24.1738 126.467 23.9531 126.697 23.6523L127.137 23.9922C127 24.1953 126.828 24.3828 126.621 24.5547C126.418 24.7266 126.174 24.8633 125.889 24.9648C125.604 25.0664 125.271 25.1172 124.893 25.1172ZM129.352 16V25H128.654V16H129.352ZM133.33 18.6602L130.365 21.6016L129.105 22.8203L129 22.1348L130.014 21.0391L132.445 18.6602H133.33ZM132.721 25L130.072 21.707L130.459 21.1035L133.564 25H132.721ZM138.352 16.4688V25H137.631V16.4688H138.352ZM143.625 16.4688L139.945 20.377L138.094 22.1992L138.023 21.3965L139.512 19.8496L142.723 16.4688H143.625ZM143.027 25L139.436 20.6172L139.869 20.0371L143.9 25H143.027ZM148.969 23.5352V18.6602H149.672V25H148.998L148.969 23.5352ZM149.098 22.3633L149.461 22.3516C149.461 22.75 149.414 23.1172 149.32 23.4531C149.227 23.7891 149.08 24.082 148.881 24.332C148.682 24.582 148.424 24.7754 148.107 24.9121C147.791 25.0488 147.41 25.1172 146.965 25.1172C146.656 25.1172 146.373 25.0742 146.115 24.9883C145.861 24.8984 145.643 24.7578 145.459 24.5664C145.275 24.375 145.133 24.127 145.031 23.8223C144.934 23.5176 144.885 23.1484 144.885 22.7148V18.6602H145.582V22.7266C145.582 23.0664 145.619 23.3496 145.693 23.5762C145.771 23.8027 145.877 23.9844 146.01 24.1211C146.146 24.2578 146.303 24.3555 146.479 24.4141C146.654 24.4727 146.844 24.502 147.047 24.502C147.562 24.502 147.969 24.4023 148.266 24.2031C148.566 24.0039 148.779 23.7422 148.904 23.418C149.033 23.0898 149.098 22.7383 149.098 22.3633ZM152.285 16V25H151.588V16H152.285ZM156.598 18.6602V19.2344H153.422V18.6602H156.598ZM154.588 17.0312H155.285V23.459C155.285 23.752 155.324 23.9727 155.402 24.1211C155.48 24.2695 155.582 24.3691 155.707 24.4199C155.832 24.4707 155.967 24.4961 156.111 24.4961C156.217 24.4961 156.318 24.4902 156.416 24.4785C156.514 24.4629 156.602 24.4473 156.68 24.4316L156.709 25.0234C156.623 25.0508 156.512 25.0723 156.375 25.0879C156.238 25.1074 156.102 25.1172 155.965 25.1172C155.695 25.1172 155.457 25.0684 155.25 24.9707C155.043 24.8691 154.881 24.6973 154.764 24.4551C154.646 24.209 154.588 23.875 154.588 23.4531V17.0312ZM162.129 23.5352V18.6602H162.832V25H162.158L162.129 23.5352ZM162.258 22.3633L162.621 22.3516C162.621 22.75 162.574 23.1172 162.48 23.4531C162.387 23.7891 162.24 24.082 162.041 24.332C161.842 24.582 161.584 24.7754 161.268 24.9121C160.951 25.0488 160.57 25.1172 160.125 25.1172C159.816 25.1172 159.533 25.0742 159.275 24.9883C159.021 24.8984 158.803 24.7578 158.619 24.5664C158.436 24.375 158.293 24.127 158.191 23.8223C158.094 23.5176 158.045 23.1484 158.045 22.7148V18.6602H158.742V22.7266C158.742 23.0664 158.779 23.3496 158.854 23.5762C158.932 23.8027 159.037 23.9844 159.17 24.1211C159.307 24.2578 159.463 24.3555 159.639 24.4141C159.814 24.4727 160.004 24.502 160.207 24.502C160.723 24.502 161.129 24.4023 161.426 24.2031C161.727 24.0039 161.939 23.7422 162.064 23.418C162.193 23.0898 162.258 22.7383 162.258 22.3633ZM165.363 19.709V25H164.666V18.6602H165.346L165.363 19.709ZM167.607 18.6133L167.59 19.2578C167.512 19.2461 167.436 19.2363 167.361 19.2285C167.287 19.2207 167.207 19.2168 167.121 19.2168C166.816 19.2168 166.549 19.2734 166.318 19.3867C166.092 19.4961 165.9 19.6504 165.744 19.8496C165.588 20.0449 165.469 20.2754 165.387 20.541C165.305 20.8027 165.258 21.084 165.246 21.3848L164.988 21.4844C164.988 21.0703 165.031 20.6855 165.117 20.3301C165.203 19.9746 165.334 19.6641 165.51 19.3984C165.689 19.1289 165.914 18.9199 166.184 18.7715C166.457 18.6191 166.777 18.543 167.145 18.543C167.234 18.543 167.322 18.5508 167.408 18.5664C167.498 18.5781 167.564 18.5938 167.607 18.6133ZM170.695 24.3672L172.67 18.6602H173.426L170.742 26.0195C170.688 26.1641 170.617 26.3242 170.531 26.5C170.449 26.6758 170.34 26.8438 170.203 27.0039C170.07 27.168 169.902 27.3008 169.699 27.4023C169.5 27.5078 169.256 27.5605 168.967 27.5605C168.893 27.5605 168.797 27.5508 168.68 27.5312C168.566 27.5156 168.484 27.5 168.434 27.4844L168.428 26.8926C168.471 26.9043 168.533 26.9141 168.615 26.9219C168.697 26.9297 168.754 26.9336 168.785 26.9336C169.039 26.9336 169.252 26.8906 169.424 26.8047C169.6 26.7188 169.746 26.5898 169.863 26.418C169.98 26.25 170.084 26.0391 170.174 25.7852L170.695 24.3672ZM168.85 18.6602L170.871 24.1035L171.059 24.8359L170.549 25.123L168.088 18.6602H168.85ZM91.4883 29.4688V38H91.1719V29.4688H91.4883ZM96.8906 29.4688L93.0762 33.3066L91.3594 34.8887L91.4062 34.4785L92.8828 33.0371L96.4336 29.4688H96.8906ZM96.7734 38L92.7539 33.4004L92.9473 33.125L97.1836 38H96.7734ZM102.604 36.8105V33.5352C102.604 33.1836 102.527 32.8828 102.375 32.6328C102.227 32.3828 102.008 32.1914 101.719 32.0586C101.434 31.9258 101.084 31.8594 100.67 31.8594C100.287 31.8594 99.9414 31.9277 99.6328 32.0645C99.3281 32.1973 99.0859 32.3809 98.9062 32.6152C98.7305 32.8496 98.6426 33.1133 98.6426 33.4062L98.3262 33.3945C98.3262 33.1484 98.3828 32.9141 98.4961 32.6914C98.6133 32.4688 98.7754 32.2715 98.9824 32.0996C99.1934 31.9277 99.4414 31.793 99.7266 31.6953C100.016 31.5938 100.33 31.543 100.67 31.543C101.111 31.543 101.5 31.6172 101.836 31.7656C102.176 31.9141 102.441 32.1367 102.633 32.4336C102.824 32.7305 102.92 33.1016 102.92 33.5469V36.7227C102.92 36.9492 102.934 37.1777 102.961 37.4082C102.992 37.6387 103.033 37.8184 103.084 37.9473V38H102.721C102.682 37.8477 102.652 37.6641 102.633 37.4492C102.613 37.2305 102.604 37.0176 102.604 36.8105ZM102.744 34.4609L102.756 34.7832H101.104C100.693 34.7832 100.326 34.8242 100.002 34.9062C99.6777 34.9844 99.4023 35.0957 99.1758 35.2402C98.9492 35.3848 98.7754 35.5566 98.6543 35.7559C98.5332 35.9551 98.4727 36.1758 98.4727 36.418C98.4727 36.6719 98.541 36.9043 98.6777 37.1152C98.8184 37.3262 99.0117 37.4941 99.2578 37.6191C99.5039 37.7441 99.7871 37.8066 100.107 37.8066C100.553 37.8066 100.947 37.7344 101.291 37.5898C101.635 37.4414 101.926 37.2344 102.164 36.9688C102.402 36.7031 102.584 36.3887 102.709 36.0254L102.85 36.3184C102.775 36.5371 102.664 36.7539 102.516 36.9688C102.371 37.1797 102.186 37.373 101.959 37.5488C101.732 37.7207 101.465 37.8594 101.156 37.9648C100.852 38.0664 100.502 38.1172 100.107 38.1172C99.7129 38.1172 99.3691 38.0449 99.0762 37.9004C98.7832 37.752 98.5566 37.5488 98.3965 37.291C98.2363 37.0293 98.1562 36.7305 98.1562 36.3945C98.1562 36.1133 98.2227 35.8555 98.3555 35.6211C98.4883 35.3828 98.6797 35.1777 98.9297 35.0059C99.1836 34.8301 99.4922 34.6953 99.8555 34.6016C100.219 34.5078 100.629 34.4609 101.086 34.4609H102.744ZM105.223 33.0195V38H104.9V31.6602H105.223V33.0195ZM105.182 34.2852L105.012 33.9512C105.051 33.6387 105.135 33.3398 105.264 33.0547C105.396 32.7656 105.568 32.5078 105.779 32.2812C105.994 32.0547 106.242 31.875 106.523 31.7422C106.809 31.6094 107.123 31.543 107.467 31.543C107.787 31.543 108.072 31.5859 108.322 31.6719C108.576 31.7539 108.789 31.8848 108.961 32.0645C109.137 32.2402 109.27 32.4707 109.359 32.7559C109.453 33.041 109.5 33.3828 109.5 33.7812V38H109.184V33.7812C109.184 33.2734 109.109 32.8809 108.961 32.6035C108.812 32.3262 108.607 32.1328 108.346 32.0234C108.084 31.9102 107.785 31.8535 107.449 31.8535C107.051 31.8535 106.711 31.9434 106.43 32.123C106.148 32.2988 105.918 32.5195 105.738 32.7852C105.559 33.0508 105.424 33.3203 105.334 33.5938C105.244 33.8672 105.193 34.0977 105.182 34.2852ZM109.5 33.7812L109.283 33.5879C109.322 33.3184 109.408 33.0625 109.541 32.8203C109.678 32.5742 109.854 32.3555 110.068 32.1641C110.283 31.9727 110.533 31.8223 110.818 31.7129C111.107 31.5996 111.424 31.543 111.768 31.543C112.088 31.543 112.373 31.5879 112.623 31.6777C112.877 31.7637 113.09 31.9023 113.262 32.0938C113.438 32.2812 113.57 32.5234 113.66 32.8203C113.754 33.1172 113.801 33.4766 113.801 33.8984V38H113.484V33.8984C113.484 33.3594 113.41 32.9414 113.262 32.6445C113.113 32.3477 112.908 32.1406 112.646 32.0234C112.385 31.9062 112.086 31.8496 111.75 31.8535C111.375 31.8574 111.049 31.9277 110.771 32.0645C110.498 32.1973 110.27 32.3652 110.086 32.5684C109.902 32.7715 109.762 32.9824 109.664 33.2012C109.57 33.416 109.516 33.6094 109.5 33.7812ZM116.115 31.6602V38H115.799V31.6602H116.115ZM115.635 29.6797C115.635 29.5898 115.666 29.5137 115.729 29.4512C115.791 29.3848 115.867 29.3516 115.957 29.3516C116.047 29.3516 116.123 29.3848 116.186 29.4512C116.252 29.5137 116.285 29.5898 116.285 29.6797C116.285 29.7695 116.252 29.8457 116.186 29.9082C116.123 29.9707 116.047 30.002 115.957 30.002C115.867 30.002 115.791 29.9707 115.729 29.9082C115.666 29.8457 115.635 29.7695 115.635 29.6797ZM120.475 38.1172C120.088 38.1172 119.727 38.041 119.391 37.8887C119.055 37.7324 118.76 37.5137 118.506 37.2324C118.252 36.9512 118.053 36.6191 117.908 36.2363C117.768 35.8496 117.697 35.4258 117.697 34.9648V34.707C117.697 34.2422 117.766 33.8184 117.902 33.4355C118.043 33.0488 118.234 32.7148 118.477 32.4336C118.723 32.1484 119.006 31.9297 119.326 31.7773C119.646 31.6211 119.99 31.543 120.357 31.543C120.709 31.543 121.031 31.6094 121.324 31.7422C121.617 31.8711 121.871 32.0547 122.086 32.293C122.305 32.5312 122.473 32.8164 122.59 33.1484C122.707 33.4805 122.766 33.8477 122.766 34.25V34.6191H117.902V34.3027H122.449V34.2266C122.449 33.8008 122.363 33.4102 122.191 33.0547C122.02 32.6953 121.777 32.4062 121.465 32.1875C121.152 31.9688 120.783 31.8594 120.357 31.8594C120.006 31.8594 119.686 31.9336 119.396 32.082C119.111 32.2305 118.865 32.4355 118.658 32.6973C118.451 32.9551 118.291 33.2559 118.178 33.5996C118.068 33.9434 118.014 34.3125 118.014 34.707V34.9648C118.014 35.3594 118.076 35.7285 118.201 36.0723C118.326 36.416 118.5 36.7188 118.723 36.9805C118.945 37.2383 119.205 37.4414 119.502 37.5898C119.803 37.7344 120.127 37.8066 120.475 37.8066C120.838 37.8066 121.176 37.7461 121.488 37.625C121.805 37.5039 122.094 37.2734 122.355 36.9336L122.578 37.0918C122.438 37.291 122.268 37.4688 122.068 37.625C121.873 37.7773 121.643 37.8984 121.377 37.9883C121.115 38.0742 120.814 38.1172 120.475 38.1172ZM124.559 33.0137V38H124.242V31.6602H124.559V33.0137ZM124.506 34.2852L124.336 33.9512C124.375 33.6387 124.461 33.3398 124.594 33.0547C124.727 32.7656 124.9 32.5078 125.115 32.2812C125.33 32.0547 125.58 31.875 125.865 31.7422C126.15 31.6094 126.465 31.543 126.809 31.543C127.129 31.543 127.414 31.5879 127.664 31.6777C127.914 31.7637 128.125 31.9023 128.297 32.0938C128.469 32.2812 128.6 32.5234 128.689 32.8203C128.779 33.1172 128.824 33.4766 128.824 33.8984V38H128.508V33.8984C128.508 33.3594 128.434 32.9434 128.285 32.6504C128.141 32.3535 127.939 32.1465 127.682 32.0293C127.424 31.9121 127.127 31.8535 126.791 31.8535C126.393 31.8535 126.051 31.9434 125.766 32.123C125.484 32.2988 125.252 32.5195 125.068 32.7852C124.889 33.0508 124.752 33.3203 124.658 33.5938C124.568 33.8672 124.518 34.0977 124.506 34.2852ZM126.387 30.5762L127.494 29.0176H127.881L126.738 30.5762H126.387ZM134.168 29.4688V38H133.852V29.4688H134.168ZM139.57 29.4688L135.756 33.3066L134.039 34.8887L134.086 34.4785L135.562 33.0371L139.113 29.4688H139.57ZM139.453 38L135.434 33.4004L135.627 33.125L139.863 38H139.453ZM141.621 32.7617V38H141.305V31.6602H141.621V32.7617ZM144.135 31.6074L144.1 31.8887C144.037 31.8809 143.971 31.873 143.9 31.8652C143.834 31.8574 143.764 31.8535 143.689 31.8535C143.334 31.8535 143.021 31.9258 142.752 32.0703C142.486 32.2148 142.264 32.4141 142.084 32.668C141.908 32.9219 141.775 33.2148 141.686 33.5469C141.6 33.875 141.557 34.2266 141.557 34.6016L141.346 34.6191C141.346 34.1738 141.393 33.7637 141.486 33.3887C141.584 33.0137 141.729 32.6895 141.92 32.416C142.115 32.1387 142.359 31.9238 142.652 31.7715C142.949 31.6191 143.295 31.543 143.689 31.543C143.787 31.543 143.873 31.5488 143.947 31.5605C144.021 31.5723 144.084 31.5879 144.135 31.6074ZM149.068 36.8105V33.5352C149.068 33.1836 148.992 32.8828 148.84 32.6328C148.691 32.3828 148.473 32.1914 148.184 32.0586C147.898 31.9258 147.549 31.8594 147.135 31.8594C146.752 31.8594 146.406 31.9277 146.098 32.0645C145.793 32.1973 145.551 32.3809 145.371 32.6152C145.195 32.8496 145.107 33.1133 145.107 33.4062L144.791 33.3945C144.791 33.1484 144.848 32.9141 144.961 32.6914C145.078 32.4688 145.24 32.2715 145.447 32.0996C145.658 31.9277 145.906 31.793 146.191 31.6953C146.48 31.5938 146.795 31.543 147.135 31.543C147.576 31.543 147.965 31.6172 148.301 31.7656C148.641 31.9141 148.906 32.1367 149.098 32.4336C149.289 32.7305 149.385 33.1016 149.385 33.5469V36.7227C149.385 36.9492 149.398 37.1777 149.426 37.4082C149.457 37.6387 149.498 37.8184 149.549 37.9473V38H149.186C149.146 37.8477 149.117 37.6641 149.098 37.4492C149.078 37.2305 149.068 37.0176 149.068 36.8105ZM149.209 34.4609L149.221 34.7832H147.568C147.158 34.7832 146.791 34.8242 146.467 34.9062C146.143 34.9844 145.867 35.0957 145.641 35.2402C145.414 35.3848 145.24 35.5566 145.119 35.7559C144.998 35.9551 144.938 36.1758 144.938 36.418C144.938 36.6719 145.006 36.9043 145.143 37.1152C145.283 37.3262 145.477 37.4941 145.723 37.6191C145.969 37.7441 146.252 37.8066 146.572 37.8066C147.018 37.8066 147.412 37.7344 147.756 37.5898C148.1 37.4414 148.391 37.2344 148.629 36.9688C148.867 36.7031 149.049 36.3887 149.174 36.0254L149.314 36.3184C149.24 36.5371 149.129 36.7539 148.98 36.9688C148.836 37.1797 148.65 37.373 148.424 37.5488C148.197 37.7207 147.93 37.8594 147.621 37.9648C147.316 38.0664 146.967 38.1172 146.572 38.1172C146.178 38.1172 145.834 38.0449 145.541 37.9004C145.248 37.752 145.021 37.5488 144.861 37.291C144.701 37.0293 144.621 36.7305 144.621 36.3945C144.621 36.1133 144.688 35.8555 144.82 35.6211C144.953 35.3828 145.145 35.1777 145.395 35.0059C145.648 34.8301 145.957 34.6953 146.32 34.6016C146.684 34.5078 147.094 34.4609 147.551 34.4609H149.209ZM151.512 31.6602H151.828V38.7559C151.828 39.1426 151.762 39.4707 151.629 39.7402C151.496 40.0098 151.305 40.2129 151.055 40.3496C150.809 40.4902 150.51 40.5605 150.158 40.5605C150.061 40.5605 149.965 40.5508 149.871 40.5312C149.773 40.5117 149.678 40.4824 149.584 40.4434L149.602 40.1387C149.664 40.1621 149.746 40.1855 149.848 40.209C149.945 40.2324 150.049 40.2441 150.158 40.2441C150.447 40.2441 150.691 40.1855 150.891 40.0684C151.094 39.9512 151.248 39.7812 151.354 39.5586C151.459 39.3359 151.512 39.0684 151.512 38.7559V31.6602ZM151.377 29.6797C151.377 29.5898 151.408 29.5137 151.471 29.4512C151.533 29.3848 151.609 29.3516 151.699 29.3516C151.789 29.3516 151.865 29.3848 151.928 29.4512C151.994 29.5137 152.027 29.5898 152.027 29.6797C152.027 29.7695 151.994 29.8457 151.928 29.9082C151.865 29.9707 151.789 30.002 151.699 30.002C151.609 30.002 151.533 29.9707 151.471 29.9082C151.408 29.8457 151.377 29.7695 151.377 29.6797ZM156.322 38.1172C155.936 38.1172 155.574 38.041 155.238 37.8887C154.902 37.7324 154.607 37.5137 154.354 37.2324C154.1 36.9512 153.9 36.6191 153.756 36.2363C153.615 35.8496 153.545 35.4258 153.545 34.9648V34.707C153.545 34.2422 153.613 33.8184 153.75 33.4355C153.891 33.0488 154.082 32.7148 154.324 32.4336C154.57 32.1484 154.854 31.9297 155.174 31.7773C155.494 31.6211 155.838 31.543 156.205 31.543C156.557 31.543 156.879 31.6094 157.172 31.7422C157.465 31.8711 157.719 32.0547 157.934 32.293C158.152 32.5312 158.32 32.8164 158.438 33.1484C158.555 33.4805 158.613 33.8477 158.613 34.25V34.6191H153.75V34.3027H158.297V34.2266C158.297 33.8008 158.211 33.4102 158.039 33.0547C157.867 32.6953 157.625 32.4062 157.312 32.1875C157 31.9688 156.631 31.8594 156.205 31.8594C155.854 31.8594 155.533 31.9336 155.244 32.082C154.959 32.2305 154.713 32.4355 154.506 32.6973C154.299 32.9551 154.139 33.2559 154.025 33.5996C153.916 33.9434 153.861 34.3125 153.861 34.707V34.9648C153.861 35.3594 153.924 35.7285 154.049 36.0723C154.174 36.416 154.348 36.7188 154.57 36.9805C154.793 37.2383 155.053 37.4414 155.35 37.5898C155.65 37.7344 155.975 37.8066 156.322 37.8066C156.686 37.8066 157.023 37.7461 157.336 37.625C157.652 37.5039 157.941 37.2734 158.203 36.9336L158.426 37.0918C158.285 37.291 158.115 37.4688 157.916 37.625C157.721 37.7773 157.49 37.8984 157.225 37.9883C156.963 38.0742 156.662 38.1172 156.322 38.1172ZM160.406 33.0137V38H160.09V31.6602H160.406V33.0137ZM160.354 34.2852L160.184 33.9512C160.223 33.6387 160.309 33.3398 160.441 33.0547C160.574 32.7656 160.748 32.5078 160.963 32.2812C161.178 32.0547 161.428 31.875 161.713 31.7422C161.998 31.6094 162.312 31.543 162.656 31.543C162.977 31.543 163.262 31.5879 163.512 31.6777C163.762 31.7637 163.973 31.9023 164.145 32.0938C164.316 32.2812 164.447 32.5234 164.537 32.8203C164.627 33.1172 164.672 33.4766 164.672 33.8984V38H164.355V33.8984C164.355 33.3594 164.281 32.9434 164.133 32.6504C163.988 32.3535 163.787 32.1465 163.529 32.0293C163.271 31.9121 162.975 31.8535 162.639 31.8535C162.24 31.8535 161.898 31.9434 161.613 32.123C161.332 32.2988 161.1 32.5195 160.916 32.7852C160.736 33.0508 160.6 33.3203 160.506 33.5938C160.416 33.8672 160.365 34.0977 160.354 34.2852ZM162.234 30.5762L163.342 29.0176H163.729L162.586 30.5762H162.234ZM170.572 36.4473C170.572 36.2559 170.52 36.0625 170.414 35.8672C170.309 35.668 170.117 35.4824 169.84 35.3105C169.562 35.1387 169.162 34.9961 168.639 34.8828C168.283 34.8047 167.971 34.7188 167.701 34.625C167.436 34.5312 167.213 34.4199 167.033 34.291C166.854 34.1582 166.719 33.998 166.629 33.8105C166.539 33.623 166.494 33.4004 166.494 33.1426C166.494 32.9199 166.541 32.7129 166.635 32.5215C166.732 32.3262 166.873 32.1562 167.057 32.0117C167.24 31.8633 167.463 31.748 167.725 31.666C167.986 31.584 168.283 31.543 168.615 31.543C169.088 31.543 169.492 31.6191 169.828 31.7715C170.168 31.9238 170.428 32.1367 170.607 32.4102C170.791 32.6797 170.883 32.9941 170.883 33.3535H170.561C170.561 33.0918 170.484 32.8477 170.332 32.6211C170.184 32.3945 169.965 32.2109 169.676 32.0703C169.387 31.9297 169.033 31.8594 168.615 31.8594C168.189 31.8594 167.844 31.9238 167.578 32.0527C167.312 32.1816 167.117 32.3438 166.992 32.5391C166.871 32.7344 166.811 32.9316 166.811 33.1309C166.811 33.2949 166.834 33.4473 166.881 33.5879C166.928 33.7246 167.018 33.8535 167.15 33.9746C167.287 34.0918 167.482 34.2031 167.736 34.3086C167.99 34.4141 168.322 34.5137 168.732 34.6074C169.236 34.7207 169.646 34.8574 169.963 35.0176C170.279 35.1777 170.512 35.375 170.66 35.6094C170.812 35.8398 170.889 36.1211 170.889 36.4531C170.889 36.6992 170.836 36.9238 170.73 37.127C170.629 37.3301 170.48 37.5059 170.285 37.6543C170.094 37.8027 169.859 37.918 169.582 38C169.309 38.0781 169.002 38.1172 168.662 38.1172C168.15 38.1172 167.717 38.0391 167.361 37.8828C167.01 37.7227 166.742 37.5117 166.559 37.25C166.379 36.9844 166.289 36.6973 166.289 36.3887H166.605C166.633 36.752 166.752 37.0371 166.963 37.2441C167.178 37.4473 167.438 37.5918 167.742 37.6777C168.051 37.7598 168.357 37.8008 168.662 37.8008C169.08 37.8008 169.43 37.7344 169.711 37.6016C169.996 37.4688 170.211 37.2988 170.355 37.0918C170.5 36.8809 170.572 36.666 170.572 36.4473ZM172.957 29V38H172.641V29H172.957ZM177.035 31.6602L173.877 34.584L172.898 35.4219L172.781 35.1934L173.701 34.3262L176.584 31.6602H177.035ZM176.807 38L173.777 34.4375L173.982 34.1914L177.217 38H176.807ZM178.717 31.6602V38H178.4V31.6602H178.717ZM178.236 29.6797C178.236 29.5898 178.268 29.5137 178.33 29.4512C178.393 29.3848 178.469 29.3516 178.559 29.3516C178.648 29.3516 178.725 29.3848 178.787 29.4512C178.854 29.5137 178.887 29.5898 178.887 29.6797C178.887 29.7695 178.854 29.8457 178.787 29.9082C178.725 29.9707 178.648 30.002 178.559 30.002C178.469 30.002 178.393 29.9707 178.33 29.9082C178.268 29.8457 178.236 29.7695 178.236 29.6797Z" fill="white"/>
<defs>
<clipPath id="clip0_1018_18671">
<rect width="78" height="39" fill="white" transform="translate(0 1.5)"/>
</clipPath>
</defs>
</svg>
