<svg xmlns="http://www.w3.org/2000/svg" viewBox="0 0 22 35" fill="none">
  <path d="M20.875 11.409C16.375 13.5082 13.675 17.2068 11.875 21.7051C11.675 22.2049 11.875 22.5048 12.075 22.9046C12.575 23.5044 13.175 24.0042 13.675 24.604C12.675 25.3037 12.175 25.2037 11.175 24.1042C10.775 24.7039 10.575 25.2037 10.875 25.9035C11.475 27.203 12.075 28.3026 13.275 29.1022C13.575 29.3022 13.975 29.4021 13.975 29.802C13.975 30.2018 13.375 30.2018 13.075 30.2018C12.675 30.2018 12.475 30.3018 12.375 30.6017C12.375 30.6017 12.375 30.6017 12.375 30.7016V30.9016C12.375 32.301 11.875 33.6005 10.975 34.7001C10.675 35.1 10.475 35.1 10.175 34.7001C9.375 33.8005 8.975 32.7009 8.775 31.5013C8.775 31.3014 8.775 31.0015 8.775 30.8016C8.775 30.4018 8.575 30.1019 8.075 30.1019C7.675 30.1019 7.375 30.0019 7.075 29.702C7.375 29.2022 7.875 29.0023 8.175 28.7024C9.175 27.8027 9.775 26.7032 10.275 25.6036C10.375 25.3037 10.275 25.0038 10.275 24.7039C10.075 24.2041 9.875 24.1042 9.475 24.504C8.775 25.2037 8.075 25.1038 7.275 24.604C7.875 24.0042 8.575 23.6043 9.075 22.9046C9.275 22.6047 9.575 22.3048 9.375 21.805C8.075 18.5063 6.475 15.4075 3.575 13.2083C2.675 12.5086 1.675 11.9088 0.675 11.409C-0.225 11.0091 -0.225 10.9092 0.675 10.3094C2.475 9.10987 4.375 8.41014 6.475 9.10987C6.675 9.10987 6.775 9.20984 6.975 9.10987C6.975 5.81113 7.975 2.91224 10.175 0.413191C10.575 -0.0866182 10.875 -0.18658 11.375 0.413191C13.175 2.51239 14.275 4.91147 14.475 7.71041C14.475 7.91033 14.475 7.81037 14.475 7.91033C14.475 8.21022 14.475 8.5101 14.475 8.80999C14.475 9.20984 14.675 9.3098 15.075 9.10987C17.275 8.41014 19.175 9.10987 20.975 10.4094C21.475 10.8092 21.575 11.0091 20.875 11.409Z" fill="currentColor"/>
</svg>
