<svg xmlns="http://www.w3.org/2000/svg" width="22" height="35" viewBox="0 0 22 35" fill="none">
  <path d="M8.83371 30.8191C8.80632 30.3847 8.6566 30.112 8.13623 30.1047C7.78567 30.0993 7.4205 29.9866 7.12288 29.6739C7.38398 29.2159 7.88244 29.0105 8.26039 28.6851C9.25183 27.8289 9.86532 26.7383 10.3528 25.5568C10.4788 25.2514 10.435 24.9805 10.3327 24.6842C10.1721 24.2244 9.95661 24.0699 9.57866 24.4807C8.89761 25.2223 8.16727 25.0932 7.33468 24.6152C7.9719 24.0226 8.66025 23.5736 9.10576 22.8774C9.32304 22.5393 9.54944 22.243 9.37051 21.8031C8.04129 18.533 6.45462 15.4338 3.57524 13.2034C2.66597 12.4982 1.67088 11.9219 0.648396 11.3966C-0.202453 10.9585 -0.211581 10.8804 0.595447 10.3223C2.3574 9.10445 4.23803 8.41734 6.40349 9.13535C6.5733 9.1917 6.75223 9.25532 6.92934 9.14625C7.76193 9.91879 8.57626 10.6859 9.20071 11.6656C9.91279 12.7817 10.2524 14.0287 10.6705 15.2811C10.7819 15.1957 10.8549 15.1684 10.8641 15.1284C11.3698 12.9071 12.3083 10.9367 14.178 9.51889C14.4409 9.32076 14.3715 9.03355 14.4628 8.78998C14.5322 9.16625 14.7166 9.25532 15.0982 9.13171C17.3057 8.41734 19.1973 9.19351 20.9702 10.4314C21.4741 10.784 21.5581 11.0567 20.8533 11.3766C16.3307 13.4343 13.8384 17.2243 12.102 21.6504C11.9194 22.1176 12.0509 22.4848 12.3521 22.8102C12.8835 23.3809 13.4403 23.9299 13.9844 24.4861C12.9766 25.1878 12.4872 25.0951 11.4374 23.9481C11.0357 24.5261 10.8495 25.0732 11.1507 25.7713C11.6985 27.0382 12.3832 28.1779 13.5371 28.9995C13.7927 29.1813 14.262 29.3431 14.2035 29.663C14.1342 30.0411 13.6357 30.1047 13.2979 30.1029C12.71 30.1011 12.6004 30.4337 12.5676 30.89C12.584 30.4756 12.5219 30.1247 12.0217 29.9993C11.6875 29.9157 11.4429 29.6667 11.273 29.3722C10.9298 28.7723 10.592 28.5851 10.1903 29.3267C10.0132 29.6539 9.74116 29.9211 9.37416 30.0066C8.90857 30.1175 8.8684 30.4574 8.83371 30.8227V30.8191Z" fill="currentColor"/>
  <path d="M14.4592 8.78291C14.3698 9.02648 14.4373 9.31187 14.1744 9.51182C12.3047 10.9315 11.3662 12.9001 10.8605 15.1213C10.8513 15.1613 10.7783 15.1886 10.6669 15.274C10.2488 14.0216 9.90919 12.7747 9.1971 11.6586C8.57266 10.6788 7.75833 9.91172 6.92574 9.13919C6.87461 5.82546 7.94091 2.92617 10.1192 0.41224C10.561 -0.0967254 10.8093 -0.169435 11.2822 0.392245C13.0697 2.51536 14.178 4.9075 14.4099 7.68136C14.4044 7.69954 14.3898 7.72135 14.3935 7.73953C14.4008 7.77952 14.4172 7.81769 14.4282 7.85768C14.4373 8.1667 14.4501 8.47389 14.4592 8.78291Z" fill="currentColor"/>
  <path d="M8.83371 30.8191C8.8684 30.4537 8.90843 30.112 9.37402 30.003C9.74102 29.9157 10.0131 29.6503 10.1902 29.3231C10.5919 28.5815 10.9278 28.7687 11.2729 29.3686C11.4427 29.6631 11.6874 29.9121 12.0215 29.9957C12.52 30.1211 12.5839 30.472 12.5674 30.8864C12.5364 32.3297 12.0087 33.5803 11.1177 34.7073C10.8018 35.1072 10.6266 35.089 10.3016 34.7036C9.51644 33.7711 9.05085 32.7169 8.88287 31.5226V31.5426C8.86643 31.3027 8.85 31.0609 8.83357 30.821L8.83371 30.8191Z" fill="currentColor"/>
</svg>
