<svg width="229" height="66" viewBox="0 0 229 66" fill="none" xmlns="http://www.w3.org/2000/svg">
<g clip-path="url(#clip0_537_36452)">
<path d="M38.2579 13.5671C37.4986 14.1603 36.7077 14.7035 35.976 15.3282C33.4723 17.4667 31.7197 20.12 30.4883 23.1396C28.7306 27.4502 28.4771 31.947 28.8971 36.5079C29.2293 40.1114 30.3799 43.4677 32.3267 46.528C33.7789 48.812 35.6725 50.686 37.936 52.1846C38.0321 52.2477 38.1598 52.2752 38.2007 52.4654C37.5753 52.4796 37.0122 52.2446 36.4491 52.0829C31.6911 50.7176 28.2309 47.8018 26.1012 43.3558C24.9955 41.0474 24.4038 38.5996 24.1514 36.048C23.8805 33.3133 23.9674 30.602 24.4487 27.907C25.0568 24.5009 26.3812 21.3897 28.658 18.7537C30.7734 16.3059 33.461 14.7178 36.5963 13.8764C37.1369 13.7309 37.6795 13.6099 38.2579 13.5671Z" fill="#00A2DD"/>
<path d="M49.5021 13.5967C50.1561 13.559 50.7478 13.7788 51.3354 13.9497C56.2938 15.3964 59.7601 18.535 61.8244 23.2231C63.5596 27.1644 63.9152 31.3071 63.5923 35.5485C63.3889 38.2222 62.8197 40.8012 61.6527 43.2267C59.9369 46.7915 57.4209 49.5588 53.7063 51.1571C52.3492 51.7411 50.9747 52.2233 49.3835 52.4929C49.9548 52.0788 50.4228 51.7492 50.8807 51.4063C54.1426 48.9565 56.2805 45.7019 57.6345 41.9153C58.8087 38.6342 59.1091 35.224 58.9906 31.7649C58.8526 27.7463 57.9278 23.9393 55.9279 20.4192C54.3593 17.659 52.2582 15.3984 49.5573 13.7025C49.5368 13.6903 49.5317 13.6547 49.5021 13.5977V13.5967Z" fill="#14335C"/>
<path d="M70.8919 43.0985C70.8919 40.1542 70.899 37.2109 70.8837 34.2666C70.8817 33.8831 70.9552 33.7417 71.3793 33.759C72.3297 33.7966 73.2821 33.7681 74.2335 33.7722C75.1144 33.7752 75.6775 34.3114 75.6785 35.1853C75.6836 40.8022 75.6785 46.4192 75.6847 52.0361C75.6847 52.3647 75.6326 52.5092 75.2442 52.5C73.9873 52.4705 72.7293 52.4715 71.4723 52.497C71.0329 52.5061 70.8725 52.4227 70.8765 51.9303C70.9041 48.987 70.8898 46.0427 70.8908 43.0995L70.8919 43.0985Z" fill="#14335C"/>
<path d="M70.8908 22.3827C70.8908 19.6063 70.8979 16.8299 70.8826 14.0535C70.8806 13.6496 70.9674 13.4909 71.4109 13.5011C72.6689 13.5296 73.9279 13.5235 75.1859 13.5031C75.5487 13.497 75.6907 13.5702 75.6897 13.9711C75.6774 19.2706 75.6856 24.5691 75.6815 29.8686C75.6815 30.7425 75.1174 31.2776 74.2325 31.2797C73.2974 31.2827 72.3613 31.2583 71.4263 31.2909C71.0052 31.3051 70.8806 31.1963 70.8836 30.7639C70.9041 27.9702 70.8938 25.1775 70.8938 22.3838H70.8898L70.8908 22.3827Z" fill="#00A2DD"/>
<path d="M79.8979 33.7651C81.0149 33.7661 82.0123 33.7051 83.0097 33.8424C84.0919 33.992 84.7684 34.7377 85.4684 35.4509C90.1652 40.2366 94.8609 45.0223 99.5535 49.8121C100.381 50.6576 101.192 51.5203 102 52.3627C101.958 52.5448 101.831 52.4838 101.746 52.4838C100.555 52.4899 99.3645 52.4787 98.175 52.498C97.8643 52.5031 97.7171 52.3088 97.5455 52.1307C94.0904 48.5455 90.6383 44.9572 87.1842 41.37C84.8931 38.9903 82.5989 36.6127 80.3077 34.2331C80.1912 34.112 80.087 33.9808 79.899 33.7641L79.8979 33.7651Z" fill="#00A2DD"/>
<path d="M79.8909 31.2786C80.6461 30.4871 81.3154 29.78 81.9899 29.079C86.842 24.0349 91.6981 18.9938 96.541 13.9405C96.8496 13.618 97.1572 13.4908 97.5987 13.502C98.7534 13.5305 99.9082 13.5122 101.063 13.5122C101.141 13.6699 101.006 13.7269 100.93 13.8042C95.6182 19.2298 90.3032 24.6534 84.9954 30.0832C84.2034 30.893 83.2704 31.3091 82.1309 31.2827C81.4258 31.2654 80.7207 31.2796 79.8919 31.2796L79.8909 31.2786Z" fill="#14335C"/>
<path d="M42.8096 41.9956C42.7943 41.7524 42.7105 41.5998 42.4193 41.5957C42.2231 41.5927 42.0187 41.5296 41.8521 41.3546C41.9982 41.0982 42.2772 40.9833 42.4888 40.8012C43.0437 40.322 43.387 39.7116 43.6599 39.0503C43.7304 38.8794 43.7059 38.7278 43.6486 38.5619C43.5587 38.3045 43.4381 38.2181 43.2266 38.448C42.8454 38.8631 42.4366 38.7908 41.9706 38.5233C42.3273 38.1916 42.7126 37.9403 42.9619 37.5507C43.0835 37.3614 43.2102 37.1956 43.1101 36.9494C42.3661 35.1191 41.4781 33.3845 39.8665 32.1362C39.3576 31.7415 38.8007 31.419 38.2284 31.1249C37.7522 30.8797 37.7471 30.836 38.1987 30.5237C39.1849 29.842 40.2375 29.4575 41.4495 29.8593C41.5445 29.8909 41.6447 29.9265 41.7438 29.8654C42.2098 30.2978 42.6656 30.7271 43.0151 31.2755C43.4136 31.9002 43.6037 32.5981 43.8377 33.2991C43.9 33.2512 43.9409 33.236 43.946 33.2136C44.2291 31.9704 44.7544 30.8675 45.8008 30.074C45.948 29.9631 45.9091 29.8023 45.9602 29.666C45.9991 29.8766 46.1023 29.9265 46.3158 29.8573C47.5513 29.4575 48.6101 29.8919 49.6023 30.5847C49.8844 30.7821 49.9314 30.9347 49.5369 31.1137C47.0056 32.2654 45.6107 34.3866 44.6389 36.8639C44.5367 37.1254 44.6103 37.3309 44.7789 37.513C45.0763 37.8325 45.3879 38.1397 45.6925 38.451C45.1284 38.8437 44.8545 38.7919 44.2669 38.1499C44.0421 38.4734 43.9378 38.7796 44.1065 39.1703C44.413 39.8794 44.7963 40.5173 45.4421 40.9772C45.5852 41.0789 45.8478 41.1695 45.8151 41.3485C45.7763 41.5601 45.4973 41.5957 45.3082 41.5947C44.9792 41.5937 44.9179 41.7799 44.8995 42.0352C44.9087 41.8033 44.8739 41.6069 44.5939 41.5367C44.4069 41.4899 44.27 41.3506 44.1749 41.1857C43.9828 40.85 43.7938 40.7452 43.5689 41.1603C43.4698 41.3434 43.3175 41.493 43.1121 41.5408C42.8515 41.6029 42.8291 41.7931 42.8096 41.9976V41.9956Z" fill="#00A2DD"/>
<path d="M45.9581 29.6621C45.9081 29.7984 45.9459 29.9581 45.7987 30.07C44.7523 30.8646 44.227 31.9664 43.9439 33.2097C43.9388 33.232 43.898 33.2473 43.8356 33.2951C43.6016 32.5941 43.4115 31.8962 43.013 31.2716C42.6635 30.7232 42.2077 30.2939 41.7417 29.8615C41.7131 28.0068 42.3099 26.3841 43.529 24.9771C43.7763 24.6922 43.9153 24.6515 44.18 24.9659C45.1805 26.1542 45.8008 27.493 45.9306 29.0455C45.9275 29.0557 45.9193 29.0679 45.9214 29.0781C45.9254 29.1005 45.9346 29.1218 45.9408 29.1442C45.9459 29.3172 45.953 29.4891 45.9581 29.6621Z" fill="#14335C"/>
<path d="M42.8096 41.9956C42.829 41.7911 42.8515 41.5998 43.1121 41.5388C43.3175 41.4899 43.4697 41.3414 43.5689 41.1583C43.7937 40.7432 43.9817 40.848 44.1749 41.1837C44.2699 41.3485 44.4068 41.4879 44.5938 41.5347C44.8728 41.6049 44.9086 41.8012 44.8994 42.0332C44.882 42.841 44.5867 43.541 44.088 44.1717C43.9112 44.3956 43.8131 44.3854 43.6312 44.1697C43.1918 43.6478 42.9312 43.0577 42.8372 42.3893V42.4005C42.828 42.2662 42.8188 42.1309 42.8096 41.9966V41.9956Z" fill="#14335C"/>
<path d="M45.9417 29.1452C45.9345 29.1228 45.9263 29.1014 45.9222 29.0791C45.9202 29.0689 45.9273 29.0567 45.9314 29.0465C45.9417 29.0719 45.9529 29.0943 45.96 29.1187C45.9621 29.1248 45.9488 29.136 45.9427 29.1442L45.9417 29.1452Z" fill="white"/>
<path d="M42.8343 42.3986L42.8333 42.3873L42.8013 42.3958L42.8343 42.3986Z" fill="white"/>
</g>
<path d="M115.266 15.4688H115.623L119.133 23.5371L122.654 15.4688H123.006L119.262 24H119.01L115.266 15.4688ZM115.172 15.4688H115.488V19.8809V24H115.172V15.4688ZM122.801 15.4688H123.117V24H122.801V19.8809V15.4688ZM125.689 17.6602V24H125.373V17.6602H125.689ZM125.209 15.6797C125.209 15.5898 125.24 15.5137 125.303 15.4512C125.365 15.3848 125.441 15.3516 125.531 15.3516C125.621 15.3516 125.697 15.3848 125.76 15.4512C125.826 15.5137 125.859 15.5898 125.859 15.6797C125.859 15.7695 125.826 15.8457 125.76 15.9082C125.697 15.9707 125.621 16.002 125.531 16.002C125.441 16.002 125.365 15.9707 125.303 15.9082C125.24 15.8457 125.209 15.7695 125.209 15.6797ZM130.049 24.1172C129.662 24.1172 129.301 24.041 128.965 23.8887C128.629 23.7324 128.334 23.5137 128.08 23.2324C127.826 22.9512 127.627 22.6191 127.482 22.2363C127.342 21.8496 127.271 21.4258 127.271 20.9648V20.707C127.271 20.2422 127.34 19.8184 127.477 19.4355C127.617 19.0488 127.809 18.7148 128.051 18.4336C128.297 18.1484 128.58 17.9297 128.9 17.7773C129.221 17.6211 129.564 17.543 129.932 17.543C130.283 17.543 130.605 17.6094 130.898 17.7422C131.191 17.8711 131.445 18.0547 131.66 18.293C131.879 18.5312 132.047 18.8164 132.164 19.1484C132.281 19.4805 132.34 19.8477 132.34 20.25V20.6191H127.477V20.3027H132.023V20.2266C132.023 19.8008 131.938 19.4102 131.766 19.0547C131.594 18.6953 131.352 18.4062 131.039 18.1875C130.727 17.9688 130.357 17.8594 129.932 17.8594C129.58 17.8594 129.26 17.9336 128.971 18.082C128.686 18.2305 128.439 18.4355 128.232 18.6973C128.025 18.9551 127.865 19.2559 127.752 19.5996C127.643 19.9434 127.588 20.3125 127.588 20.707V20.9648C127.588 21.3594 127.65 21.7285 127.775 22.0723C127.9 22.416 128.074 22.7188 128.297 22.9805C128.52 23.2383 128.779 23.4414 129.076 23.5898C129.377 23.7344 129.701 23.8066 130.049 23.8066C130.412 23.8066 130.75 23.7461 131.062 23.625C131.379 23.5039 131.668 23.2734 131.93 22.9336L132.152 23.0918C132.012 23.291 131.842 23.4688 131.643 23.625C131.447 23.7773 131.217 23.8984 130.951 23.9883C130.689 24.0742 130.389 24.1172 130.049 24.1172ZM133.898 17.6602H134.215V24.7559C134.215 25.1426 134.148 25.4707 134.016 25.7402C133.883 26.0098 133.691 26.2129 133.441 26.3496C133.195 26.4902 132.896 26.5605 132.545 26.5605C132.447 26.5605 132.352 26.5508 132.258 26.5312C132.16 26.5117 132.064 26.4824 131.971 26.4434L131.988 26.1387C132.051 26.1621 132.133 26.1855 132.234 26.209C132.332 26.2324 132.436 26.2441 132.545 26.2441C132.834 26.2441 133.078 26.1855 133.277 26.0684C133.48 25.9512 133.635 25.7812 133.74 25.5586C133.846 25.3359 133.898 25.0684 133.898 24.7559V17.6602ZM133.764 15.6797C133.764 15.5898 133.795 15.5137 133.857 15.4512C133.92 15.3848 133.996 15.3516 134.086 15.3516C134.176 15.3516 134.252 15.3848 134.314 15.4512C134.381 15.5137 134.414 15.5898 134.414 15.6797C134.414 15.7695 134.381 15.8457 134.314 15.9082C134.252 15.9707 134.176 16.002 134.086 16.002C133.996 16.002 133.92 15.9707 133.857 15.9082C133.795 15.8457 133.764 15.7695 133.764 15.6797ZM140.338 22.4473C140.338 22.2559 140.285 22.0625 140.18 21.8672C140.074 21.668 139.883 21.4824 139.605 21.3105C139.328 21.1387 138.928 20.9961 138.404 20.8828C138.049 20.8047 137.736 20.7188 137.467 20.625C137.201 20.5312 136.979 20.4199 136.799 20.291C136.619 20.1582 136.484 19.998 136.395 19.8105C136.305 19.623 136.26 19.4004 136.26 19.1426C136.26 18.9199 136.307 18.7129 136.4 18.5215C136.498 18.3262 136.639 18.1562 136.822 18.0117C137.006 17.8633 137.229 17.748 137.49 17.666C137.752 17.584 138.049 17.543 138.381 17.543C138.854 17.543 139.258 17.6191 139.594 17.7715C139.934 17.9238 140.193 18.1367 140.373 18.4102C140.557 18.6797 140.648 18.9941 140.648 19.3535H140.326C140.326 19.0918 140.25 18.8477 140.098 18.6211C139.949 18.3945 139.73 18.2109 139.441 18.0703C139.152 17.9297 138.799 17.8594 138.381 17.8594C137.955 17.8594 137.609 17.9238 137.344 18.0527C137.078 18.1816 136.883 18.3438 136.758 18.5391C136.637 18.7344 136.576 18.9316 136.576 19.1309C136.576 19.2949 136.6 19.4473 136.646 19.5879C136.693 19.7246 136.783 19.8535 136.916 19.9746C137.053 20.0918 137.248 20.2031 137.502 20.3086C137.756 20.4141 138.088 20.5137 138.498 20.6074C139.002 20.7207 139.412 20.8574 139.729 21.0176C140.045 21.1777 140.277 21.375 140.426 21.6094C140.578 21.8398 140.654 22.1211 140.654 22.4531C140.654 22.6992 140.602 22.9238 140.496 23.127C140.395 23.3301 140.246 23.5059 140.051 23.6543C139.859 23.8027 139.625 23.918 139.348 24C139.074 24.0781 138.768 24.1172 138.428 24.1172C137.916 24.1172 137.482 24.0391 137.127 23.8828C136.775 23.7227 136.508 23.5117 136.324 23.25C136.145 22.9844 136.055 22.6973 136.055 22.3887H136.371C136.398 22.752 136.518 23.0371 136.729 23.2441C136.943 23.4473 137.203 23.5918 137.508 23.6777C137.816 23.7598 138.123 23.8008 138.428 23.8008C138.846 23.8008 139.195 23.7344 139.477 23.6016C139.762 23.4688 139.977 23.2988 140.121 23.0918C140.266 22.8809 140.338 22.666 140.338 22.4473ZM142.723 15V24H142.406V15H142.723ZM146.801 17.6602L143.643 20.584L142.664 21.4219L142.547 21.1934L143.467 20.3262L146.35 17.6602H146.801ZM146.572 24L143.543 20.4375L143.748 20.1914L146.982 24H146.572ZM147.609 20.9531V20.707C147.609 20.2422 147.676 19.8164 147.809 19.4297C147.945 19.043 148.135 18.709 148.377 18.4277C148.623 18.1465 148.916 17.9297 149.256 17.7773C149.596 17.6211 149.971 17.543 150.381 17.543C150.795 17.543 151.172 17.6211 151.512 17.7773C151.852 17.9297 152.145 18.1465 152.391 18.4277C152.637 18.709 152.826 19.043 152.959 19.4297C153.092 19.8164 153.158 20.2422 153.158 20.707V20.9531C153.158 21.418 153.092 21.8438 152.959 22.2305C152.826 22.6172 152.637 22.9512 152.391 23.2324C152.148 23.5137 151.857 23.7324 151.518 23.8887C151.178 24.041 150.803 24.1172 150.393 24.1172C149.979 24.1172 149.602 24.041 149.262 23.8887C148.922 23.7324 148.629 23.5137 148.383 23.2324C148.137 22.9512 147.945 22.6172 147.809 22.2305C147.676 21.8438 147.609 21.418 147.609 20.9531ZM147.926 20.707V20.9531C147.926 21.332 147.98 21.6934 148.09 22.0371C148.203 22.377 148.365 22.6797 148.576 22.9453C148.787 23.2109 149.045 23.4199 149.35 23.5723C149.654 23.7246 150.002 23.8008 150.393 23.8008C150.779 23.8008 151.123 23.7246 151.424 23.5723C151.729 23.4199 151.986 23.2109 152.197 22.9453C152.408 22.6797 152.568 22.377 152.678 22.0371C152.787 21.6934 152.842 21.332 152.842 20.9531V20.707C152.842 20.3359 152.787 19.9805 152.678 19.6406C152.568 19.3008 152.406 18.998 152.191 18.7324C151.98 18.4629 151.723 18.25 151.418 18.0938C151.113 17.9375 150.768 17.8594 150.381 17.8594C149.994 17.8594 149.648 17.9375 149.344 18.0938C149.043 18.25 148.785 18.4629 148.57 18.7324C148.359 18.998 148.199 19.3008 148.09 19.6406C147.98 19.9805 147.926 20.3359 147.926 20.707ZM156.803 19.9395V20.2559H154.049V19.9395H156.803ZM164.438 20.1328V23.0859C164.348 23.2148 164.178 23.3594 163.928 23.5195C163.682 23.6797 163.357 23.8203 162.955 23.9414C162.557 24.0586 162.08 24.1172 161.525 24.1172C161.041 24.1172 160.598 24.0273 160.195 23.8477C159.793 23.668 159.445 23.4121 159.152 23.0801C158.859 22.7441 158.633 22.3477 158.473 21.8906C158.316 21.4297 158.238 20.9219 158.238 20.3672V18.9727C158.238 18.4336 158.314 17.9434 158.467 17.502C158.623 17.0605 158.842 16.6797 159.123 16.3594C159.408 16.0352 159.746 15.7871 160.137 15.6152C160.527 15.4395 160.957 15.3516 161.426 15.3516C162.043 15.3516 162.564 15.459 162.99 15.6738C163.416 15.8887 163.748 16.1797 163.986 16.5469C164.229 16.9102 164.375 17.3203 164.426 17.7773H164.109C164.051 17.4062 163.924 17.0605 163.729 16.7402C163.533 16.4199 163.248 16.1621 162.873 15.9668C162.502 15.7676 162.02 15.668 161.426 15.668C160.992 15.668 160.598 15.75 160.242 15.9141C159.891 16.0742 159.588 16.3008 159.334 16.5938C159.084 16.8867 158.891 17.2344 158.754 17.6367C158.621 18.0391 158.555 18.4805 158.555 18.9609V20.3672C158.555 20.8711 158.623 21.332 158.76 21.75C158.9 22.168 159.102 22.5312 159.363 22.8398C159.625 23.1445 159.938 23.3809 160.301 23.5488C160.668 23.7168 161.076 23.8008 161.525 23.8008C161.99 23.8008 162.4 23.7539 162.756 23.6602C163.115 23.5625 163.41 23.4473 163.641 23.3145C163.875 23.1777 164.035 23.0527 164.121 22.9395V20.4551H161.514V20.1328H164.438ZM166.758 19.0195V24H166.436V17.6602H166.758V19.0195ZM166.717 20.2852L166.547 19.9512C166.586 19.6387 166.67 19.3398 166.799 19.0547C166.932 18.7656 167.104 18.5078 167.314 18.2812C167.529 18.0547 167.777 17.875 168.059 17.7422C168.344 17.6094 168.658 17.543 169.002 17.543C169.322 17.543 169.607 17.5859 169.857 17.6719C170.111 17.7539 170.324 17.8848 170.496 18.0645C170.672 18.2402 170.805 18.4707 170.895 18.7559C170.988 19.041 171.035 19.3828 171.035 19.7812V24H170.719V19.7812C170.719 19.2734 170.645 18.8809 170.496 18.6035C170.348 18.3262 170.143 18.1328 169.881 18.0234C169.619 17.9102 169.32 17.8535 168.984 17.8535C168.586 17.8535 168.246 17.9434 167.965 18.123C167.684 18.2988 167.453 18.5195 167.273 18.7852C167.094 19.0508 166.959 19.3203 166.869 19.5938C166.779 19.8672 166.729 20.0977 166.717 20.2852ZM171.035 19.7812L170.818 19.5879C170.857 19.3184 170.943 19.0625 171.076 18.8203C171.213 18.5742 171.389 18.3555 171.604 18.1641C171.818 17.9727 172.068 17.8223 172.354 17.7129C172.643 17.5996 172.959 17.543 173.303 17.543C173.623 17.543 173.908 17.5879 174.158 17.6777C174.412 17.7637 174.625 17.9023 174.797 18.0938C174.973 18.2812 175.105 18.5234 175.195 18.8203C175.289 19.1172 175.336 19.4766 175.336 19.8984V24H175.02V19.8984C175.02 19.3594 174.945 18.9414 174.797 18.6445C174.648 18.3477 174.443 18.1406 174.182 18.0234C173.92 17.9062 173.621 17.8496 173.285 17.8535C172.91 17.8574 172.584 17.9277 172.307 18.0645C172.033 18.1973 171.805 18.3652 171.621 18.5684C171.438 18.7715 171.297 18.9824 171.199 19.2012C171.105 19.416 171.051 19.6094 171.035 19.7812ZM177.65 17.6602V24H177.334V17.6602H177.65ZM177.17 15.6797C177.17 15.5898 177.201 15.5137 177.264 15.4512C177.326 15.3848 177.402 15.3516 177.492 15.3516C177.582 15.3516 177.658 15.3848 177.721 15.4512C177.787 15.5137 177.82 15.5898 177.82 15.6797C177.82 15.7695 177.787 15.8457 177.721 15.9082C177.658 15.9707 177.582 16.002 177.492 16.002C177.402 16.002 177.326 15.9707 177.264 15.9082C177.201 15.8457 177.17 15.7695 177.17 15.6797ZM180.047 19.0137V24H179.73V17.6602H180.047V19.0137ZM179.994 20.2852L179.824 19.9512C179.863 19.6387 179.949 19.3398 180.082 19.0547C180.215 18.7656 180.389 18.5078 180.604 18.2812C180.818 18.0547 181.068 17.875 181.354 17.7422C181.639 17.6094 181.953 17.543 182.297 17.543C182.617 17.543 182.902 17.5879 183.152 17.6777C183.402 17.7637 183.613 17.9023 183.785 18.0938C183.957 18.2812 184.088 18.5234 184.178 18.8203C184.268 19.1172 184.312 19.4766 184.312 19.8984V24H183.996V19.8984C183.996 19.3594 183.922 18.9434 183.773 18.6504C183.629 18.3535 183.428 18.1465 183.17 18.0293C182.912 17.9121 182.615 17.8535 182.279 17.8535C181.881 17.8535 181.539 17.9434 181.254 18.123C180.973 18.2988 180.74 18.5195 180.557 18.7852C180.377 19.0508 180.24 19.3203 180.146 19.5938C180.057 19.8672 180.006 20.0977 179.994 20.2852ZM186.621 19.0137V24H186.305V17.6602H186.621V19.0137ZM186.568 20.2852L186.398 19.9512C186.438 19.6387 186.523 19.3398 186.656 19.0547C186.789 18.7656 186.963 18.5078 187.178 18.2812C187.393 18.0547 187.643 17.875 187.928 17.7422C188.213 17.6094 188.527 17.543 188.871 17.543C189.191 17.543 189.477 17.5879 189.727 17.6777C189.977 17.7637 190.188 17.9023 190.359 18.0938C190.531 18.2812 190.662 18.5234 190.752 18.8203C190.842 19.1172 190.887 19.4766 190.887 19.8984V24H190.57V19.8984C190.57 19.3594 190.496 18.9434 190.348 18.6504C190.203 18.3535 190.002 18.1465 189.744 18.0293C189.486 17.9121 189.189 17.8535 188.854 17.8535C188.455 17.8535 188.113 17.9434 187.828 18.123C187.547 18.2988 187.314 18.5195 187.131 18.7852C186.951 19.0508 186.814 19.3203 186.721 19.5938C186.631 19.8672 186.58 20.0977 186.568 20.2852ZM194.859 23.3906L197.051 17.6602H197.402L194.584 25.0547C194.533 25.1875 194.471 25.3398 194.396 25.5117C194.326 25.6836 194.23 25.8496 194.109 26.0098C193.988 26.1699 193.83 26.3008 193.635 26.4023C193.443 26.5078 193.203 26.5605 192.914 26.5605C192.852 26.5605 192.77 26.5547 192.668 26.543C192.566 26.5312 192.492 26.5156 192.445 26.4961L192.439 26.1973C192.498 26.2129 192.574 26.2246 192.668 26.2324C192.762 26.2441 192.828 26.25 192.867 26.25C193.129 26.25 193.346 26.1953 193.518 26.0859C193.693 25.9805 193.84 25.832 193.957 25.6406C194.074 25.4531 194.178 25.2383 194.268 24.9961L194.859 23.3906ZM192.469 17.6602L194.865 23.625L194.965 23.9414L194.713 24.123L192.123 17.6602H192.469ZM121.383 32.2773V33.1914C121.383 33.7891 121.305 34.3301 121.148 34.8145C120.996 35.2949 120.773 35.707 120.48 36.0508C120.191 36.3945 119.844 36.6582 119.438 36.8418C119.031 37.0254 118.574 37.1172 118.066 37.1172C117.57 37.1172 117.117 37.0254 116.707 36.8418C116.301 36.6582 115.951 36.3945 115.658 36.0508C115.365 35.707 115.139 35.2949 114.979 34.8145C114.818 34.3301 114.738 33.7891 114.738 33.1914V32.2773C114.738 31.6797 114.816 31.1406 114.973 30.6602C115.133 30.1758 115.359 29.7617 115.652 29.418C115.945 29.0742 116.295 28.8105 116.701 28.627C117.107 28.4434 117.559 28.3516 118.055 28.3516C118.562 28.3516 119.02 28.4434 119.426 28.627C119.832 28.8105 120.182 29.0742 120.475 29.418C120.768 29.7617 120.992 30.1758 121.148 30.6602C121.305 31.1406 121.383 31.6797 121.383 32.2773ZM120.668 33.1914V32.2656C120.668 31.7617 120.609 31.3086 120.492 30.9062C120.379 30.5039 120.209 30.1602 119.982 29.875C119.76 29.5898 119.486 29.3711 119.162 29.2188C118.838 29.0664 118.469 28.9902 118.055 28.9902C117.652 28.9902 117.291 29.0664 116.971 29.2188C116.65 29.3711 116.377 29.5898 116.15 29.875C115.928 30.1602 115.756 30.5039 115.635 30.9062C115.518 31.3086 115.459 31.7617 115.459 32.2656V33.1914C115.459 33.6992 115.518 34.1562 115.635 34.5625C115.756 34.9648 115.93 35.3105 116.156 35.5996C116.383 35.8848 116.656 36.1035 116.977 36.2559C117.301 36.4082 117.664 36.4844 118.066 36.4844C118.484 36.4844 118.854 36.4082 119.174 36.2559C119.494 36.1035 119.766 35.8848 119.988 35.5996C120.211 35.3105 120.379 34.9648 120.492 34.5625C120.609 34.1562 120.668 33.6992 120.668 33.1914ZM126.838 35.3828C126.838 35.2109 126.795 35.041 126.709 34.873C126.623 34.7051 126.457 34.5508 126.211 34.4102C125.969 34.2695 125.611 34.1504 125.139 34.0527C124.787 33.9746 124.473 33.8867 124.195 33.7891C123.922 33.6914 123.691 33.5742 123.504 33.4375C123.316 33.3008 123.174 33.1367 123.076 32.9453C122.979 32.7539 122.93 32.5273 122.93 32.2656C122.93 32.0312 122.98 31.8105 123.082 31.6035C123.188 31.3926 123.336 31.209 123.527 31.0527C123.723 30.8926 123.957 30.7676 124.23 30.6777C124.508 30.5879 124.818 30.543 125.162 30.543C125.65 30.543 126.068 30.627 126.416 30.7949C126.768 30.959 127.035 31.1836 127.219 31.4688C127.406 31.7539 127.5 32.0762 127.5 32.4355H126.803C126.803 32.2168 126.738 32.0098 126.609 31.8145C126.484 31.6191 126.299 31.459 126.053 31.334C125.811 31.209 125.514 31.1465 125.162 31.1465C124.799 31.1465 124.504 31.2012 124.277 31.3105C124.051 31.4199 123.885 31.5586 123.779 31.7266C123.678 31.8945 123.627 32.0684 123.627 32.248C123.627 32.3887 123.648 32.5176 123.691 32.6348C123.738 32.748 123.82 32.8535 123.938 32.9512C124.059 33.0488 124.23 33.1406 124.453 33.2266C124.676 33.3125 124.965 33.3965 125.32 33.4785C125.832 33.5918 126.25 33.7305 126.574 33.8945C126.902 34.0547 127.145 34.2539 127.301 34.4922C127.457 34.7266 127.535 35.0117 127.535 35.3477C127.535 35.6094 127.48 35.8496 127.371 36.0684C127.262 36.2832 127.104 36.4688 126.896 36.625C126.693 36.7812 126.447 36.9023 126.158 36.9883C125.873 37.0742 125.553 37.1172 125.197 37.1172C124.662 37.1172 124.209 37.0293 123.838 36.8535C123.471 36.6738 123.191 36.4395 123 36.1504C122.812 35.8574 122.719 35.5469 122.719 35.2188H123.416C123.439 35.5469 123.543 35.8066 123.727 35.998C123.91 36.1855 124.135 36.3184 124.4 36.3965C124.67 36.4746 124.936 36.5137 125.197 36.5137C125.557 36.5137 125.857 36.4609 126.1 36.3555C126.342 36.25 126.525 36.1113 126.65 35.9395C126.775 35.7676 126.838 35.582 126.838 35.3828ZM124.857 29.6523L125.977 28.0117H126.82L125.467 29.6523H124.857ZM129.82 31.709V37H129.123V30.6602H129.803L129.82 31.709ZM132.064 30.6133L132.047 31.2578C131.969 31.2461 131.893 31.2363 131.818 31.2285C131.744 31.2207 131.664 31.2168 131.578 31.2168C131.273 31.2168 131.006 31.2734 130.775 31.3867C130.549 31.4961 130.357 31.6504 130.201 31.8496C130.045 32.0449 129.926 32.2754 129.844 32.541C129.762 32.8027 129.715 33.084 129.703 33.3848L129.445 33.4844C129.445 33.0703 129.488 32.6855 129.574 32.3301C129.66 31.9746 129.791 31.6641 129.967 31.3984C130.146 31.1289 130.371 30.9199 130.641 30.7715C130.914 30.6191 131.234 30.543 131.602 30.543C131.691 30.543 131.779 30.5508 131.865 30.5664C131.955 30.5781 132.021 30.5938 132.064 30.6133ZM132.662 33.9297V33.7363C132.662 33.2754 132.729 32.8496 132.861 32.459C132.994 32.0684 133.184 31.7305 133.43 31.4453C133.68 31.1602 133.979 30.9395 134.326 30.7832C134.674 30.623 135.061 30.543 135.486 30.543C135.916 30.543 136.305 30.623 136.652 30.7832C137 30.9395 137.299 31.1602 137.549 31.4453C137.799 31.7305 137.99 32.0684 138.123 32.459C138.256 32.8496 138.322 33.2754 138.322 33.7363V33.9297C138.322 34.3906 138.256 34.8164 138.123 35.207C137.99 35.5938 137.799 35.9297 137.549 36.2148C137.303 36.5 137.006 36.7227 136.658 36.8828C136.311 37.0391 135.924 37.1172 135.498 37.1172C135.068 37.1172 134.68 37.0391 134.332 36.8828C133.984 36.7227 133.686 36.5 133.436 36.2148C133.186 35.9297 132.994 35.5938 132.861 35.207C132.729 34.8164 132.662 34.3906 132.662 33.9297ZM133.359 33.7363V33.9297C133.359 34.2773 133.406 34.6074 133.5 34.9199C133.594 35.2285 133.73 35.5039 133.91 35.7461C134.09 35.9844 134.312 36.1719 134.578 36.3086C134.844 36.4453 135.15 36.5137 135.498 36.5137C135.842 36.5137 136.145 36.4453 136.406 36.3086C136.672 36.1719 136.895 35.9844 137.074 35.7461C137.254 35.5039 137.389 35.2285 137.479 34.9199C137.572 34.6074 137.619 34.2773 137.619 33.9297V33.7363C137.619 33.3926 137.572 33.0664 137.479 32.7578C137.389 32.4492 137.252 32.1738 137.068 31.9316C136.889 31.6895 136.666 31.498 136.4 31.3574C136.135 31.2168 135.83 31.1465 135.486 31.1465C135.143 31.1465 134.838 31.2168 134.572 31.3574C134.311 31.498 134.088 31.6895 133.904 31.9316C133.725 32.1738 133.588 32.4492 133.494 32.7578C133.404 33.0664 133.359 33.3926 133.359 33.7363ZM143.895 35.7695V28H144.598V37H143.941L143.895 35.7695ZM139.494 33.8945V33.7715C139.494 33.2793 139.551 32.8359 139.664 32.4414C139.777 32.043 139.939 31.7031 140.15 31.4219C140.365 31.1367 140.623 30.9199 140.924 30.7715C141.225 30.6191 141.564 30.543 141.943 30.543C142.314 30.543 142.643 30.6035 142.928 30.7246C143.213 30.8457 143.457 31.0195 143.66 31.2461C143.867 31.4727 144.033 31.7422 144.158 32.0547C144.287 32.3672 144.381 32.7148 144.439 33.0977V34.6621C144.393 35.0215 144.307 35.3516 144.182 35.6523C144.057 35.9492 143.891 36.209 143.684 36.4316C143.477 36.6504 143.227 36.8203 142.934 36.9414C142.645 37.0586 142.311 37.1172 141.932 37.1172C141.557 37.1172 141.219 37.0391 140.918 36.8828C140.617 36.7266 140.361 36.5059 140.15 36.2207C139.939 35.9316 139.777 35.5898 139.664 35.1953C139.551 34.8008 139.494 34.3672 139.494 33.8945ZM140.197 33.7715V33.8945C140.197 34.2656 140.234 34.6094 140.309 34.9258C140.383 35.2422 140.496 35.5176 140.648 35.752C140.801 35.9863 140.994 36.1699 141.229 36.3027C141.463 36.4355 141.74 36.502 142.061 36.502C142.463 36.502 142.801 36.4258 143.074 36.2734C143.348 36.1172 143.566 35.9121 143.73 35.6582C143.895 35.4004 144.014 35.1191 144.088 34.8145V32.9922C144.041 32.7852 143.973 32.5742 143.883 32.3594C143.793 32.1445 143.67 31.9473 143.514 31.7676C143.361 31.584 143.166 31.4375 142.928 31.3281C142.693 31.2148 142.408 31.1582 142.072 31.1582C141.748 31.1582 141.469 31.2246 141.234 31.3574C141 31.4902 140.805 31.6758 140.648 31.9141C140.496 32.1484 140.383 32.4238 140.309 32.7402C140.234 33.0566 140.197 33.4004 140.197 33.7715ZM148.893 37.1172C148.479 37.1172 148.098 37.041 147.75 36.8887C147.406 36.7363 147.105 36.5215 146.848 36.2441C146.594 35.9668 146.396 35.6387 146.256 35.2598C146.119 34.877 146.051 34.459 146.051 34.0059V33.7539C146.051 33.2656 146.123 32.8242 146.268 32.4297C146.412 32.0352 146.611 31.6973 146.865 31.416C147.119 31.1348 147.408 30.9199 147.732 30.7715C148.061 30.6191 148.404 30.543 148.764 30.543C149.166 30.543 149.523 30.6152 149.836 30.7598C150.148 30.9004 150.41 31.1016 150.621 31.3633C150.836 31.6211 150.998 31.9277 151.107 32.2832C151.217 32.6348 151.271 33.0234 151.271 33.4492V33.877H146.473V33.2793H150.574V33.1973C150.566 32.8418 150.494 32.5098 150.357 32.2012C150.225 31.8887 150.025 31.6348 149.76 31.4395C149.494 31.2441 149.162 31.1465 148.764 31.1465C148.467 31.1465 148.193 31.209 147.943 31.334C147.697 31.459 147.484 31.6387 147.305 31.873C147.129 32.1035 146.992 32.3789 146.895 32.6992C146.801 33.0156 146.754 33.3672 146.754 33.7539V34.0059C146.754 34.3574 146.805 34.6855 146.906 34.9902C147.012 35.291 147.16 35.5566 147.352 35.7871C147.547 36.0176 147.777 36.1973 148.043 36.3262C148.309 36.4551 148.602 36.5195 148.922 36.5195C149.297 36.5195 149.629 36.4512 149.918 36.3145C150.207 36.1738 150.467 35.9531 150.697 35.6523L151.137 35.9922C151 36.1953 150.828 36.3828 150.621 36.5547C150.418 36.7266 150.174 36.8633 149.889 36.9648C149.604 37.0664 149.271 37.1172 148.893 37.1172ZM153.352 28V37H152.654V28H153.352ZM157.33 30.6602L154.365 33.6016L153.105 34.8203L153 34.1348L154.014 33.0391L156.445 30.6602H157.33ZM156.721 37L154.072 33.707L154.459 33.1035L157.564 37H156.721ZM162.352 28.4688V37H161.631V28.4688H162.352ZM167.625 28.4688L163.945 32.377L162.094 34.1992L162.023 33.3965L163.512 31.8496L166.723 28.4688H167.625ZM167.027 37L163.436 32.6172L163.869 32.0371L167.9 37H167.027ZM172.969 35.5352V30.6602H173.672V37H172.998L172.969 35.5352ZM173.098 34.3633L173.461 34.3516C173.461 34.75 173.414 35.1172 173.32 35.4531C173.227 35.7891 173.08 36.082 172.881 36.332C172.682 36.582 172.424 36.7754 172.107 36.9121C171.791 37.0488 171.41 37.1172 170.965 37.1172C170.656 37.1172 170.373 37.0742 170.115 36.9883C169.861 36.8984 169.643 36.7578 169.459 36.5664C169.275 36.375 169.133 36.127 169.031 35.8223C168.934 35.5176 168.885 35.1484 168.885 34.7148V30.6602H169.582V34.7266C169.582 35.0664 169.619 35.3496 169.693 35.5762C169.771 35.8027 169.877 35.9844 170.01 36.1211C170.146 36.2578 170.303 36.3555 170.479 36.4141C170.654 36.4727 170.844 36.502 171.047 36.502C171.562 36.502 171.969 36.4023 172.266 36.2031C172.566 36.0039 172.779 35.7422 172.904 35.418C173.033 35.0898 173.098 34.7383 173.098 34.3633ZM176.285 28V37H175.588V28H176.285ZM180.598 30.6602V31.2344H177.422V30.6602H180.598ZM178.588 29.0312H179.285V35.459C179.285 35.752 179.324 35.9727 179.402 36.1211C179.48 36.2695 179.582 36.3691 179.707 36.4199C179.832 36.4707 179.967 36.4961 180.111 36.4961C180.217 36.4961 180.318 36.4902 180.416 36.4785C180.514 36.4629 180.602 36.4473 180.68 36.4316L180.709 37.0234C180.623 37.0508 180.512 37.0723 180.375 37.0879C180.238 37.1074 180.102 37.1172 179.965 37.1172C179.695 37.1172 179.457 37.0684 179.25 36.9707C179.043 36.8691 178.881 36.6973 178.764 36.4551C178.646 36.209 178.588 35.875 178.588 35.4531V29.0312ZM186.129 35.5352V30.6602H186.832V37H186.158L186.129 35.5352ZM186.258 34.3633L186.621 34.3516C186.621 34.75 186.574 35.1172 186.48 35.4531C186.387 35.7891 186.24 36.082 186.041 36.332C185.842 36.582 185.584 36.7754 185.268 36.9121C184.951 37.0488 184.57 37.1172 184.125 37.1172C183.816 37.1172 183.533 37.0742 183.275 36.9883C183.021 36.8984 182.803 36.7578 182.619 36.5664C182.436 36.375 182.293 36.127 182.191 35.8223C182.094 35.5176 182.045 35.1484 182.045 34.7148V30.6602H182.742V34.7266C182.742 35.0664 182.779 35.3496 182.854 35.5762C182.932 35.8027 183.037 35.9844 183.17 36.1211C183.307 36.2578 183.463 36.3555 183.639 36.4141C183.814 36.4727 184.004 36.502 184.207 36.502C184.723 36.502 185.129 36.4023 185.426 36.2031C185.727 36.0039 185.939 35.7422 186.064 35.418C186.193 35.0898 186.258 34.7383 186.258 34.3633ZM189.363 31.709V37H188.666V30.6602H189.346L189.363 31.709ZM191.607 30.6133L191.59 31.2578C191.512 31.2461 191.436 31.2363 191.361 31.2285C191.287 31.2207 191.207 31.2168 191.121 31.2168C190.816 31.2168 190.549 31.2734 190.318 31.3867C190.092 31.4961 189.9 31.6504 189.744 31.8496C189.588 32.0449 189.469 32.2754 189.387 32.541C189.305 32.8027 189.258 33.084 189.246 33.3848L188.988 33.4844C188.988 33.0703 189.031 32.6855 189.117 32.3301C189.203 31.9746 189.334 31.6641 189.51 31.3984C189.689 31.1289 189.914 30.9199 190.184 30.7715C190.457 30.6191 190.777 30.543 191.145 30.543C191.234 30.543 191.322 30.5508 191.408 30.5664C191.498 30.5781 191.564 30.5938 191.607 30.6133ZM194.695 36.3672L196.67 30.6602H197.426L194.742 38.0195C194.688 38.1641 194.617 38.3242 194.531 38.5C194.449 38.6758 194.34 38.8438 194.203 39.0039C194.07 39.168 193.902 39.3008 193.699 39.4023C193.5 39.5078 193.256 39.5605 192.967 39.5605C192.893 39.5605 192.797 39.5508 192.68 39.5312C192.566 39.5156 192.484 39.5 192.434 39.4844L192.428 38.8926C192.471 38.9043 192.533 38.9141 192.615 38.9219C192.697 38.9297 192.754 38.9336 192.785 38.9336C193.039 38.9336 193.252 38.8906 193.424 38.8047C193.6 38.7188 193.746 38.5898 193.863 38.418C193.98 38.25 194.084 38.0391 194.174 37.7852L194.695 36.3672ZM192.85 30.6602L194.871 36.1035L195.059 36.8359L194.549 37.123L192.088 30.6602H192.85ZM115.488 41.4688V50H115.172V41.4688H115.488ZM120.891 41.4688L117.076 45.3066L115.359 46.8887L115.406 46.4785L116.883 45.0371L120.434 41.4688H120.891ZM120.773 50L116.754 45.4004L116.947 45.125L121.184 50H120.773ZM126.604 48.8105V45.5352C126.604 45.1836 126.527 44.8828 126.375 44.6328C126.227 44.3828 126.008 44.1914 125.719 44.0586C125.434 43.9258 125.084 43.8594 124.67 43.8594C124.287 43.8594 123.941 43.9277 123.633 44.0645C123.328 44.1973 123.086 44.3809 122.906 44.6152C122.73 44.8496 122.643 45.1133 122.643 45.4062L122.326 45.3945C122.326 45.1484 122.383 44.9141 122.496 44.6914C122.613 44.4688 122.775 44.2715 122.982 44.0996C123.193 43.9277 123.441 43.793 123.727 43.6953C124.016 43.5938 124.33 43.543 124.67 43.543C125.111 43.543 125.5 43.6172 125.836 43.7656C126.176 43.9141 126.441 44.1367 126.633 44.4336C126.824 44.7305 126.92 45.1016 126.92 45.5469V48.7227C126.92 48.9492 126.934 49.1777 126.961 49.4082C126.992 49.6387 127.033 49.8184 127.084 49.9473V50H126.721C126.682 49.8477 126.652 49.6641 126.633 49.4492C126.613 49.2305 126.604 49.0176 126.604 48.8105ZM126.744 46.4609L126.756 46.7832H125.104C124.693 46.7832 124.326 46.8242 124.002 46.9062C123.678 46.9844 123.402 47.0957 123.176 47.2402C122.949 47.3848 122.775 47.5566 122.654 47.7559C122.533 47.9551 122.473 48.1758 122.473 48.418C122.473 48.6719 122.541 48.9043 122.678 49.1152C122.818 49.3262 123.012 49.4941 123.258 49.6191C123.504 49.7441 123.787 49.8066 124.107 49.8066C124.553 49.8066 124.947 49.7344 125.291 49.5898C125.635 49.4414 125.926 49.2344 126.164 48.9688C126.402 48.7031 126.584 48.3887 126.709 48.0254L126.85 48.3184C126.775 48.5371 126.664 48.7539 126.516 48.9688C126.371 49.1797 126.186 49.373 125.959 49.5488C125.732 49.7207 125.465 49.8594 125.156 49.9648C124.852 50.0664 124.502 50.1172 124.107 50.1172C123.713 50.1172 123.369 50.0449 123.076 49.9004C122.783 49.752 122.557 49.5488 122.396 49.291C122.236 49.0293 122.156 48.7305 122.156 48.3945C122.156 48.1133 122.223 47.8555 122.355 47.6211C122.488 47.3828 122.68 47.1777 122.93 47.0059C123.184 46.8301 123.492 46.6953 123.855 46.6016C124.219 46.5078 124.629 46.4609 125.086 46.4609H126.744ZM129.223 45.0195V50H128.9V43.6602H129.223V45.0195ZM129.182 46.2852L129.012 45.9512C129.051 45.6387 129.135 45.3398 129.264 45.0547C129.396 44.7656 129.568 44.5078 129.779 44.2812C129.994 44.0547 130.242 43.875 130.523 43.7422C130.809 43.6094 131.123 43.543 131.467 43.543C131.787 43.543 132.072 43.5859 132.322 43.6719C132.576 43.7539 132.789 43.8848 132.961 44.0645C133.137 44.2402 133.27 44.4707 133.359 44.7559C133.453 45.041 133.5 45.3828 133.5 45.7812V50H133.184V45.7812C133.184 45.2734 133.109 44.8809 132.961 44.6035C132.812 44.3262 132.607 44.1328 132.346 44.0234C132.084 43.9102 131.785 43.8535 131.449 43.8535C131.051 43.8535 130.711 43.9434 130.43 44.123C130.148 44.2988 129.918 44.5195 129.738 44.7852C129.559 45.0508 129.424 45.3203 129.334 45.5938C129.244 45.8672 129.193 46.0977 129.182 46.2852ZM133.5 45.7812L133.283 45.5879C133.322 45.3184 133.408 45.0625 133.541 44.8203C133.678 44.5742 133.854 44.3555 134.068 44.1641C134.283 43.9727 134.533 43.8223 134.818 43.7129C135.107 43.5996 135.424 43.543 135.768 43.543C136.088 43.543 136.373 43.5879 136.623 43.6777C136.877 43.7637 137.09 43.9023 137.262 44.0938C137.438 44.2812 137.57 44.5234 137.66 44.8203C137.754 45.1172 137.801 45.4766 137.801 45.8984V50H137.484V45.8984C137.484 45.3594 137.41 44.9414 137.262 44.6445C137.113 44.3477 136.908 44.1406 136.646 44.0234C136.385 43.9062 136.086 43.8496 135.75 43.8535C135.375 43.8574 135.049 43.9277 134.771 44.0645C134.498 44.1973 134.27 44.3652 134.086 44.5684C133.902 44.7715 133.762 44.9824 133.664 45.2012C133.57 45.416 133.516 45.6094 133.5 45.7812ZM140.115 43.6602V50H139.799V43.6602H140.115ZM139.635 41.6797C139.635 41.5898 139.666 41.5137 139.729 41.4512C139.791 41.3848 139.867 41.3516 139.957 41.3516C140.047 41.3516 140.123 41.3848 140.186 41.4512C140.252 41.5137 140.285 41.5898 140.285 41.6797C140.285 41.7695 140.252 41.8457 140.186 41.9082C140.123 41.9707 140.047 42.002 139.957 42.002C139.867 42.002 139.791 41.9707 139.729 41.9082C139.666 41.8457 139.635 41.7695 139.635 41.6797ZM144.475 50.1172C144.088 50.1172 143.727 50.041 143.391 49.8887C143.055 49.7324 142.76 49.5137 142.506 49.2324C142.252 48.9512 142.053 48.6191 141.908 48.2363C141.768 47.8496 141.697 47.4258 141.697 46.9648V46.707C141.697 46.2422 141.766 45.8184 141.902 45.4355C142.043 45.0488 142.234 44.7148 142.477 44.4336C142.723 44.1484 143.006 43.9297 143.326 43.7773C143.646 43.6211 143.99 43.543 144.357 43.543C144.709 43.543 145.031 43.6094 145.324 43.7422C145.617 43.8711 145.871 44.0547 146.086 44.293C146.305 44.5312 146.473 44.8164 146.59 45.1484C146.707 45.4805 146.766 45.8477 146.766 46.25V46.6191H141.902V46.3027H146.449V46.2266C146.449 45.8008 146.363 45.4102 146.191 45.0547C146.02 44.6953 145.777 44.4062 145.465 44.1875C145.152 43.9688 144.783 43.8594 144.357 43.8594C144.006 43.8594 143.686 43.9336 143.396 44.082C143.111 44.2305 142.865 44.4355 142.658 44.6973C142.451 44.9551 142.291 45.2559 142.178 45.5996C142.068 45.9434 142.014 46.3125 142.014 46.707V46.9648C142.014 47.3594 142.076 47.7285 142.201 48.0723C142.326 48.416 142.5 48.7188 142.723 48.9805C142.945 49.2383 143.205 49.4414 143.502 49.5898C143.803 49.7344 144.127 49.8066 144.475 49.8066C144.838 49.8066 145.176 49.7461 145.488 49.625C145.805 49.5039 146.094 49.2734 146.355 48.9336L146.578 49.0918C146.438 49.291 146.268 49.4688 146.068 49.625C145.873 49.7773 145.643 49.8984 145.377 49.9883C145.115 50.0742 144.814 50.1172 144.475 50.1172ZM148.559 45.0137V50H148.242V43.6602H148.559V45.0137ZM148.506 46.2852L148.336 45.9512C148.375 45.6387 148.461 45.3398 148.594 45.0547C148.727 44.7656 148.9 44.5078 149.115 44.2812C149.33 44.0547 149.58 43.875 149.865 43.7422C150.15 43.6094 150.465 43.543 150.809 43.543C151.129 43.543 151.414 43.5879 151.664 43.6777C151.914 43.7637 152.125 43.9023 152.297 44.0938C152.469 44.2812 152.6 44.5234 152.689 44.8203C152.779 45.1172 152.824 45.4766 152.824 45.8984V50H152.508V45.8984C152.508 45.3594 152.434 44.9434 152.285 44.6504C152.141 44.3535 151.939 44.1465 151.682 44.0293C151.424 43.9121 151.127 43.8535 150.791 43.8535C150.393 43.8535 150.051 43.9434 149.766 44.123C149.484 44.2988 149.252 44.5195 149.068 44.7852C148.889 45.0508 148.752 45.3203 148.658 45.5938C148.568 45.8672 148.518 46.0977 148.506 46.2852ZM150.387 42.5762L151.494 41.0176H151.881L150.738 42.5762H150.387ZM158.168 41.4688V50H157.852V41.4688H158.168ZM163.57 41.4688L159.756 45.3066L158.039 46.8887L158.086 46.4785L159.562 45.0371L163.113 41.4688H163.57ZM163.453 50L159.434 45.4004L159.627 45.125L163.863 50H163.453ZM165.621 44.7617V50H165.305V43.6602H165.621V44.7617ZM168.135 43.6074L168.1 43.8887C168.037 43.8809 167.971 43.873 167.9 43.8652C167.834 43.8574 167.764 43.8535 167.689 43.8535C167.334 43.8535 167.021 43.9258 166.752 44.0703C166.486 44.2148 166.264 44.4141 166.084 44.668C165.908 44.9219 165.775 45.2148 165.686 45.5469C165.6 45.875 165.557 46.2266 165.557 46.6016L165.346 46.6191C165.346 46.1738 165.393 45.7637 165.486 45.3887C165.584 45.0137 165.729 44.6895 165.92 44.416C166.115 44.1387 166.359 43.9238 166.652 43.7715C166.949 43.6191 167.295 43.543 167.689 43.543C167.787 43.543 167.873 43.5488 167.947 43.5605C168.021 43.5723 168.084 43.5879 168.135 43.6074ZM173.068 48.8105V45.5352C173.068 45.1836 172.992 44.8828 172.84 44.6328C172.691 44.3828 172.473 44.1914 172.184 44.0586C171.898 43.9258 171.549 43.8594 171.135 43.8594C170.752 43.8594 170.406 43.9277 170.098 44.0645C169.793 44.1973 169.551 44.3809 169.371 44.6152C169.195 44.8496 169.107 45.1133 169.107 45.4062L168.791 45.3945C168.791 45.1484 168.848 44.9141 168.961 44.6914C169.078 44.4688 169.24 44.2715 169.447 44.0996C169.658 43.9277 169.906 43.793 170.191 43.6953C170.48 43.5938 170.795 43.543 171.135 43.543C171.576 43.543 171.965 43.6172 172.301 43.7656C172.641 43.9141 172.906 44.1367 173.098 44.4336C173.289 44.7305 173.385 45.1016 173.385 45.5469V48.7227C173.385 48.9492 173.398 49.1777 173.426 49.4082C173.457 49.6387 173.498 49.8184 173.549 49.9473V50H173.186C173.146 49.8477 173.117 49.6641 173.098 49.4492C173.078 49.2305 173.068 49.0176 173.068 48.8105ZM173.209 46.4609L173.221 46.7832H171.568C171.158 46.7832 170.791 46.8242 170.467 46.9062C170.143 46.9844 169.867 47.0957 169.641 47.2402C169.414 47.3848 169.24 47.5566 169.119 47.7559C168.998 47.9551 168.938 48.1758 168.938 48.418C168.938 48.6719 169.006 48.9043 169.143 49.1152C169.283 49.3262 169.477 49.4941 169.723 49.6191C169.969 49.7441 170.252 49.8066 170.572 49.8066C171.018 49.8066 171.412 49.7344 171.756 49.5898C172.1 49.4414 172.391 49.2344 172.629 48.9688C172.867 48.7031 173.049 48.3887 173.174 48.0254L173.314 48.3184C173.24 48.5371 173.129 48.7539 172.98 48.9688C172.836 49.1797 172.65 49.373 172.424 49.5488C172.197 49.7207 171.93 49.8594 171.621 49.9648C171.316 50.0664 170.967 50.1172 170.572 50.1172C170.178 50.1172 169.834 50.0449 169.541 49.9004C169.248 49.752 169.021 49.5488 168.861 49.291C168.701 49.0293 168.621 48.7305 168.621 48.3945C168.621 48.1133 168.688 47.8555 168.82 47.6211C168.953 47.3828 169.145 47.1777 169.395 47.0059C169.648 46.8301 169.957 46.6953 170.32 46.6016C170.684 46.5078 171.094 46.4609 171.551 46.4609H173.209ZM175.512 43.6602H175.828V50.7559C175.828 51.1426 175.762 51.4707 175.629 51.7402C175.496 52.0098 175.305 52.2129 175.055 52.3496C174.809 52.4902 174.51 52.5605 174.158 52.5605C174.061 52.5605 173.965 52.5508 173.871 52.5312C173.773 52.5117 173.678 52.4824 173.584 52.4434L173.602 52.1387C173.664 52.1621 173.746 52.1855 173.848 52.209C173.945 52.2324 174.049 52.2441 174.158 52.2441C174.447 52.2441 174.691 52.1855 174.891 52.0684C175.094 51.9512 175.248 51.7812 175.354 51.5586C175.459 51.3359 175.512 51.0684 175.512 50.7559V43.6602ZM175.377 41.6797C175.377 41.5898 175.408 41.5137 175.471 41.4512C175.533 41.3848 175.609 41.3516 175.699 41.3516C175.789 41.3516 175.865 41.3848 175.928 41.4512C175.994 41.5137 176.027 41.5898 176.027 41.6797C176.027 41.7695 175.994 41.8457 175.928 41.9082C175.865 41.9707 175.789 42.002 175.699 42.002C175.609 42.002 175.533 41.9707 175.471 41.9082C175.408 41.8457 175.377 41.7695 175.377 41.6797ZM180.322 50.1172C179.936 50.1172 179.574 50.041 179.238 49.8887C178.902 49.7324 178.607 49.5137 178.354 49.2324C178.1 48.9512 177.9 48.6191 177.756 48.2363C177.615 47.8496 177.545 47.4258 177.545 46.9648V46.707C177.545 46.2422 177.613 45.8184 177.75 45.4355C177.891 45.0488 178.082 44.7148 178.324 44.4336C178.57 44.1484 178.854 43.9297 179.174 43.7773C179.494 43.6211 179.838 43.543 180.205 43.543C180.557 43.543 180.879 43.6094 181.172 43.7422C181.465 43.8711 181.719 44.0547 181.934 44.293C182.152 44.5312 182.32 44.8164 182.438 45.1484C182.555 45.4805 182.613 45.8477 182.613 46.25V46.6191H177.75V46.3027H182.297V46.2266C182.297 45.8008 182.211 45.4102 182.039 45.0547C181.867 44.6953 181.625 44.4062 181.312 44.1875C181 43.9688 180.631 43.8594 180.205 43.8594C179.854 43.8594 179.533 43.9336 179.244 44.082C178.959 44.2305 178.713 44.4355 178.506 44.6973C178.299 44.9551 178.139 45.2559 178.025 45.5996C177.916 45.9434 177.861 46.3125 177.861 46.707V46.9648C177.861 47.3594 177.924 47.7285 178.049 48.0723C178.174 48.416 178.348 48.7188 178.57 48.9805C178.793 49.2383 179.053 49.4414 179.35 49.5898C179.65 49.7344 179.975 49.8066 180.322 49.8066C180.686 49.8066 181.023 49.7461 181.336 49.625C181.652 49.5039 181.941 49.2734 182.203 48.9336L182.426 49.0918C182.285 49.291 182.115 49.4688 181.916 49.625C181.721 49.7773 181.49 49.8984 181.225 49.9883C180.963 50.0742 180.662 50.1172 180.322 50.1172ZM184.406 45.0137V50H184.09V43.6602H184.406V45.0137ZM184.354 46.2852L184.184 45.9512C184.223 45.6387 184.309 45.3398 184.441 45.0547C184.574 44.7656 184.748 44.5078 184.963 44.2812C185.178 44.0547 185.428 43.875 185.713 43.7422C185.998 43.6094 186.312 43.543 186.656 43.543C186.977 43.543 187.262 43.5879 187.512 43.6777C187.762 43.7637 187.973 43.9023 188.145 44.0938C188.316 44.2812 188.447 44.5234 188.537 44.8203C188.627 45.1172 188.672 45.4766 188.672 45.8984V50H188.355V45.8984C188.355 45.3594 188.281 44.9434 188.133 44.6504C187.988 44.3535 187.787 44.1465 187.529 44.0293C187.271 43.9121 186.975 43.8535 186.639 43.8535C186.24 43.8535 185.898 43.9434 185.613 44.123C185.332 44.2988 185.1 44.5195 184.916 44.7852C184.736 45.0508 184.6 45.3203 184.506 45.5938C184.416 45.8672 184.365 46.0977 184.354 46.2852ZM186.234 42.5762L187.342 41.0176H187.729L186.586 42.5762H186.234ZM194.572 48.4473C194.572 48.2559 194.52 48.0625 194.414 47.8672C194.309 47.668 194.117 47.4824 193.84 47.3105C193.562 47.1387 193.162 46.9961 192.639 46.8828C192.283 46.8047 191.971 46.7188 191.701 46.625C191.436 46.5312 191.213 46.4199 191.033 46.291C190.854 46.1582 190.719 45.998 190.629 45.8105C190.539 45.623 190.494 45.4004 190.494 45.1426C190.494 44.9199 190.541 44.7129 190.635 44.5215C190.732 44.3262 190.873 44.1562 191.057 44.0117C191.24 43.8633 191.463 43.748 191.725 43.666C191.986 43.584 192.283 43.543 192.615 43.543C193.088 43.543 193.492 43.6191 193.828 43.7715C194.168 43.9238 194.428 44.1367 194.607 44.4102C194.791 44.6797 194.883 44.9941 194.883 45.3535H194.561C194.561 45.0918 194.484 44.8477 194.332 44.6211C194.184 44.3945 193.965 44.2109 193.676 44.0703C193.387 43.9297 193.033 43.8594 192.615 43.8594C192.189 43.8594 191.844 43.9238 191.578 44.0527C191.312 44.1816 191.117 44.3438 190.992 44.5391C190.871 44.7344 190.811 44.9316 190.811 45.1309C190.811 45.2949 190.834 45.4473 190.881 45.5879C190.928 45.7246 191.018 45.8535 191.15 45.9746C191.287 46.0918 191.482 46.2031 191.736 46.3086C191.99 46.4141 192.322 46.5137 192.732 46.6074C193.236 46.7207 193.646 46.8574 193.963 47.0176C194.279 47.1777 194.512 47.375 194.66 47.6094C194.812 47.8398 194.889 48.1211 194.889 48.4531C194.889 48.6992 194.836 48.9238 194.73 49.127C194.629 49.3301 194.48 49.5059 194.285 49.6543C194.094 49.8027 193.859 49.918 193.582 50C193.309 50.0781 193.002 50.1172 192.662 50.1172C192.15 50.1172 191.717 50.0391 191.361 49.8828C191.01 49.7227 190.742 49.5117 190.559 49.25C190.379 48.9844 190.289 48.6973 190.289 48.3887H190.605C190.633 48.752 190.752 49.0371 190.963 49.2441C191.178 49.4473 191.438 49.5918 191.742 49.6777C192.051 49.7598 192.357 49.8008 192.662 49.8008C193.08 49.8008 193.43 49.7344 193.711 49.6016C193.996 49.4688 194.211 49.2988 194.355 49.0918C194.5 48.8809 194.572 48.666 194.572 48.4473ZM196.957 41V50H196.641V41H196.957ZM201.035 43.6602L197.877 46.584L196.898 47.4219L196.781 47.1934L197.701 46.3262L200.584 43.6602H201.035ZM200.807 50L197.777 46.4375L197.982 46.1914L201.217 50H200.807ZM202.717 43.6602V50H202.4V43.6602H202.717ZM202.236 41.6797C202.236 41.5898 202.268 41.5137 202.33 41.4512C202.393 41.3848 202.469 41.3516 202.559 41.3516C202.648 41.3516 202.725 41.3848 202.787 41.4512C202.854 41.5137 202.887 41.5898 202.887 41.6797C202.887 41.7695 202.854 41.8457 202.787 41.9082C202.725 41.9707 202.648 42.002 202.559 42.002C202.469 42.002 202.393 41.9707 202.33 41.9082C202.268 41.8457 202.236 41.7695 202.236 41.6797Z" fill="#14335C"/>
<defs>
<clipPath id="clip0_537_36452">
<rect width="78" height="39" fill="white" transform="translate(24 13.5)"/>
</clipPath>
</defs>
</svg>
