<svg width="168" height="63" viewBox="0 0 168 63" fill="none" xmlns="http://www.w3.org/2000/svg">
<g clip-path="url(#clip0_825_652)">
<path d="M13.1611 12.062C12.4602 12.6095 11.7301 13.111 11.0547 13.6876C8.7436 15.6616 7.12582 18.1108 5.98914 20.8981C4.36664 24.8772 4.1327 29.028 4.5204 33.2381C4.82698 36.5644 5.88914 39.6626 7.68615 42.4874C9.02659 44.5957 10.7745 46.3256 12.864 47.7089C12.9526 47.7671 13.0706 47.7925 13.1083 47.9681C12.531 47.9813 12.0112 47.7643 11.4915 47.615C7.09941 46.3547 3.90536 43.6632 1.93951 39.5593C0.918846 37.4284 0.37267 35.1689 0.139672 32.8136C-0.110305 30.2893 -0.0301234 27.7865 0.414175 25.2988C0.975445 22.1547 2.19797 19.2829 4.29967 16.8496C6.25232 14.5901 8.73322 13.1241 11.6273 12.3475C12.1263 12.2132 12.6272 12.1015 13.1611 12.062Z" fill="#00A2DD"/>
<path d="M23.5401 12.0891C24.1438 12.0544 24.69 12.2572 25.2324 12.415C29.8093 13.7504 33.009 16.6476 34.9145 20.975C36.5163 24.6132 36.8445 28.4372 36.5464 32.3524C36.3587 34.8204 35.8333 37.201 34.756 39.4399C33.1722 42.7306 30.8498 45.2849 27.4209 46.7603C26.1681 47.2993 24.8994 47.7445 23.4307 47.9933C23.958 47.6111 24.39 47.3069 24.8126 46.9904C27.8237 44.729 29.7971 41.7248 31.0469 38.2294C32.1308 35.2007 32.4081 32.0528 32.2987 28.8598C32.1714 25.1503 31.3177 21.6362 29.4716 18.3868C28.0236 15.839 26.0842 13.7523 23.591 12.1868C23.5722 12.1755 23.5674 12.1427 23.5401 12.0901V12.0891Z" fill="#14335C"/>
<path d="M43.2847 39.3216C43.2847 36.6038 43.2913 33.8869 43.2772 31.1691C43.2753 30.8151 43.3432 30.6845 43.7347 30.7005C44.612 30.7353 45.4911 30.709 46.3694 30.7127C47.1825 30.7155 47.7022 31.2104 47.7032 32.0171C47.7079 37.202 47.7032 42.3868 47.7089 47.5717C47.7089 47.875 47.6607 48.0084 47.3023 47.9999C46.142 47.9727 44.9808 47.9736 43.8205 47.9971C43.4149 48.0056 43.2668 47.9286 43.2706 47.474C43.296 44.7572 43.2828 42.0394 43.2838 39.3225L43.2847 39.3216Z" fill="#14335C"/>
<path d="M43.2839 20.1994C43.2839 17.6365 43.2905 15.0737 43.2764 12.5108C43.2745 12.138 43.3547 11.9915 43.7641 12.0009C44.9253 12.0272 46.0875 12.0216 47.2487 12.0028C47.5836 11.9972 47.7147 12.0648 47.7137 12.4348C47.7024 17.3266 47.71 22.2175 47.7062 27.1094C47.7062 27.9161 47.1855 28.41 46.3686 28.4119C45.5054 28.4147 44.6414 28.3922 43.7782 28.4223C43.3896 28.4354 43.2745 28.3349 43.2773 27.9358C43.2962 25.357 43.2868 22.7791 43.2868 20.2003H43.283L43.2839 20.1994Z" fill="#00A2DD"/>
<path d="M51.5981 30.7063C52.6292 30.7072 53.5499 30.6509 54.4705 30.7776C55.4695 30.9157 56.094 31.6041 56.7401 32.2624C61.0756 36.68 65.4101 41.0976 69.7418 45.5189C70.5058 46.2993 71.2539 47.0957 72 47.8733C71.9614 48.0414 71.8444 47.985 71.7652 47.985C70.6662 47.9907 69.5673 47.9803 68.4692 47.9982C68.1825 48.0029 68.0466 47.8235 67.8882 47.6591C64.6988 44.3497 61.5123 41.0375 58.3239 37.7261C56.209 35.5295 54.0913 33.3348 51.9764 31.1383C51.8689 31.0265 51.7727 30.9054 51.5991 30.7053L51.5981 30.7063Z" fill="#00A4DA"/>
<path d="M51.5913 28.411C52.2884 27.6804 52.9063 27.0277 53.5289 26.3806C58.0077 21.7245 62.4903 17.0712 66.9607 12.4066C67.2455 12.1089 67.5295 11.9915 67.937 12.0018C69.0029 12.0281 70.0689 12.0112 71.1348 12.0112C71.2065 12.1568 71.082 12.2094 71.0122 12.2808C66.1088 17.2891 61.2027 22.2955 56.3031 27.3075C55.5721 28.0551 54.7108 28.4392 53.659 28.4147C53.0082 28.3988 52.3573 28.4119 51.5923 28.4119L51.5913 28.411Z" fill="#14335D"/>
<path d="M17.3627 38.3037C17.3485 38.0793 17.2712 37.9384 17.0023 37.9347C16.8212 37.9318 16.6326 37.8736 16.4788 37.7121C16.6137 37.4754 16.8712 37.3693 17.0665 37.2012C17.5787 36.7589 17.8956 36.1954 18.1475 35.585C18.2126 35.4272 18.19 35.2873 18.1371 35.1342C18.0541 34.8966 17.9428 34.8168 17.7475 35.029C17.3957 35.4122 17.0184 35.3455 16.5882 35.0985C16.9174 34.7924 17.2731 34.5604 17.5032 34.2007C17.6155 34.0261 17.7325 33.873 17.64 33.6457C16.9533 31.9563 16.1335 30.3551 14.6459 29.2028C14.1762 28.8384 13.6621 28.5407 13.1338 28.2693C12.6942 28.043 12.6895 28.0026 13.1065 27.7143C14.0168 27.0851 14.9884 26.7301 16.1071 27.101C16.1949 27.1302 16.2873 27.163 16.3788 27.1067C16.809 27.5058 17.2297 27.9021 17.5523 28.4083C17.9202 28.9849 18.0956 29.6291 18.3116 30.2762C18.3692 30.232 18.4069 30.218 18.4116 30.1973C18.6729 29.0497 19.1578 28.0317 20.1237 27.2992C20.2596 27.1968 20.2237 27.0484 20.2709 26.9226C20.3067 27.117 20.402 27.163 20.5992 27.0992C21.7396 26.7301 22.7169 27.1311 23.6329 27.7706C23.8932 27.9528 23.9366 28.0937 23.5725 28.259C21.2359 29.322 19.9483 31.2801 19.0512 33.5668C18.9569 33.8082 19.0248 33.9979 19.1804 34.166C19.4549 34.4609 19.7426 34.7445 20.0238 35.0319C19.503 35.3944 19.2502 35.3465 18.7078 34.7539C18.5003 35.0525 18.4041 35.3352 18.5597 35.6958C18.8427 36.3504 19.1965 36.9392 19.7926 37.3637C19.9247 37.4576 20.1671 37.5412 20.1369 37.7065C20.1011 37.9018 19.8436 37.9347 19.6691 37.9337C19.3653 37.9328 19.3087 38.1046 19.2917 38.3404C19.3002 38.1262 19.2682 37.945 19.0097 37.8802C18.8371 37.837 18.7107 37.7083 18.6229 37.5562C18.4456 37.2463 18.2711 37.1496 18.0636 37.5327C17.9721 37.7018 17.8315 37.8398 17.6419 37.8839C17.4013 37.9412 17.3806 38.1168 17.3627 38.3056V38.3037Z" fill="#00A2DD"/>
<path d="M20.269 26.9187C20.2228 27.0445 20.2577 27.192 20.1218 27.2953C19.1559 28.0287 18.671 29.0458 18.4097 30.1934C18.405 30.2141 18.3673 30.2281 18.3097 30.2723C18.0937 29.6252 17.9183 28.981 17.5504 28.4044C17.2277 27.8982 16.807 27.5019 16.3769 27.1028C16.3505 25.3908 16.9014 23.8929 18.0267 22.5941C18.255 22.3311 18.3833 22.2936 18.6276 22.5838C19.5511 23.6806 20.1237 24.9165 20.2435 26.3496C20.2407 26.359 20.2331 26.3703 20.235 26.3797C20.2388 26.4003 20.2473 26.42 20.2529 26.4407C20.2577 26.6003 20.2633 26.7591 20.268 26.9187H20.269Z" fill="#14335C"/>
<path d="M17.3628 38.3037C17.3807 38.115 17.4015 37.9384 17.642 37.8821C17.8316 37.837 17.9722 37.6999 18.0637 37.5309C18.2712 37.1477 18.4448 37.2444 18.6231 37.5543C18.7108 37.7065 18.8372 37.8351 19.0098 37.8783C19.2673 37.9431 19.3004 38.1244 19.2919 38.3385C19.2758 39.0842 19.0032 39.7303 18.5429 40.3125C18.3797 40.5191 18.2891 40.5097 18.1212 40.3106C17.7156 39.8289 17.475 39.2842 17.3883 38.6672V38.6775C17.3798 38.5536 17.3713 38.4287 17.3628 38.3047V38.3037Z" fill="#14335C"/>
<path d="M20.2536 26.4417C20.247 26.421 20.2395 26.4013 20.2357 26.3806C20.2338 26.3712 20.2404 26.36 20.2442 26.3506C20.2536 26.3741 20.264 26.3947 20.2706 26.4173C20.2725 26.4229 20.2602 26.4332 20.2545 26.4407L20.2536 26.4417Z" fill="#1B1B1B"/>
<path d="M17.388 38.6766L17.3871 38.6653L17.355 38.6737L17.388 38.6766Z" fill="#1B1B1B"/>
</g>
<path d="M92.316 14.432H92.712V23H92.472V14.732H92.448L88.812 23H88.548L84.912 14.732H84.888V23H84.648V14.432H85.044L88.668 22.688H88.692L92.316 14.432ZM94.2633 15.644H94.0233V14.432H94.2633V15.644ZM94.2633 23H94.0233V16.832H94.2633V23ZM95.4619 19.964C95.4699 20.38 95.5179 20.768 95.6059 21.128C95.7019 21.48 95.8459 21.788 96.0379 22.052C96.2299 22.316 96.4779 22.524 96.7819 22.676C97.0859 22.828 97.4579 22.904 97.8979 22.904C98.5459 22.904 99.0819 22.736 99.5059 22.4C99.9379 22.056 100.206 21.544 100.31 20.864H100.55C100.462 21.584 100.178 22.144 99.6979 22.544C99.2179 22.936 98.6259 23.132 97.9219 23.132C97.4419 23.14 97.0299 23.064 96.6859 22.904C96.3499 22.744 96.0739 22.52 95.8579 22.232C95.6419 21.936 95.4819 21.592 95.3779 21.2C95.2739 20.8 95.2219 20.372 95.2219 19.916C95.2219 19.404 95.2979 18.948 95.4499 18.548C95.6019 18.148 95.8019 17.812 96.0499 17.54C96.2979 17.26 96.5859 17.048 96.9139 16.904C97.2419 16.76 97.5779 16.688 97.9219 16.688C98.4019 16.688 98.8139 16.78 99.1579 16.964C99.5099 17.148 99.7939 17.392 100.01 17.696C100.234 18 100.394 18.348 100.49 18.74C100.594 19.132 100.638 19.54 100.622 19.964H95.4619ZM100.382 19.724C100.382 19.348 100.33 18.992 100.226 18.656C100.122 18.312 99.9659 18.012 99.7579 17.756C99.5579 17.5 99.3059 17.3 99.0019 17.156C98.6979 17.004 98.3459 16.928 97.9459 16.928C97.6099 16.928 97.2939 16.992 96.9979 17.12C96.7099 17.248 96.4539 17.436 96.2299 17.684C96.0139 17.924 95.8379 18.216 95.7019 18.56C95.5659 18.904 95.4859 19.292 95.4619 19.724H100.382ZM101.822 15.644H101.582V14.432H101.822V15.644ZM101.822 23.888C101.822 24.168 101.79 24.388 101.726 24.548C101.662 24.716 101.566 24.84 101.438 24.92C101.31 25.008 101.154 25.06 100.97 25.076C100.786 25.1 100.578 25.112 100.346 25.112V24.872C100.57 24.872 100.762 24.864 100.922 24.848C101.082 24.832 101.21 24.788 101.306 24.716C101.402 24.652 101.47 24.548 101.51 24.404C101.558 24.26 101.582 24.06 101.582 23.804V16.832H101.822V23.888ZM107.16 18.656C107.16 18.344 107.112 18.08 107.016 17.864C106.92 17.648 106.784 17.472 106.608 17.336C106.432 17.192 106.22 17.088 105.972 17.024C105.732 16.96 105.464 16.928 105.168 16.928C104.736 16.928 104.396 16.988 104.148 17.108C103.9 17.22 103.716 17.352 103.596 17.504C103.476 17.648 103.4 17.792 103.368 17.936C103.336 18.08 103.32 18.18 103.32 18.236C103.32 18.54 103.38 18.776 103.5 18.944C103.628 19.104 103.796 19.228 104.004 19.316C104.22 19.404 104.452 19.48 104.7 19.544C104.956 19.608 105.252 19.684 105.588 19.772C105.828 19.836 106.064 19.904 106.296 19.976C106.536 20.04 106.748 20.132 106.932 20.252C107.124 20.372 107.276 20.524 107.388 20.708C107.508 20.892 107.568 21.132 107.568 21.428C107.568 21.74 107.5 22.004 107.364 22.22C107.236 22.436 107.064 22.612 106.848 22.748C106.64 22.884 106.4 22.98 106.128 23.036C105.864 23.1 105.6 23.132 105.336 23.132C104.512 23.132 103.888 22.952 103.464 22.592C103.048 22.232 102.84 21.664 102.84 20.888H103.08C103.08 21.584 103.272 22.096 103.656 22.424C104.048 22.744 104.608 22.904 105.336 22.904C105.56 22.904 105.788 22.88 106.02 22.832C106.26 22.776 106.476 22.692 106.668 22.58C106.86 22.46 107.016 22.308 107.136 22.124C107.264 21.94 107.328 21.716 107.328 21.452C107.328 21.18 107.264 20.96 107.136 20.792C107.016 20.624 106.856 20.488 106.656 20.384C106.464 20.272 106.24 20.184 105.984 20.12C105.728 20.056 105.468 19.992 105.204 19.928C104.908 19.856 104.648 19.788 104.424 19.724C104.2 19.66 104 19.588 103.824 19.508C103.568 19.396 103.38 19.24 103.26 19.04C103.14 18.84 103.08 18.572 103.08 18.236C103.08 18.068 103.116 17.892 103.188 17.708C103.26 17.524 103.38 17.356 103.548 17.204C103.716 17.052 103.932 16.928 104.196 16.832C104.46 16.736 104.784 16.688 105.168 16.688C105.856 16.688 106.4 16.844 106.8 17.156C107.2 17.468 107.4 17.968 107.4 18.656H107.16ZM108.935 20.672V23H108.695V14.432H108.935V20.372L113.195 16.832H113.543L110.711 19.184L113.747 23H113.423L110.531 19.352L108.935 20.672ZM113.943 19.916C113.943 20.308 113.995 20.684 114.099 21.044C114.211 21.404 114.375 21.724 114.591 22.004C114.807 22.276 115.071 22.496 115.383 22.664C115.703 22.824 116.071 22.904 116.487 22.904C116.895 22.904 117.255 22.824 117.567 22.664C117.887 22.496 118.155 22.276 118.371 22.004C118.587 21.724 118.747 21.404 118.851 21.044C118.963 20.684 119.019 20.308 119.019 19.916C119.019 19.532 118.963 19.16 118.851 18.8C118.747 18.44 118.587 18.124 118.371 17.852C118.155 17.572 117.887 17.348 117.567 17.18C117.255 17.012 116.895 16.928 116.487 16.928C116.071 16.928 115.703 17.012 115.383 17.18C115.071 17.348 114.807 17.572 114.591 17.852C114.375 18.124 114.211 18.44 114.099 18.8C113.995 19.16 113.943 19.532 113.943 19.916ZM113.703 19.916C113.703 19.492 113.763 19.088 113.883 18.704C114.003 18.312 114.179 17.968 114.411 17.672C114.651 17.376 114.943 17.14 115.287 16.964C115.631 16.78 116.031 16.688 116.487 16.688C116.935 16.688 117.331 16.78 117.675 16.964C118.019 17.14 118.307 17.376 118.539 17.672C118.779 17.968 118.959 18.312 119.079 18.704C119.199 19.088 119.259 19.492 119.259 19.916C119.259 20.34 119.199 20.748 119.079 21.14C118.959 21.524 118.779 21.864 118.539 22.16C118.307 22.456 118.019 22.692 117.675 22.868C117.331 23.044 116.931 23.132 116.475 23.132C116.027 23.132 115.631 23.044 115.287 22.868C114.943 22.692 114.651 22.456 114.411 22.16C114.179 21.864 114.003 21.524 113.883 21.14C113.763 20.748 113.703 20.34 113.703 19.916ZM120.538 19.664H122.638V19.904H120.538V19.664ZM128.11 19.232V18.992H131.674V23H131.434V20.876H131.41C131.178 21.604 130.762 22.172 130.162 22.58C129.562 22.988 128.838 23.192 127.99 23.192C127.334 23.192 126.754 23.076 126.25 22.844C125.746 22.604 125.326 22.284 124.99 21.884C124.654 21.476 124.398 21 124.222 20.456C124.054 19.912 123.97 19.332 123.97 18.716C123.97 18.092 124.062 17.508 124.246 16.964C124.43 16.412 124.694 15.936 125.038 15.536C125.382 15.128 125.802 14.808 126.298 14.576C126.794 14.344 127.358 14.228 127.99 14.228C128.47 14.228 128.91 14.296 129.31 14.432C129.718 14.568 130.074 14.764 130.378 15.02C130.69 15.268 130.942 15.568 131.134 15.92C131.334 16.272 131.47 16.668 131.542 17.108H131.302C131.23 16.708 131.098 16.348 130.906 16.028C130.722 15.7 130.486 15.42 130.198 15.188C129.918 14.956 129.59 14.78 129.214 14.66C128.846 14.532 128.438 14.468 127.99 14.468C127.39 14.468 126.854 14.58 126.382 14.804C125.918 15.028 125.522 15.332 125.194 15.716C124.874 16.1 124.63 16.552 124.462 17.072C124.294 17.584 124.21 18.132 124.21 18.716C124.21 19.3 124.29 19.852 124.45 20.372C124.61 20.884 124.85 21.332 125.17 21.716C125.49 22.1 125.886 22.404 126.358 22.628C126.838 22.852 127.394 22.964 128.026 22.964C128.498 22.964 128.942 22.884 129.358 22.724C129.774 22.556 130.134 22.328 130.438 22.04C130.75 21.744 130.994 21.396 131.17 20.996C131.346 20.588 131.434 20.148 131.434 19.676V19.232H128.11ZM132.906 16.832H133.146V18.356H133.17C133.226 18.116 133.314 17.896 133.434 17.696C133.554 17.496 133.702 17.32 133.878 17.168C134.054 17.016 134.246 16.9 134.454 16.82C134.67 16.732 134.898 16.688 135.138 16.688C135.618 16.672 136.018 16.796 136.338 17.06C136.666 17.316 136.882 17.672 136.986 18.128H137.01C137.13 17.696 137.366 17.348 137.718 17.084C138.07 16.82 138.486 16.688 138.966 16.688C139.342 16.688 139.654 16.744 139.902 16.856C140.15 16.968 140.35 17.124 140.502 17.324C140.654 17.516 140.762 17.752 140.826 18.032C140.89 18.304 140.922 18.608 140.922 18.944V23H140.682V18.944C140.682 18.64 140.654 18.364 140.598 18.116C140.55 17.868 140.458 17.656 140.322 17.48C140.194 17.304 140.018 17.168 139.794 17.072C139.578 16.976 139.302 16.928 138.966 16.928C138.67 16.928 138.402 16.988 138.162 17.108C137.922 17.22 137.718 17.376 137.55 17.576C137.382 17.776 137.254 18.008 137.166 18.272C137.078 18.528 137.034 18.8 137.034 19.088V23H136.794V19.04C136.794 18.752 136.77 18.48 136.722 18.224C136.682 17.968 136.602 17.744 136.482 17.552C136.362 17.36 136.194 17.208 135.978 17.096C135.762 16.984 135.482 16.928 135.138 16.928C134.834 16.928 134.558 17 134.31 17.144C134.062 17.28 133.85 17.468 133.674 17.708C133.506 17.94 133.374 18.212 133.278 18.524C133.19 18.836 133.146 19.164 133.146 19.508V23H132.906V16.832ZM142.486 15.644H142.246V14.432H142.486V15.644ZM142.486 23H142.246V16.832H142.486V23ZM143.805 16.832H144.045V18.356H144.069C144.125 18.116 144.213 17.896 144.333 17.696C144.461 17.496 144.617 17.32 144.801 17.168C144.993 17.016 145.213 16.9 145.461 16.82C145.709 16.732 145.985 16.688 146.289 16.688C146.609 16.688 146.901 16.736 147.165 16.832C147.437 16.928 147.669 17.072 147.861 17.264C148.061 17.448 148.213 17.68 148.317 17.96C148.429 18.232 148.485 18.548 148.485 18.908V23H148.245V18.944C148.245 18.584 148.193 18.28 148.089 18.032C147.985 17.776 147.841 17.568 147.657 17.408C147.481 17.24 147.273 17.12 147.033 17.048C146.801 16.968 146.553 16.928 146.289 16.928C145.921 16.928 145.597 17 145.317 17.144C145.037 17.28 144.801 17.468 144.609 17.708C144.425 17.94 144.285 18.212 144.189 18.524C144.093 18.836 144.045 19.164 144.045 19.508V23H143.805V16.832ZM149.805 16.832H150.045V18.356H150.069C150.125 18.116 150.213 17.896 150.333 17.696C150.461 17.496 150.617 17.32 150.801 17.168C150.993 17.016 151.213 16.9 151.461 16.82C151.709 16.732 151.985 16.688 152.289 16.688C152.609 16.688 152.901 16.736 153.165 16.832C153.437 16.928 153.669 17.072 153.861 17.264C154.061 17.448 154.213 17.68 154.317 17.96C154.429 18.232 154.485 18.548 154.485 18.908V23H154.245V18.944C154.245 18.584 154.193 18.28 154.089 18.032C153.985 17.776 153.841 17.568 153.657 17.408C153.481 17.24 153.273 17.12 153.033 17.048C152.801 16.968 152.553 16.928 152.289 16.928C151.921 16.928 151.597 17 151.317 17.144C151.037 17.28 150.801 17.468 150.609 17.708C150.425 17.94 150.285 18.212 150.189 18.524C150.093 18.836 150.045 19.164 150.045 19.508V23H149.805V16.832ZM159.921 16.832H160.173L157.329 24.248C157.249 24.456 157.153 24.616 157.041 24.728C156.929 24.848 156.805 24.936 156.669 24.992C156.533 25.048 156.381 25.08 156.213 25.088C156.053 25.104 155.881 25.112 155.697 25.112V24.872C155.905 24.872 156.081 24.864 156.225 24.848C156.377 24.84 156.505 24.808 156.609 24.752C156.721 24.704 156.817 24.624 156.897 24.512C156.985 24.408 157.065 24.264 157.137 24.08L157.581 22.94L155.013 16.832H155.265L157.713 22.676L159.921 16.832ZM85.224 31.716C85.224 32.18 85.284 32.64 85.404 33.096C85.532 33.544 85.724 33.948 85.98 34.308C86.244 34.66 86.58 34.944 86.988 35.16C87.396 35.376 87.884 35.484 88.452 35.484C89.02 35.484 89.504 35.376 89.904 35.16C90.312 34.944 90.644 34.66 90.9 34.308C91.164 33.948 91.356 33.544 91.476 33.096C91.604 32.64 91.668 32.18 91.668 31.716C91.668 31.244 91.604 30.784 91.476 30.336C91.356 29.888 91.164 29.488 90.9 29.136C90.644 28.776 90.312 28.488 89.904 28.272C89.504 28.056 89.02 27.948 88.452 27.948C87.884 27.948 87.396 28.056 86.988 28.272C86.58 28.488 86.244 28.776 85.98 29.136C85.724 29.488 85.532 29.888 85.404 30.336C85.284 30.784 85.224 31.244 85.224 31.716ZM84.408 31.716C84.408 31.124 84.492 30.56 84.66 30.024C84.828 29.488 85.08 29.016 85.416 28.608C85.752 28.192 86.172 27.864 86.676 27.624C87.188 27.376 87.78 27.252 88.452 27.252C89.124 27.252 89.712 27.376 90.216 27.624C90.72 27.864 91.14 28.192 91.476 28.608C91.812 29.016 92.064 29.488 92.232 30.024C92.4 30.56 92.484 31.124 92.484 31.716C92.484 32.308 92.4 32.872 92.232 33.408C92.064 33.944 91.812 34.416 91.476 34.824C91.14 35.232 90.72 35.56 90.216 35.808C89.712 36.048 89.124 36.168 88.452 36.168C87.78 36.168 87.188 36.048 86.676 35.808C86.172 35.56 85.752 35.232 85.416 34.824C85.08 34.416 84.828 33.944 84.66 33.408C84.492 32.872 84.408 32.308 84.408 31.716ZM97.3225 31.62C97.3145 31.388 97.2665 31.188 97.1785 31.02C97.0905 30.844 96.9705 30.7 96.8185 30.588C96.6745 30.476 96.5065 30.396 96.3145 30.348C96.1225 30.292 95.9185 30.264 95.7025 30.264C95.5345 30.264 95.3625 30.284 95.1865 30.324C95.0185 30.356 94.8625 30.416 94.7185 30.504C94.5745 30.584 94.4585 30.692 94.3705 30.828C94.2825 30.964 94.2385 31.132 94.2385 31.332C94.2385 31.5 94.2785 31.644 94.3585 31.764C94.4465 31.876 94.5545 31.972 94.6825 32.052C94.8105 32.132 94.9505 32.2 95.1025 32.256C95.2545 32.304 95.3945 32.344 95.5225 32.376L96.5305 32.604C96.7465 32.636 96.9585 32.696 97.1665 32.784C97.3825 32.864 97.5705 32.972 97.7305 33.108C97.8985 33.244 98.0345 33.412 98.1385 33.612C98.2425 33.812 98.2945 34.048 98.2945 34.32C98.2945 34.656 98.2185 34.944 98.0665 35.184C97.9145 35.416 97.7185 35.608 97.4785 35.76C97.2465 35.904 96.9825 36.008 96.6865 36.072C96.3905 36.136 96.0985 36.168 95.8105 36.168C95.0825 36.168 94.4905 35.996 94.0345 35.652C93.5865 35.308 93.3305 34.756 93.2665 33.996H94.0225C94.0545 34.508 94.2385 34.896 94.5745 35.16C94.9185 35.416 95.3425 35.544 95.8465 35.544C96.0305 35.544 96.2185 35.524 96.4105 35.484C96.6105 35.444 96.7945 35.376 96.9625 35.28C97.1305 35.184 97.2665 35.064 97.3705 34.92C97.4825 34.768 97.5385 34.584 97.5385 34.368C97.5385 34.184 97.4985 34.032 97.4185 33.912C97.3465 33.784 97.2465 33.68 97.1185 33.6C96.9905 33.512 96.8425 33.44 96.6745 33.384C96.5145 33.328 96.3505 33.28 96.1825 33.24L95.2105 33.024C94.9625 32.96 94.7345 32.888 94.5265 32.808C94.3185 32.72 94.1345 32.616 93.9745 32.496C93.8225 32.368 93.7025 32.216 93.6145 32.04C93.5265 31.856 93.4825 31.632 93.4825 31.368C93.4825 31.056 93.5505 30.788 93.6865 30.564C93.8305 30.34 94.0145 30.16 94.2385 30.024C94.4625 29.888 94.7105 29.788 94.9825 29.724C95.2625 29.66 95.5385 29.628 95.8105 29.628C96.1225 29.628 96.4105 29.668 96.6745 29.748C96.9465 29.828 97.1825 29.952 97.3825 30.12C97.5905 30.288 97.7545 30.496 97.8745 30.744C97.9945 30.992 98.0625 31.284 98.0785 31.62H97.3225ZM95.1625 28.944L96.4225 27.252H97.3585L95.7745 28.944H95.1625ZM99.3919 29.808H100.088V31.26H100.112C100.304 30.756 100.6 30.368 101 30.096C101.408 29.824 101.892 29.7 102.452 29.724V30.48C102.108 30.464 101.796 30.512 101.516 30.624C101.236 30.728 100.992 30.88 100.784 31.08C100.584 31.28 100.428 31.52 100.316 31.8C100.204 32.072 100.148 32.372 100.148 32.7V36H99.3919V29.808ZM105.582 30.264C105.222 30.264 104.906 30.34 104.634 30.492C104.362 30.644 104.134 30.844 103.95 31.092C103.774 31.34 103.638 31.624 103.542 31.944C103.454 32.256 103.41 32.576 103.41 32.904C103.41 33.232 103.454 33.556 103.542 33.876C103.638 34.188 103.774 34.468 103.95 34.716C104.134 34.964 104.362 35.164 104.634 35.316C104.906 35.468 105.222 35.544 105.582 35.544C105.942 35.544 106.258 35.468 106.53 35.316C106.802 35.164 107.026 34.964 107.202 34.716C107.386 34.468 107.522 34.188 107.61 33.876C107.706 33.556 107.754 33.232 107.754 32.904C107.754 32.576 107.706 32.256 107.61 31.944C107.522 31.624 107.386 31.34 107.202 31.092C107.026 30.844 106.802 30.644 106.53 30.492C106.258 30.34 105.942 30.264 105.582 30.264ZM105.582 29.628C106.054 29.628 106.47 29.716 106.83 29.892C107.198 30.068 107.506 30.304 107.754 30.6C108.002 30.896 108.19 31.244 108.318 31.644C108.446 32.036 108.51 32.456 108.51 32.904C108.51 33.352 108.446 33.776 108.318 34.176C108.19 34.568 108.002 34.912 107.754 35.208C107.506 35.504 107.198 35.74 106.83 35.916C106.47 36.084 106.054 36.168 105.582 36.168C105.11 36.168 104.69 36.084 104.322 35.916C103.962 35.74 103.658 35.504 103.41 35.208C103.162 34.912 102.974 34.568 102.846 34.176C102.718 33.776 102.654 33.352 102.654 32.904C102.654 32.456 102.718 32.036 102.846 31.644C102.974 31.244 103.162 30.896 103.41 30.6C103.658 30.304 103.962 30.068 104.322 29.892C104.69 29.716 105.11 29.628 105.582 29.628ZM115.082 36H114.386V34.824H114.362C114.282 35.024 114.162 35.208 114.002 35.376C113.85 35.544 113.674 35.688 113.474 35.808C113.274 35.92 113.058 36.008 112.826 36.072C112.602 36.136 112.378 36.168 112.154 36.168C111.682 36.168 111.27 36.084 110.918 35.916C110.574 35.74 110.286 35.504 110.054 35.208C109.822 34.904 109.65 34.556 109.538 34.164C109.426 33.764 109.37 33.344 109.37 32.904C109.37 32.464 109.426 32.048 109.538 31.656C109.65 31.256 109.822 30.908 110.054 30.612C110.286 30.308 110.574 30.068 110.918 29.892C111.27 29.716 111.682 29.628 112.154 29.628C112.386 29.628 112.61 29.656 112.826 29.712C113.05 29.768 113.258 29.856 113.45 29.976C113.642 30.088 113.81 30.228 113.954 30.396C114.106 30.564 114.222 30.76 114.302 30.984H114.326V27.432H115.082V36ZM110.126 32.904C110.126 33.224 110.162 33.544 110.234 33.864C110.314 34.176 110.434 34.456 110.594 34.704C110.762 34.952 110.974 35.156 111.23 35.316C111.486 35.468 111.794 35.544 112.154 35.544C112.554 35.544 112.89 35.468 113.162 35.316C113.442 35.156 113.666 34.952 113.834 34.704C114.01 34.456 114.134 34.176 114.206 33.864C114.286 33.544 114.326 33.224 114.326 32.904C114.326 32.584 114.286 32.268 114.206 31.956C114.134 31.636 114.01 31.352 113.834 31.104C113.666 30.856 113.442 30.656 113.162 30.504C112.89 30.344 112.554 30.264 112.154 30.264C111.794 30.264 111.486 30.344 111.23 30.504C110.974 30.656 110.762 30.856 110.594 31.104C110.434 31.352 110.314 31.636 110.234 31.956C110.162 32.268 110.126 32.584 110.126 32.904ZM120.977 32.472C120.969 32.184 120.917 31.908 120.821 31.644C120.733 31.38 120.605 31.148 120.437 30.948C120.269 30.74 120.065 30.576 119.825 30.456C119.585 30.328 119.313 30.264 119.009 30.264C118.697 30.264 118.421 30.328 118.181 30.456C117.941 30.576 117.737 30.74 117.569 30.948C117.401 31.148 117.265 31.384 117.161 31.656C117.065 31.92 117.001 32.192 116.969 32.472H120.977ZM116.969 33.108C116.969 33.38 117.005 33.664 117.077 33.96C117.157 34.248 117.281 34.508 117.449 34.74C117.617 34.972 117.829 35.164 118.085 35.316C118.341 35.468 118.649 35.544 119.009 35.544C119.561 35.544 119.993 35.4 120.305 35.112C120.617 34.824 120.833 34.44 120.953 33.96H121.709C121.549 34.664 121.253 35.208 120.821 35.592C120.397 35.976 119.793 36.168 119.009 36.168C118.521 36.168 118.097 36.084 117.737 35.916C117.385 35.74 117.097 35.504 116.873 35.208C116.649 34.904 116.481 34.556 116.369 34.164C116.265 33.764 116.213 33.344 116.213 32.904C116.213 32.496 116.265 32.096 116.369 31.704C116.481 31.312 116.649 30.964 116.873 30.66C117.097 30.348 117.385 30.1 117.737 29.916C118.097 29.724 118.521 29.628 119.009 29.628C119.505 29.628 119.929 29.728 120.281 29.928C120.633 30.128 120.917 30.392 121.133 30.72C121.357 31.04 121.517 31.412 121.613 31.836C121.709 32.252 121.749 32.676 121.733 33.108H116.969ZM122.747 27.432H123.503V32.808L126.935 29.808H127.943L125.303 32.1L128.123 36H127.175L124.727 32.628L123.503 33.648V36H122.747V27.432ZM132.231 27.432H133.047V32.04L138.027 27.432H139.131L135.303 30.972L139.311 36H138.255L134.691 31.536L133.047 33.06V36H132.231V27.432ZM144.884 36H144.188V34.884H144.164C143.964 35.3 143.672 35.62 143.288 35.844C142.912 36.06 142.492 36.168 142.028 36.168C141.636 36.168 141.3 36.112 141.02 36C140.748 35.896 140.524 35.744 140.348 35.544C140.18 35.344 140.056 35.1 139.976 34.812C139.896 34.524 139.856 34.196 139.856 33.828V29.808H140.612V33.84C140.628 34.4 140.756 34.824 140.996 35.112C141.244 35.4 141.668 35.544 142.268 35.544C142.596 35.544 142.876 35.476 143.108 35.34C143.34 35.196 143.532 35.008 143.684 34.776C143.836 34.544 143.948 34.28 144.02 33.984C144.092 33.68 144.128 33.372 144.128 33.06V29.808H144.884V36ZM146.326 27.432H147.082V36H146.326V27.432ZM149.729 29.808H150.989V30.444H149.729V34.62C149.729 34.868 149.761 35.064 149.825 35.208C149.897 35.344 150.069 35.42 150.341 35.436C150.557 35.436 150.773 35.424 150.989 35.4V36.036C150.877 36.036 150.765 36.04 150.653 36.048C150.541 36.056 150.429 36.06 150.317 36.06C149.813 36.06 149.461 35.964 149.261 35.772C149.061 35.572 148.965 35.208 148.973 34.68V30.444H147.893V29.808H148.973V27.948H149.729V29.808ZM157.095 36H156.399V34.884H156.375C156.175 35.3 155.883 35.62 155.499 35.844C155.123 36.06 154.703 36.168 154.239 36.168C153.847 36.168 153.511 36.112 153.231 36C152.959 35.896 152.735 35.744 152.559 35.544C152.391 35.344 152.267 35.1 152.187 34.812C152.107 34.524 152.067 34.196 152.067 33.828V29.808H152.823V33.84C152.839 34.4 152.967 34.824 153.207 35.112C153.455 35.4 153.879 35.544 154.479 35.544C154.807 35.544 155.087 35.476 155.319 35.34C155.551 35.196 155.743 35.008 155.895 34.776C156.047 34.544 156.159 34.28 156.231 33.984C156.303 33.68 156.339 33.372 156.339 33.06V29.808H157.095V36ZM158.525 29.808H159.221V31.26H159.245C159.437 30.756 159.733 30.368 160.133 30.096C160.541 29.824 161.025 29.7 161.585 29.724V30.48C161.241 30.464 160.929 30.512 160.649 30.624C160.369 30.728 160.125 30.88 159.917 31.08C159.717 31.28 159.561 31.52 159.449 31.8C159.337 32.072 159.281 32.372 159.281 32.7V36H158.525V29.808ZM161.614 29.808H162.418L164.458 35.088L166.366 29.808H167.122L164.434 36.936C164.322 37.2 164.218 37.416 164.122 37.584C164.026 37.76 163.918 37.896 163.798 37.992C163.686 38.096 163.55 38.168 163.39 38.208C163.238 38.256 163.042 38.28 162.802 38.28C162.65 38.272 162.53 38.264 162.442 38.256C162.362 38.256 162.29 38.244 162.226 38.22V37.584C162.314 37.6 162.398 37.612 162.478 37.62C162.566 37.636 162.654 37.644 162.742 37.644C162.91 37.644 163.046 37.62 163.15 37.572C163.262 37.524 163.358 37.456 163.438 37.368C163.518 37.288 163.586 37.188 163.642 37.068C163.698 36.948 163.758 36.816 163.822 36.672L164.086 35.976L161.614 29.808ZM84.888 45.964V49H84.648V40.432H84.888V45.64L90.828 40.432H91.188L87.048 44.08L91.428 49H91.104L86.856 44.224L84.888 45.964ZM91.7613 44.74C91.7773 44.452 91.8373 44.184 91.9413 43.936C92.0453 43.68 92.1933 43.46 92.3853 43.276C92.5853 43.092 92.8253 42.948 93.1053 42.844C93.3933 42.74 93.7293 42.688 94.1133 42.688C94.3853 42.688 94.6413 42.716 94.8813 42.772C95.1293 42.828 95.3453 42.928 95.5293 43.072C95.7133 43.208 95.8613 43.388 95.9733 43.612C96.0853 43.836 96.1453 44.116 96.1533 44.452V48.376C96.1533 48.496 96.1773 48.584 96.2253 48.64C96.2733 48.696 96.3373 48.736 96.4173 48.76C96.4973 48.776 96.5813 48.784 96.6693 48.784C96.7653 48.776 96.8533 48.768 96.9333 48.76V49H96.5733C96.3973 49 96.2413 48.96 96.1053 48.88C95.9773 48.792 95.9133 48.632 95.9133 48.4V47.596H95.8893C95.8253 47.796 95.7213 47.988 95.5773 48.172C95.4413 48.356 95.2653 48.52 95.0493 48.664C94.8413 48.808 94.6013 48.92 94.3293 49C94.0573 49.088 93.7613 49.132 93.4413 49.132C92.8173 49.132 92.3173 48.996 91.9413 48.724C91.5653 48.444 91.3773 48.028 91.3773 47.476C91.3773 47.092 91.4373 46.784 91.5573 46.552C91.6853 46.32 91.8493 46.14 92.0493 46.012C92.2493 45.876 92.4773 45.784 92.7333 45.736C92.9893 45.68 93.2453 45.644 93.5013 45.628C93.9253 45.604 94.2893 45.584 94.5933 45.568C94.8973 45.544 95.1453 45.504 95.3373 45.448C95.5373 45.384 95.6813 45.292 95.7693 45.172C95.8653 45.044 95.9133 44.864 95.9133 44.632C95.9133 44.448 95.8973 44.256 95.8653 44.056C95.8333 43.856 95.7533 43.672 95.6253 43.504C95.5053 43.336 95.3253 43.2 95.0853 43.096C94.8453 42.984 94.5213 42.928 94.1133 42.928C93.4653 42.928 92.9613 43.088 92.6013 43.408C92.2413 43.72 92.0413 44.164 92.0013 44.74H91.7613ZM95.9133 45.376H95.8893C95.8093 45.488 95.6853 45.576 95.5173 45.64C95.3493 45.696 95.1573 45.74 94.9413 45.772C94.7253 45.804 94.4893 45.824 94.2333 45.832C93.9853 45.84 93.7413 45.852 93.5013 45.868C93.2613 45.884 93.0253 45.916 92.7933 45.964C92.5693 46.004 92.3693 46.084 92.1933 46.204C92.0173 46.316 91.8773 46.476 91.7733 46.684C91.6693 46.884 91.6173 47.148 91.6173 47.476C91.6173 47.652 91.6453 47.828 91.7013 48.004C91.7653 48.172 91.8693 48.324 92.0133 48.46C92.1573 48.588 92.3413 48.696 92.5653 48.784C92.7973 48.864 93.0813 48.904 93.4173 48.904C93.8173 48.904 94.1733 48.836 94.4853 48.7C94.7973 48.564 95.0573 48.388 95.2653 48.172C95.4813 47.948 95.6413 47.692 95.7453 47.404C95.8573 47.116 95.9133 46.82 95.9133 46.516V45.376ZM97.5506 42.832H97.7906V44.356H97.8146C97.8706 44.116 97.9586 43.896 98.0786 43.696C98.1986 43.496 98.3466 43.32 98.5226 43.168C98.6986 43.016 98.8906 42.9 99.0986 42.82C99.3146 42.732 99.5426 42.688 99.7826 42.688C100.263 42.672 100.663 42.796 100.983 43.06C101.311 43.316 101.527 43.672 101.631 44.128H101.655C101.775 43.696 102.011 43.348 102.363 43.084C102.715 42.82 103.131 42.688 103.611 42.688C103.987 42.688 104.299 42.744 104.547 42.856C104.795 42.968 104.995 43.124 105.147 43.324C105.299 43.516 105.407 43.752 105.471 44.032C105.535 44.304 105.567 44.608 105.567 44.944V49H105.327V44.944C105.327 44.64 105.299 44.364 105.243 44.116C105.195 43.868 105.103 43.656 104.967 43.48C104.839 43.304 104.663 43.168 104.439 43.072C104.223 42.976 103.947 42.928 103.611 42.928C103.315 42.928 103.047 42.988 102.807 43.108C102.567 43.22 102.363 43.376 102.195 43.576C102.027 43.776 101.899 44.008 101.811 44.272C101.723 44.528 101.679 44.8 101.679 45.088V49H101.439V45.04C101.439 44.752 101.415 44.48 101.367 44.224C101.327 43.968 101.247 43.744 101.127 43.552C101.007 43.36 100.839 43.208 100.623 43.096C100.407 42.984 100.127 42.928 99.7826 42.928C99.4786 42.928 99.2026 43 98.9546 43.144C98.7066 43.28 98.4946 43.468 98.3186 43.708C98.1506 43.94 98.0186 44.212 97.9226 44.524C97.8346 44.836 97.7906 45.164 97.7906 45.508V49H97.5506V42.832ZM107.13 41.644H106.89V40.432H107.13V41.644ZM107.13 49H106.89V42.832H107.13V49ZM108.329 45.964C108.337 46.38 108.385 46.768 108.473 47.128C108.569 47.48 108.713 47.788 108.905 48.052C109.097 48.316 109.345 48.524 109.649 48.676C109.953 48.828 110.325 48.904 110.765 48.904C111.413 48.904 111.949 48.736 112.373 48.4C112.805 48.056 113.073 47.544 113.177 46.864H113.417C113.329 47.584 113.045 48.144 112.565 48.544C112.085 48.936 111.493 49.132 110.789 49.132C110.309 49.14 109.897 49.064 109.553 48.904C109.217 48.744 108.941 48.52 108.725 48.232C108.509 47.936 108.349 47.592 108.245 47.2C108.141 46.8 108.089 46.372 108.089 45.916C108.089 45.404 108.165 44.948 108.317 44.548C108.469 44.148 108.669 43.812 108.917 43.54C109.165 43.26 109.453 43.048 109.781 42.904C110.109 42.76 110.445 42.688 110.789 42.688C111.269 42.688 111.681 42.78 112.025 42.964C112.377 43.148 112.661 43.392 112.877 43.696C113.101 44 113.261 44.348 113.357 44.74C113.461 45.132 113.505 45.54 113.489 45.964H108.329ZM113.249 45.724C113.249 45.348 113.197 44.992 113.093 44.656C112.989 44.312 112.833 44.012 112.625 43.756C112.425 43.5 112.173 43.3 111.869 43.156C111.565 43.004 111.213 42.928 110.813 42.928C110.477 42.928 110.161 42.992 109.865 43.12C109.577 43.248 109.321 43.436 109.097 43.684C108.881 43.924 108.705 44.216 108.569 44.56C108.433 44.904 108.353 45.292 108.329 45.724H113.249ZM114.689 42.832V44.356H114.713C114.769 44.116 114.857 43.896 114.977 43.696C115.105 43.496 115.261 43.32 115.445 43.168C115.637 43.016 115.857 42.9 116.105 42.82C116.353 42.732 116.629 42.688 116.933 42.688C117.253 42.688 117.545 42.736 117.809 42.832C118.081 42.928 118.313 43.072 118.505 43.264C118.705 43.448 118.857 43.68 118.961 43.96C119.073 44.232 119.129 44.548 119.129 44.908V49H118.889V44.944C118.889 44.584 118.837 44.28 118.733 44.032C118.629 43.776 118.485 43.568 118.301 43.408C118.125 43.24 117.917 43.12 117.677 43.048C117.445 42.968 117.197 42.928 116.933 42.928C116.565 42.928 116.241 43 115.961 43.144C115.681 43.28 115.445 43.468 115.253 43.708C115.069 43.94 114.929 44.212 114.833 44.524C114.737 44.836 114.689 45.164 114.689 45.508V49H114.449V42.832H114.689ZM116.357 42.22H116.177L117.761 40.492H118.109L116.357 42.22ZM124.017 45.964V49H123.777V40.432H124.017V45.64L129.957 40.432H130.317L126.177 44.08L130.557 49H130.233L125.985 44.224L124.017 45.964ZM131.142 49H130.902V42.832H131.142V44.356H131.166C131.222 44.124 131.31 43.908 131.43 43.708C131.55 43.5 131.71 43.32 131.91 43.168C132.11 43.016 132.346 42.896 132.618 42.808C132.898 42.72 133.222 42.68 133.59 42.688V42.928C133.166 42.904 132.798 42.964 132.486 43.108C132.182 43.244 131.93 43.436 131.73 43.684C131.53 43.924 131.382 44.204 131.286 44.524C131.19 44.844 131.142 45.172 131.142 45.508V49ZM133.996 44.74C134.012 44.452 134.072 44.184 134.176 43.936C134.28 43.68 134.428 43.46 134.62 43.276C134.82 43.092 135.06 42.948 135.34 42.844C135.628 42.74 135.964 42.688 136.348 42.688C136.62 42.688 136.876 42.716 137.116 42.772C137.364 42.828 137.58 42.928 137.764 43.072C137.948 43.208 138.096 43.388 138.208 43.612C138.32 43.836 138.38 44.116 138.388 44.452V48.376C138.388 48.496 138.412 48.584 138.46 48.64C138.508 48.696 138.572 48.736 138.652 48.76C138.732 48.776 138.816 48.784 138.904 48.784C139 48.776 139.088 48.768 139.168 48.76V49H138.808C138.632 49 138.476 48.96 138.34 48.88C138.212 48.792 138.148 48.632 138.148 48.4V47.596H138.124C138.06 47.796 137.956 47.988 137.812 48.172C137.676 48.356 137.5 48.52 137.284 48.664C137.076 48.808 136.836 48.92 136.564 49C136.292 49.088 135.996 49.132 135.676 49.132C135.052 49.132 134.552 48.996 134.176 48.724C133.8 48.444 133.612 48.028 133.612 47.476C133.612 47.092 133.672 46.784 133.792 46.552C133.92 46.32 134.084 46.14 134.284 46.012C134.484 45.876 134.712 45.784 134.968 45.736C135.224 45.68 135.48 45.644 135.736 45.628C136.16 45.604 136.524 45.584 136.828 45.568C137.132 45.544 137.38 45.504 137.572 45.448C137.772 45.384 137.916 45.292 138.004 45.172C138.1 45.044 138.148 44.864 138.148 44.632C138.148 44.448 138.132 44.256 138.1 44.056C138.068 43.856 137.988 43.672 137.86 43.504C137.74 43.336 137.56 43.2 137.32 43.096C137.08 42.984 136.756 42.928 136.348 42.928C135.7 42.928 135.196 43.088 134.836 43.408C134.476 43.72 134.276 44.164 134.236 44.74H133.996ZM138.148 45.376H138.124C138.044 45.488 137.92 45.576 137.752 45.64C137.584 45.696 137.392 45.74 137.176 45.772C136.96 45.804 136.724 45.824 136.468 45.832C136.22 45.84 135.976 45.852 135.736 45.868C135.496 45.884 135.26 45.916 135.028 45.964C134.804 46.004 134.604 46.084 134.428 46.204C134.252 46.316 134.112 46.476 134.008 46.684C133.904 46.884 133.852 47.148 133.852 47.476C133.852 47.652 133.88 47.828 133.936 48.004C134 48.172 134.104 48.324 134.248 48.46C134.392 48.588 134.576 48.696 134.8 48.784C135.032 48.864 135.316 48.904 135.652 48.904C136.052 48.904 136.408 48.836 136.72 48.7C137.032 48.564 137.292 48.388 137.5 48.172C137.716 47.948 137.876 47.692 137.98 47.404C138.092 47.116 138.148 46.82 138.148 46.516V45.376ZM140.025 41.644H139.785V40.432H140.025V41.644ZM140.025 49.888C140.025 50.168 139.993 50.388 139.929 50.548C139.865 50.716 139.769 50.84 139.641 50.92C139.513 51.008 139.357 51.06 139.173 51.076C138.989 51.1 138.781 51.112 138.549 51.112V50.872C138.773 50.872 138.965 50.864 139.125 50.848C139.285 50.832 139.413 50.788 139.509 50.716C139.605 50.652 139.673 50.548 139.713 50.404C139.761 50.26 139.785 50.06 139.785 49.804V42.832H140.025V49.888ZM141.224 45.964C141.232 46.38 141.28 46.768 141.368 47.128C141.464 47.48 141.608 47.788 141.8 48.052C141.992 48.316 142.24 48.524 142.544 48.676C142.848 48.828 143.22 48.904 143.66 48.904C144.308 48.904 144.844 48.736 145.268 48.4C145.7 48.056 145.968 47.544 146.072 46.864H146.312C146.224 47.584 145.94 48.144 145.46 48.544C144.98 48.936 144.388 49.132 143.684 49.132C143.204 49.14 142.792 49.064 142.448 48.904C142.112 48.744 141.836 48.52 141.62 48.232C141.404 47.936 141.244 47.592 141.14 47.2C141.036 46.8 140.984 46.372 140.984 45.916C140.984 45.404 141.06 44.948 141.212 44.548C141.364 44.148 141.564 43.812 141.812 43.54C142.06 43.26 142.348 43.048 142.676 42.904C143.004 42.76 143.34 42.688 143.684 42.688C144.164 42.688 144.576 42.78 144.92 42.964C145.272 43.148 145.556 43.392 145.772 43.696C145.996 44 146.156 44.348 146.252 44.74C146.356 45.132 146.4 45.54 146.384 45.964H141.224ZM146.144 45.724C146.144 45.348 146.092 44.992 145.988 44.656C145.884 44.312 145.728 44.012 145.52 43.756C145.32 43.5 145.068 43.3 144.764 43.156C144.46 43.004 144.108 42.928 143.708 42.928C143.372 42.928 143.056 42.992 142.76 43.12C142.472 43.248 142.216 43.436 141.992 43.684C141.776 43.924 141.6 44.216 141.464 44.56C141.328 44.904 141.248 45.292 141.224 45.724H146.144ZM147.584 42.832V44.356H147.608C147.664 44.116 147.752 43.896 147.872 43.696C148 43.496 148.156 43.32 148.34 43.168C148.532 43.016 148.752 42.9 149 42.82C149.248 42.732 149.524 42.688 149.828 42.688C150.148 42.688 150.44 42.736 150.704 42.832C150.976 42.928 151.208 43.072 151.4 43.264C151.6 43.448 151.752 43.68 151.856 43.96C151.968 44.232 152.024 44.548 152.024 44.908V49H151.784V44.944C151.784 44.584 151.732 44.28 151.628 44.032C151.524 43.776 151.38 43.568 151.196 43.408C151.02 43.24 150.812 43.12 150.572 43.048C150.34 42.968 150.092 42.928 149.828 42.928C149.46 42.928 149.136 43 148.856 43.144C148.576 43.28 148.34 43.468 148.148 43.708C147.964 43.94 147.824 44.212 147.728 44.524C147.632 44.836 147.584 45.164 147.584 45.508V49H147.344V42.832H147.584ZM149.252 42.22H149.072L150.656 40.492H151.004L149.252 42.22ZM157.364 44.656C157.364 44.344 157.316 44.08 157.22 43.864C157.124 43.648 156.988 43.472 156.812 43.336C156.636 43.192 156.424 43.088 156.176 43.024C155.936 42.96 155.668 42.928 155.372 42.928C154.94 42.928 154.6 42.988 154.352 43.108C154.104 43.22 153.92 43.352 153.8 43.504C153.68 43.648 153.604 43.792 153.572 43.936C153.54 44.08 153.524 44.18 153.524 44.236C153.524 44.54 153.584 44.776 153.704 44.944C153.832 45.104 154 45.228 154.208 45.316C154.424 45.404 154.656 45.48 154.904 45.544C155.16 45.608 155.456 45.684 155.792 45.772C156.032 45.836 156.268 45.904 156.5 45.976C156.74 46.04 156.952 46.132 157.136 46.252C157.328 46.372 157.48 46.524 157.592 46.708C157.712 46.892 157.772 47.132 157.772 47.428C157.772 47.74 157.704 48.004 157.568 48.22C157.44 48.436 157.268 48.612 157.052 48.748C156.844 48.884 156.604 48.98 156.332 49.036C156.068 49.1 155.804 49.132 155.54 49.132C154.716 49.132 154.092 48.952 153.668 48.592C153.252 48.232 153.044 47.664 153.044 46.888H153.284C153.284 47.584 153.476 48.096 153.86 48.424C154.252 48.744 154.812 48.904 155.54 48.904C155.764 48.904 155.992 48.88 156.224 48.832C156.464 48.776 156.68 48.692 156.872 48.58C157.064 48.46 157.22 48.308 157.34 48.124C157.468 47.94 157.532 47.716 157.532 47.452C157.532 47.18 157.468 46.96 157.34 46.792C157.22 46.624 157.06 46.488 156.86 46.384C156.668 46.272 156.444 46.184 156.188 46.12C155.932 46.056 155.672 45.992 155.408 45.928C155.112 45.856 154.852 45.788 154.628 45.724C154.404 45.66 154.204 45.588 154.028 45.508C153.772 45.396 153.584 45.24 153.464 45.04C153.344 44.84 153.284 44.572 153.284 44.236C153.284 44.068 153.32 43.892 153.392 43.708C153.464 43.524 153.584 43.356 153.752 43.204C153.92 43.052 154.136 42.928 154.4 42.832C154.664 42.736 154.988 42.688 155.372 42.688C156.06 42.688 156.604 42.844 157.004 43.156C157.404 43.468 157.604 43.968 157.604 44.656H157.364ZM159.138 46.672V49H158.898V40.432H159.138V46.372L163.398 42.832H163.746L160.914 45.184L163.95 49H163.626L160.734 45.352L159.138 46.672ZM164.47 41.644H164.23V40.432H164.47V41.644ZM164.47 49H164.23V42.832H164.47V49Z" fill="#14335D"/>
<defs>
<clipPath id="clip0_825_652">
<rect width="72" height="36" fill="white" transform="translate(0 12)"/>
</clipPath>
</defs>
</svg>
